<svg xmlns="http://www.w3.org/2000/svg" xmlns:xlink="http://www.w3.org/1999/xlink" width="278" height="36.432" viewBox="0 0 278 36.432"><defs><style>.a{fill:url(#a);}.b{fill:none;stroke:#5c5780;}</style><linearGradient id="a" x1="0.5" x2="0.5" y2="1" gradientUnits="objectBoundingBox"><stop offset="0" stop-color="#d8c095"/><stop offset="0.468" stop-color="#ffe8be"/><stop offset="0.97" stop-color="#d1b072"/><stop offset="1" stop-color="#b69e72"/></linearGradient></defs><g transform="translate(-544.5 -2940.223)"><g transform="translate(-5 6)"><path class="a" d="M21.788-92.412l1.494,2.078a27.476,27.476,0,0,0-8.053,5.488q-2.987,3.085-2.987,5.812,0,1.948,3.7,3.767a14.077,14.077,0,0,1,5.2,3.961A8.813,8.813,0,0,1,22.7-65.98a9.874,9.874,0,0,1-2.76,7.144,9.217,9.217,0,0,1-6.916,2.857,9.169,9.169,0,0,1-7.5-3.6A14.437,14.437,0,0,1,2.63-68.9a22.23,22.23,0,0,1,2.273-9.9,23.967,23.967,0,0,1,6.689-8.183A31.967,31.967,0,0,1,21.788-92.412Zm-24.873,0,1.494,2.078a27.476,27.476,0,0,0-8.053,5.488q-2.987,3.085-2.987,5.812,0,1.948,3.7,3.767a14.077,14.077,0,0,1,5.2,3.961A8.813,8.813,0,0,1-2.176-65.98a9.874,9.874,0,0,1-2.76,7.144,9.217,9.217,0,0,1-6.916,2.857,9.169,9.169,0,0,1-7.5-3.6,14.436,14.436,0,0,1-2.89-9.319,22.23,22.23,0,0,1,2.273-9.9,23.967,23.967,0,0,1,6.689-8.183A31.967,31.967,0,0,1-3.085-92.412Z" transform="translate(691.488 3026.635)"/><line class="b" x2="96" transform="translate(549.5 2957.5)"/><line class="b" x2="96" transform="translate(731.5 2957.5)"/></g></g></svg>