<svg xmlns="http://www.w3.org/2000/svg" width="27.418" height="34.606" viewBox="0 0 27.418 34.606"><g transform="translate(-1448 -6933)"><path d="M864.354,418.263a.717.717,0,0,1-.508-.211c-3.156-3.156-10.016-11.078-11.757-14.557a13.551,13.551,0,0,1-1.443-6.128,13.709,13.709,0,1,1,27.418,0,13.561,13.561,0,0,1-1.443,6.128c-1.74,3.477-8.6,11.4-11.758,14.557A.718.718,0,0,1,864.354,418.263Zm0-33.166a12.284,12.284,0,0,0-12.269,12.27,12.143,12.143,0,0,0,1.291,5.484c1.562,3.122,7.765,10.347,10.978,13.665,3.215-3.319,9.417-10.545,10.98-13.665a12.272,12.272,0,0,0-10.98-17.754Z" transform="translate(597.354 6549.343)" fill="#fff"/><path d="M860.036,404.012a.721.721,0,0,1-.713-.819l.612-4.409-3.085-3.207a.72.72,0,0,1,.392-1.208l4.381-.781,2.1-3.926a.72.72,0,0,1,.634-.381h0a.72.72,0,0,1,.635.381l2.1,3.926,4.381.781a.72.72,0,0,1,.392,1.208l-3.085,3.207.612,4.409a.72.72,0,0,1-1.028.746l-4-1.943-4,1.943A.713.713,0,0,1,860.036,404.012Zm-1.215-8.462,2.394,2.488a.72.72,0,0,1,.194.6l-.474,3.42,3.106-1.508a.71.71,0,0,1,.629,0l3.105,1.508-.474-3.42a.72.72,0,0,1,.194-.6l2.394-2.488-3.4-.606a.717.717,0,0,1-.509-.37l-1.626-3.045-1.626,3.045a.719.719,0,0,1-.509.37Z" transform="translate(597.354 6549.343)" fill="#fff"/></g></svg>