<svg xmlns="http://www.w3.org/2000/svg" width="222.058" height="35.418" viewBox="0 0 222.058 35.418"><g transform="translate(-83.852 -151.784)"><path d="M102.472,151.784l4.4,13.529h14.225l-11.508,8.361,4.4,13.529-11.508-8.361L90.964,187.2l4.4-13.529-11.508-8.361H98.076Z" fill="#ffcd84"/><path d="M180.611,151.784l4.4,13.529h14.225l-11.508,8.361,4.4,13.529-11.508-8.361L169.1,187.2l4.4-13.529-11.508-8.361h14.225Z" transform="translate(-31.935)" fill="#ffcd84"/><path d="M258.751,151.784l4.4,13.529h14.225l-11.508,8.361,4.4,13.529-11.508-8.361L247.243,187.2l4.4-13.529-11.508-8.361h14.225Z" transform="translate(-63.87)" fill="#ffcd84"/><path d="M336.89,151.784l4.4,13.529h14.225L344,173.673l4.4,13.529-11.508-8.361L325.382,187.2l4.4-13.529-11.508-8.361h14.225Z" transform="translate(-95.806)" fill="#ffcd84"/><path d="M415.03,151.784l4.4,13.529H433.65l-11.508,8.361,4.4,13.529-11.508-8.361L403.521,187.2l4.4-13.529-11.508-8.361h14.225Z" transform="translate(-127.741)" fill="#ffcd84"/></g></svg>