<svg xmlns="http://www.w3.org/2000/svg" width="47.867" height="47.867" viewBox="0 0 47.867 47.867"><path d="M34.887,30.779a6.266,6.266,0,0,1-2.5-.517L33.32,28.1a3.959,3.959,0,0,0,2.866.1l.774,2.218a6.2,6.2,0,0,1-2.072.353ZM13.1,30.735a6.32,6.32,0,0,1-2.18-.389l.812-2.2a3.974,3.974,0,0,0,2.872-.052l.892,2.174a6.269,6.269,0,0,1-2.4.471ZM30.4,29.173l-3.309-1.885,1.163-2.042,3.311,1.885Zm-12.874-.04-1.207-2.016,3.269-1.957,1.207,2.016-3.269,1.957Zm7.814-2.808a3.942,3.942,0,0,0-2.868-.068l-.8-2.21a6.306,6.306,0,0,1,4.571.112l-.9,2.166ZM39.949,26a1.931,1.931,0,1,0,1.933,1.931A1.931,1.931,0,0,0,39.949,26ZM7.916,26a1.931,1.931,0,1,0,1.933,1.931A1.931,1.931,0,0,0,7.916,26ZM43.878,24.34V37.669L35.9,42.614V33.906H33.906v8.259l-7.978-5.754V29.917H21.939v6.492l-7.978,5.754V33.906H11.967v8.706L3.989,37.667V11.153L11.967,16.1v7.836h1.994V16.1l7.978-5.756v9.6h3.989v-9.6l3.145,2.27a11.289,11.289,0,0,1-1.151-5.034l.038-.688-4.027-2.9L12.874,11.967,0,3.989v35.9l12.874,7.978,11.059-7.978,11.059,7.978,12.874-7.978V16.718l-.078.094a14.625,14.625,0,0,0-3.911,7.529ZM47.867,7.581C47.867,3.395,44.078,0,39.889,0s-7.978,3.395-7.978,7.581c0,6.225,6.358,6.883,7.978,16.353C41.509,14.464,47.867,13.806,47.867,7.581Zm-10.97.4a2.992,2.992,0,1,1,2.992,2.992A2.992,2.992,0,0,1,36.9,7.978ZM35.8,23.934a13.11,13.11,0,0,0-1.9-4.655v4.655Z" fill="#93c3ad"/></svg>