<svg xmlns="http://www.w3.org/2000/svg" width="36.949" height="36.988" viewBox="0 0 36.949 36.988"><g transform="translate(-475.66 -434.268)"><g transform="translate(500.169 441.099)"><path d="M610.04,508.465a1.7,1.7,0,0,0,2.41,2.41,6.94,6.94,0,0,0,0-9.8,1.7,1.7,0,0,0-2.411,2.411A3.528,3.528,0,0,1,610.04,508.465Z" transform="translate(-609.54 -495.265)" fill="#414042"/><path d="M641.443,472.079a1.7,1.7,0,0,0-2.411,2.411,11.042,11.042,0,0,1,0,15.6,1.7,1.7,0,1,0,2.411,2.411A14.455,14.455,0,0,0,641.443,472.079Z" transform="translate(-633.225 -471.58)" fill="#414042"/></g><g transform="translate(475.66 434.268)"><g transform="translate(0 0)"><path d="M478.406,471.256h16.079a2.746,2.746,0,0,0,2.746-2.746v-31.5a2.746,2.746,0,0,0-2.746-2.746H478.406a2.746,2.746,0,0,0-2.746,2.746v31.5A2.746,2.746,0,0,0,478.406,471.256Zm8.039-1.92a1.472,1.472,0,1,1,1.472-1.472A1.472,1.472,0,0,1,486.445,469.336Zm-2.32-33.494h4.641a.538.538,0,0,1,0,1.076h-4.641a.538.538,0,0,1,0-1.076Zm-5.713,4.581A1.419,1.419,0,0,1,479.831,439H493.06a1.419,1.419,0,0,1,1.419,1.419v22.565a1.419,1.419,0,0,1-1.419,1.419H479.831a1.419,1.419,0,0,1-1.419-1.419Z" transform="translate(-475.66 -434.268)" fill="#414042"/></g></g></g></svg>