<svg xmlns="http://www.w3.org/2000/svg" width="53.694" height="45.679" viewBox="0 0 53.694 45.679"><path d="M81.188,36.732q.957,0,1.916-.064c-3.245,3.861-8.845,6.413-15.214,6.413a23.1,23.1,0,0,1-4.539-.445,37.85,37.85,0,0,1-11.905,3.043,23.131,23.131,0,0,0,5.143-5.67c-4.188-2.592-6.877-6.59-6.877-11.079,0-4.688,2.933-8.842,7.446-11.416C57.351,28.137,68.053,36.732,81.188,36.732Zm22.142,1.485a1.308,1.308,0,0,1-1.232.875l-.074,0a42.649,42.649,0,0,1-16.683-4.962,27.569,27.569,0,0,1-4.153.317c-11.995,0-21.753-7.726-21.753-17.221S69.194,0,81.188,0,102.94,7.726,102.94,17.223A15.653,15.653,0,0,1,96.583,29.4a26.456,26.456,0,0,0,6.271,7.319A1.309,1.309,0,0,1,103.331,38.216Zm-5.142-2.293a33.743,33.743,0,0,1-4.463-6.237,1.309,1.309,0,0,1,.39-1.709c3.946-2.766,6.21-6.687,6.21-10.755,0-8.054-8.585-14.608-19.137-14.608S62.05,9.168,62.05,17.223s8.585,14.607,19.138,14.607a24.77,24.77,0,0,0,4.182-.356,1.406,1.406,0,0,1,.22-.018,1.306,1.306,0,0,1,.659.179A38.456,38.456,0,0,0,98.189,35.923ZM90.2,14.782a2.439,2.439,0,1,0,2.44,2.44A2.442,2.442,0,0,0,90.2,14.782Zm-9.009,0a2.439,2.439,0,1,0,2.44,2.44A2.441,2.441,0,0,0,81.188,14.782Zm-9.012,0a2.439,2.439,0,1,0,2.441,2.44A2.441,2.441,0,0,0,72.176,14.782Z" transform="translate(-49.711)" fill="#93c3ad"/></svg>