<svg xmlns="http://www.w3.org/2000/svg" width="41.357" height="31.039" viewBox="0 0 41.357 31.039"><g transform="translate(-1246.731 -6932.8)"><path d="M3518.475,1123.136a5.437,5.437,0,1,1,5.436-5.437A5.443,5.443,0,0,1,3518.475,1123.136Zm0-9.422a3.985,3.985,0,1,0,3.985,3.985A3.989,3.989,0,0,0,3518.475,1113.714Z" transform="translate(-2242.623 5825.195)" fill="#fff"/><rect width="1.452" height="2.355" transform="translate(1271.253 6953.86)" fill="#fff"/><rect width="1.452" height="2.353" transform="translate(1279.007 6953.86)" fill="#fff"/><path d="M3494.119,1247.141h-1.452v-3.708a3.466,3.466,0,0,1,3.462-3.463h3.823v1.452h-3.823a2.013,2.013,0,0,0-2.01,2.011Z" transform="translate(-2224.1 5709.072)" fill="#fff"/><path d="M3580.249,1247.141H3578.8v-3.708a2.013,2.013,0,0,0-2.011-2.011h-3.823v-1.452h3.823a3.466,3.466,0,0,1,3.462,3.463Z" transform="translate(-2297.112 5709.072)" fill="#fff"/><path d="M3319.935,1089.142a3.655,3.655,0,1,1,3.655-3.655A3.659,3.659,0,0,1,3319.935,1089.142Zm0-5.859a2.2,2.2,0,1,0,2.2,2.2A2.207,2.207,0,0,0,3319.935,1083.283Z" transform="translate(-2063.716 5852.865)" fill="#fff"/><rect width="1.452" height="1.464" transform="translate(1253.085 6945.735)" fill="#fff"/><rect width="1.452" height="1.463" transform="translate(1257.907 6945.735)" fill="#fff"/><path d="M3305.068,1172.2h-1.452v-2.306a2.43,2.43,0,0,1,2.428-2.427h2.377v1.452h-2.377a.977.977,0,0,0-.976.976Z" transform="translate(-2052.201 5774.998)" fill="#fff"/><path d="M3361.377,1172.2h-1.452v-2.306a.977.977,0,0,0-.976-.976h-2.377v-1.452h2.377a2.43,2.43,0,0,1,2.427,2.427Z" transform="translate(-2100.354 5774.998)" fill="#fff"/><path d="M3292.615,1086.938h-39.906a.726.726,0,0,1-.726-.726v-24.556a.726.726,0,0,1,.726-.726h39.906a.726.726,0,0,1,.726.726v24.556A.726.726,0,0,1,3292.615,1086.938Zm-39.18-1.452h38.454v-23.1h-38.454Z" transform="translate(-2005.252 5871.87)" fill="#fff"/><rect width="1.452" height="5.031" transform="translate(1266.684 6958.082)" fill="#fff"/><rect width="11.032" height="1.452" transform="translate(1261.893 6962.387)" fill="#fff"/><path d="M3270.235,1077.951h-17.526a.726.726,0,0,1-.726-.726v-15.57a.726.726,0,0,1,.726-.726h17.526a.726.726,0,0,1,.726.726v15.57A.726.726,0,0,1,3270.235,1077.951Zm-16.8-1.452h16.074v-14.118h-16.074Z" transform="translate(-2005.252 5871.87)" fill="#fff"/></g></svg>