<svg xmlns="http://www.w3.org/2000/svg" width="17.917" height="18.121" viewBox="0 0 17.917 18.121">
  <g id="Group_504" data-name="Group 504" transform="translate(1052.558 -386.12)">
    <path id="Path_61" data-name="Path 61" d="M-1050.257,386.62h13.315a1.806,1.806,0,0,1,1.8,1.8v9.135a1.806,1.806,0,0,1-1.8,1.8h-4.413l-2.245,4.384-2.245-4.384h-4.413a1.806,1.806,0,0,1-1.8-1.8v-9.135a1.806,1.806,0,0,1,1.8-1.8Z" fill="#fff" stroke="#324c5e" stroke-linecap="round" stroke-linejoin="round" stroke-width="1"/>
    <path id="Path_62" data-name="Path 62" d="M-937.42,479.477v5.678h5.493v-3.383" transform="translate(-108.89 -88.201)" fill="#fff" stroke="#324c5e" stroke-linecap="round" stroke-linejoin="round" stroke-width="1"/>
    <path id="Path_63" data-name="Path 63" d="M-902.872,515.862h2.029v2.029h-2.029v-2.029Z" transform="translate(-141.705 -122.761)" fill="#fff" stroke="#324c5e" stroke-linecap="round" stroke-linejoin="round" stroke-width="1"/>
    <path id="Path_64" data-name="Path 64" d="M-966.174,436.055l.037-.033-.037-.041,4.115-3.675.037.033.037-.033,4.115,3.675-.037.041.037.033" transform="translate(-81.577 -43.395)" fill="#fff" stroke="#324c5e" stroke-linecap="round" stroke-linejoin="round" stroke-width="1"/>
  </g>
</svg>
