<svg xmlns="http://www.w3.org/2000/svg" width="29.275" height="27.613" viewBox="0 0 29.275 27.613"><path d="M21.967,16.548c-2.16,3.022-5.366,6-8.976,5.517a59.666,59.666,0,0,0-3.279,5.643l-2.8.9A72.59,72.59,0,0,1,15.84,14.6a41.393,41.393,0,0,0-5.987,5.338c-1.9-4.074.1-7.848,3-10.729a5.448,5.448,0,0,0,.942,3.232,10.935,10.935,0,0,1,.859-4.92,25.084,25.084,0,0,1,4.671-3.291,4.926,4.926,0,0,0,.271,2.926,9.317,9.317,0,0,1,1.423-3.778A14.938,14.938,0,0,1,29.275,1a21.517,21.517,0,0,1-2.8,7.4A10.615,10.615,0,0,1,22.65,9.8a8.945,8.945,0,0,0,3.06.295,37.777,37.777,0,0,1-2.487,4.6,11.27,11.27,0,0,1-4.674,1.3,5.915,5.915,0,0,0,3.418.556ZM4.879,27.357H0v1.255H4.879Z" transform="translate(0 -0.999)" fill="#fff"/></svg>