<svg xmlns="http://www.w3.org/2000/svg" width="95.504" height="14.187" viewBox="0 0 95.504 14.187"><g transform="translate(-575 -2240)"><path d="M172.476,803.327l2.3,4.67,5.154.749L176.2,812.38l.88,5.133-4.609-2.423-4.609,2.423.88-5.133-3.729-3.635,5.154-.749Z" transform="translate(409.983 1436.673)" fill="#93c3ad"/><path d="M172.476,803.327l2.3,4.67,5.154.749L176.2,812.38l.88,5.133-4.609-2.423-4.609,2.423.88-5.133-3.729-3.635,5.154-.749Z" transform="translate(430.13 1436.673)" fill="#93c3ad"/><path d="M172.476,803.327l2.3,4.67,5.154.749L176.2,812.38l.88,5.133-4.609-2.423-4.609,2.423.88-5.133-3.729-3.635,5.154-.749Z" transform="translate(450.277 1436.673)" fill="#93c3ad"/><path d="M172.476,803.327l2.3,4.67,5.154.749L176.2,812.38l.88,5.133-4.609-2.423-4.609,2.423.88-5.133-3.729-3.635,5.154-.749Z" transform="translate(470.423 1436.673)" fill="#93c3ad"/><path d="M172.476,803.327l2.3,4.67,5.154.749L176.2,812.38l.88,5.133-4.609-2.423-4.609,2.423.88-5.133-3.729-3.635,5.154-.749Z" transform="translate(490.57 1436.673)" fill="#93c3ad"/></g></svg>