<svg xmlns="http://www.w3.org/2000/svg" xmlns:xlink="http://www.w3.org/1999/xlink" width="158.027" height="23.474" viewBox="0 0 158.027 23.474"><defs><linearGradient id="a" x1="0.5" y1="-0.074" x2="0.5" y2="1.041" gradientUnits="objectBoundingBox"><stop offset="0" stop-color="#9f885e"/><stop offset="0.215" stop-color="#ceb587"/><stop offset="0.4" stop-color="#f1d7a5"/><stop offset="0.5" stop-color="#ffe4b1"/><stop offset="0.585" stop-color="#f8ddab"/><stop offset="0.708" stop-color="#e5cb9a"/><stop offset="0.852" stop-color="#c6ad7f"/><stop offset="1" stop-color="#9f885e"/></linearGradient></defs><g transform="translate(-603.684 -2538.29)"><g transform="translate(28.684 298.29)"><path d="M177.358,803.327l3.814,7.727,8.527,1.239-6.17,6.015,1.457,8.493-7.627-4.01-7.627,4.01,1.457-8.493-6.17-6.015,8.527-1.239Z" transform="translate(409.983 1436.673)" fill="url(#a)"/><path d="M177.358,803.327l3.814,7.727,8.527,1.239-6.17,6.015,1.457,8.493-7.627-4.01-7.627,4.01,1.457-8.493-6.17-6.015,8.527-1.239Z" transform="translate(443.319 1436.673)" fill="url(#a)"/><path d="M177.358,803.327l3.814,7.727,8.527,1.239-6.17,6.015,1.457,8.493-7.627-4.01-7.627,4.01,1.457-8.493-6.17-6.015,8.527-1.239Z" transform="translate(476.655 1436.673)" fill="url(#a)"/><path d="M177.358,803.327l3.814,7.727,8.527,1.239-6.17,6.015,1.457,8.493-7.627-4.01-7.627,4.01,1.457-8.493-6.17-6.015,8.527-1.239Z" transform="translate(509.992 1436.673)" fill="url(#a)"/><path d="M177.358,803.327l3.814,7.727,8.527,1.239-6.17,6.015,1.457,8.493-7.627-4.01-7.627,4.01,1.457-8.493-6.17-6.015,8.527-1.239Z" transform="translate(543.328 1436.673)" fill="url(#a)"/></g></g></svg>