<svg xmlns="http://www.w3.org/2000/svg" width="31.159" height="53.43" viewBox="0 0 31.159 53.43"><path d="M479.627,487.7h23.226a3.967,3.967,0,0,0,3.967-3.966v-45.5a3.967,3.967,0,0,0-3.967-3.967H479.627a3.967,3.967,0,0,0-3.967,3.967v45.5A3.967,3.967,0,0,0,479.627,487.7Zm11.613-2.774a2.126,2.126,0,1,1,2.127-2.126A2.126,2.126,0,0,1,491.24,484.924Zm-3.352-48.382h6.7a.777.777,0,0,1,0,1.555h-6.7a.777.777,0,0,1,0-1.555Zm-8.252,6.618a2.049,2.049,0,0,1,2.049-2.049h19.109a2.049,2.049,0,0,1,2.049,2.049v32.6a2.05,2.05,0,0,1-2.049,2.049H481.685a2.049,2.049,0,0,1-2.049-2.049Z" transform="translate(-475.66 -434.268)" fill="#93c3ad"/></svg>