<svg xmlns="http://www.w3.org/2000/svg" xmlns:xlink="http://www.w3.org/1999/xlink" width="403.63" height="129.438" viewBox="0 0 403.63 129.438"><defs><linearGradient id="a" x1="0.5" y1="-0.074" x2="0.5" y2="1.041" gradientUnits="objectBoundingBox"><stop offset="0" stop-color="#9f885e"/><stop offset="0.215" stop-color="#ceb587"/><stop offset="0.4" stop-color="#f1d7a5"/><stop offset="0.5" stop-color="#ffe4b1"/><stop offset="0.585" stop-color="#f8ddab"/><stop offset="0.708" stop-color="#e5cb9a"/><stop offset="0.852" stop-color="#c6ad7f"/><stop offset="1" stop-color="#9f885e"/></linearGradient></defs><g transform="translate(-500.37 -43)"><g transform="translate(500.37 43)"><path d="M151.618,175.673a18.359,18.359,0,0,1-7.869-8.2c-.106-.232-.22-.452-.331-.671.112-.221.225-.441.331-.671a18.351,18.351,0,0,1,7.857-8.194,15.128,15.128,0,0,1,1.91-.829l.655-.237-4.385-4.383a26.679,26.679,0,0,0-10.256-6.42,26.7,26.7,0,0,0,2.714-11.792v-3.405l-.168-2.735-.59.273a14.976,14.976,0,0,1-1.811.712,18.331,18.331,0,0,1-11.363-.236c-.241-.085-.473-.163-.709-.239-.076-.236-.152-.471-.239-.709a18.37,18.37,0,0,1-.239-11.351,15.514,15.514,0,0,1,.765-1.935l.3-.632h-6.2a26.691,26.691,0,0,0-11.794,2.714,26.69,26.69,0,0,0-6.419-10.258l-2.408-2.406-2.053-1.816-.223.608a15.635,15.635,0,0,1-.776,1.784,18.363,18.363,0,0,1-8.2,7.87c-.23.108-.45.22-.67.331-.22-.112-.441-.223-.671-.333a18.346,18.346,0,0,1-8.2-7.857,15.789,15.789,0,0,1-.827-1.908l-.237-.656-4.383,4.383a26.707,26.707,0,0,0-6.42,10.258,26.677,26.677,0,0,0-11.792-2.714l-3.4,0-2.737.167.273.588a15.333,15.333,0,0,1,.712,1.811,18.357,18.357,0,0,1-.236,11.363c-.087.239-.163.475-.239.709l-.012.005c-.23.074-.461.149-.7.234a18.344,18.344,0,0,1-11.351.239,15.053,15.053,0,0,1-1.935-.764l-.632-.3v6.2a26.666,26.666,0,0,0,2.714,11.792,26.707,26.707,0,0,0-10.258,6.42l-2.406,2.408-1.816,2.053.608.223a15.328,15.328,0,0,1,1.784.776,18.363,18.363,0,0,1,7.87,8.2c.108.229.22.45.331.67-.112.22-.223.439-.333.671a18.351,18.351,0,0,1-7.857,8.194,15.276,15.276,0,0,1-1.908.829l-.656.236,4.383,4.385a26.707,26.707,0,0,0,10.258,6.42,26.666,26.666,0,0,0-2.714,11.792l0,3.4.168,2.737.588-.273a15.11,15.11,0,0,1,1.809-.714,18.37,18.37,0,0,1,11.363.236c.239.089.475.165.71.241.074.234.151.469.237.709a18.357,18.357,0,0,1,.241,11.351,15.451,15.451,0,0,1-.765,1.935l-.3.631h6.2a26.7,26.7,0,0,0,11.792-2.712,26.708,26.708,0,0,0,6.42,10.258l2.408,2.406,2.053,1.816.223-.608a15.012,15.012,0,0,1,.776-1.784,18.354,18.354,0,0,1,8.2-7.87c.23-.108.45-.22.67-.331.22.112.441.223.671.333a18.351,18.351,0,0,1,8.194,7.857,15.076,15.076,0,0,1,.827,1.906l.237.657,4.385-4.383a26.7,26.7,0,0,0,6.419-10.258,26.713,26.713,0,0,0,11.794,2.712h3.405l2.735-.168-.275-.588a15.12,15.12,0,0,1-.71-1.811,18.345,18.345,0,0,1,.236-11.363c.087-.239.163-.473.239-.709.234-.076.468-.152.709-.239a18.338,18.338,0,0,1,11.349-.237,15.64,15.64,0,0,1,1.936.762l.632.3v-6.2a26.7,26.7,0,0,0-2.714-11.792,26.7,26.7,0,0,0,10.256-6.42l2.408-2.408,1.816-2.053-.609-.223A15.27,15.27,0,0,1,151.618,175.673Zm-26.223,12.835a27.227,27.227,0,0,0,11.337-.149,24.152,24.152,0,0,1,2.634,10.986v2.083a20.733,20.733,0,0,0-10.851.218C129.595,196.284,128.546,191.875,125.394,188.508ZM50.4,201.659a20.764,20.764,0,0,0-5.841-.834,20.455,20.455,0,0,0-5.024.62v-2.1a24.159,24.159,0,0,1,2.636-10.986,27.171,27.171,0,0,0,11.368.142C50.374,191.873,49.319,196.288,50.4,201.659Zm3.107-56.548a27.2,27.2,0,0,0-11.337.149,24.164,24.164,0,0,1-2.636-10.986v-2.083a20.77,20.77,0,0,0,10.851-.218C49.309,137.334,50.358,141.743,53.509,145.111ZM128.5,131.959a20.716,20.716,0,0,0,10.862.214v2.1a24.157,24.157,0,0,1-2.634,10.986,27.18,27.18,0,0,0-11.368-.143C128.528,141.747,129.584,137.332,128.5,131.959ZM62.925,184.671a26.923,26.923,0,0,0,4.369-3.538l5.907-5.907h7.834v7.834l-5.907,5.907a26.939,26.939,0,0,0-3.538,4.369v-8.665Zm18.109-26.278H73.2l-5.907-5.907a26.984,26.984,0,0,0-4.367-3.538H71.59v-8.665a26.919,26.919,0,0,0,3.538,4.369l5.907,5.907Zm0,11.9v2.055H76.078l3.5-3.506Zm-4.957-9.025h4.957v2.053l-1.453,1.453ZM63.655,175.227h5.476L65.26,179.1a23.962,23.962,0,0,1-17.055,7.063,24.376,24.376,0,0,1-4.47-.416A24.343,24.343,0,0,1,46.6,182.29,23.961,23.961,0,0,1,63.655,175.227ZM49.24,174l-.019.018h-.066a9.988,9.988,0,0,1-6.709-2.493,17.266,17.266,0,0,1-3.706-4.709,17.246,17.246,0,0,1,3.715-4.718,10.03,10.03,0,0,1,7.06-2.479l.241.062a9.224,9.224,0,0,1,5.923,2.679l4.445,4.447-4.445,4.445a9.215,9.215,0,0,1-6.22,2.695Zm14.416-1.653a27.02,27.02,0,0,0-5.591.586l6.128-6.126-6.128-6.126a27.024,27.024,0,0,0,5.591.586h8.353l5.54,5.54-5.54,5.54ZM46.6,151.329a24.146,24.146,0,0,1-2.866-3.456,24.373,24.373,0,0,1,4.47-.416A23.962,23.962,0,0,1,65.26,154.52l3.871,3.873H63.655A23.961,23.961,0,0,1,46.6,151.329Zm69.375-2.381a27.079,27.079,0,0,0-4.367,3.538l-5.907,5.907H97.869v-7.834l5.907-5.907a26.98,26.98,0,0,0,3.538-4.369v8.665Zm-18.108,23.4v-2.055l1.451-1.451,3.506,3.506Zm17.378-11.08a27.011,27.011,0,0,0,5.591-.586l-6.126,6.126,6.126,6.126a27.021,27.021,0,0,0-5.591-.586h-8.353l-5.54-5.54,5.54-5.54Zm14.424-1.653.018-.018h.06a9.991,9.991,0,0,1,6.709,2.493,17.28,17.28,0,0,1,3.706,4.709,17.181,17.181,0,0,1-3.717,4.716A9.947,9.947,0,0,1,129.4,174l-.25-.062a9.226,9.226,0,0,1-5.923-2.68l-4.447-4.445,4.447-4.447a9.2,9.2,0,0,1,6.22-2.693Zm-19.9-1.224,3.873-3.873a23.959,23.959,0,0,1,17.055-7.063,24.373,24.373,0,0,1,4.47.416,24.245,24.245,0,0,1-2.867,3.456,23.968,23.968,0,0,1-17.055,7.063Zm-11.9,4.93V161.27h4.957l-3.506,3.506ZM81.618,166.81l7.834-7.834,7.834,7.834-7.834,7.834Zm4.348-8.417H83.912v-4.957l3.506,3.5Zm9.026-4.957v4.957H92.937l-1.451-1.453ZM83.326,135.424l6.126,6.126,6.126-6.126a26.981,26.981,0,0,0-.586,5.591v8.351l-5.54,5.54-5.54-5.54v-8.351A27.117,27.117,0,0,0,83.326,135.424Zm9.611,39.8h2.055v4.957l-3.506-3.506Zm-9.025,4.957v-4.957h2.053l1.453,1.451Zm11.666,18.01-6.126-6.124L83.326,198.2a27.114,27.114,0,0,0,.586-5.589v-8.355l5.54-5.54,5.54,5.54v8.355A26.948,26.948,0,0,0,95.578,198.194Zm2.291-22.967H105.7l5.907,5.907a26.922,26.922,0,0,0,4.369,3.538h-8.665v8.663a26.97,26.97,0,0,0-3.538-4.367l-5.907-5.907ZM132.3,182.29a24.146,24.146,0,0,1,2.867,3.456,24.376,24.376,0,0,1-4.47.416,23.959,23.959,0,0,1-17.055-7.063l-3.873-3.873h5.476A23.968,23.968,0,0,1,132.3,182.29Zm9.406-18.469c-3.028-4.555-6.888-6.931-11.5-7.081a27.2,27.2,0,0,0,7.908-8.123,24.158,24.158,0,0,1,9.634,5.9l1.474,1.474A20.746,20.746,0,0,0,141.707,163.821Zm-15.695-26.914a10.02,10.02,0,0,1-3.256,6.741l-.037-.007-.159.138a9.224,9.224,0,0,1-6.082,2.292H110.19v-6.287a9.217,9.217,0,0,1,2.491-6.3l.122-.2v-.023a10,10,0,0,1,6.551-3.026,17.251,17.251,0,0,1,5.949.709A17.29,17.29,0,0,1,126.013,136.907Zm-14.862-6.039A27.168,27.168,0,0,0,111,119.531a24.159,24.159,0,0,1,10.986-2.636h2.085a20.733,20.733,0,0,0,.216,10.851C118.933,126.667,114.518,127.714,111.151,130.867Zm-9.411,11.751-3.871,3.871v-5.474a23.962,23.962,0,0,1,7.063-17.055,24.427,24.427,0,0,1,3.455-2.866,24.378,24.378,0,0,1,.418,4.47A23.963,23.963,0,0,1,101.74,142.618ZM99.5,126.077c-.142-4.62-2.517-8.49-7.083-11.524a20.723,20.723,0,0,0,7.834-7.529l1.485,1.485a24.149,24.149,0,0,1,5.9,9.632A27.25,27.25,0,0,0,99.5,126.077Zm-2.927,1.036a9.217,9.217,0,0,1-2.68,5.922l-4.445,4.445-4.447-4.445a9.218,9.218,0,0,1-2.695-6.22l-.051-.225-.018-.018a10,10,0,0,1,2.493-6.769,17.26,17.26,0,0,1,4.709-3.706,17.263,17.263,0,0,1,4.716,3.715,10.019,10.019,0,0,1,2.478,7.062Zm-17.2-1.061a27.165,27.165,0,0,0-8.121-7.912,24.156,24.156,0,0,1,5.9-9.632l1.474-1.474a20.754,20.754,0,0,0,7.827,7.519C81.908,117.582,79.533,121.441,79.38,126.052Zm1.655,20.437-3.873-3.871A23.962,23.962,0,0,1,70.1,125.563a24.375,24.375,0,0,1,.416-4.47,24.229,24.229,0,0,1,3.455,2.866,23.956,23.956,0,0,1,7.065,17.055ZM58.5,127.349a19.752,19.752,0,0,0-3.9.411,20.75,20.75,0,0,0,.214-10.865h2.1A24.164,24.164,0,0,1,67.9,119.531a27.2,27.2,0,0,0-.143,11.368A13.033,13.033,0,0,0,58.5,127.349Zm1.047,2.9A10.01,10.01,0,0,1,66.29,133.5l-.005.043.136.156a9.22,9.22,0,0,1,2.292,6.082v6.287H62.426a9.207,9.207,0,0,1-6.3-2.493l-.2-.122H55.9a10,10,0,0,1-3.024-6.55,17.294,17.294,0,0,1,.709-5.949A17.261,17.261,0,0,1,59.549,130.249ZM40.782,148.617a27.2,27.2,0,0,0,7.937,8.139c-4.62.143-8.49,2.519-11.523,7.083a20.762,20.762,0,0,0-7.531-7.832l1.485-1.486A24.173,24.173,0,0,1,40.782,148.617ZM37.2,169.8c3.028,4.553,6.888,6.931,11.5,7.081A27.192,27.192,0,0,0,40.782,185a24.172,24.172,0,0,1-9.632-5.9l-1.474-1.474A20.759,20.759,0,0,0,37.2,169.8Zm15.695,26.914a10.026,10.026,0,0,1,3.254-6.743l.043.007.156-.136a9.223,9.223,0,0,1,6.082-2.292h6.287v6.287a9.21,9.21,0,0,1-2.493,6.3l-.122.195v.025a10.008,10.008,0,0,1-6.55,3.026,17.465,17.465,0,0,1-5.949-.71A17.209,17.209,0,0,1,52.891,196.713Zm14.862,6.038a27.176,27.176,0,0,0,.149,11.338,24.152,24.152,0,0,1-10.986,2.634H54.833a20.77,20.77,0,0,0-.218-10.851C59.977,206.951,64.385,205.9,67.753,202.751ZM77.162,191l3.873-3.873v5.478A23.958,23.958,0,0,1,73.97,209.66a24.228,24.228,0,0,1-3.455,2.866,24.374,24.374,0,0,1-.416-4.47A23.962,23.962,0,0,1,77.162,191Zm2.236,16.54c.143,4.622,2.519,8.49,7.083,11.524a20.736,20.736,0,0,0-7.832,7.531l-1.486-1.486a24.15,24.15,0,0,1-5.9-9.63A27.209,27.209,0,0,0,79.4,207.541Zm2.928-1.035a9.224,9.224,0,0,1,2.679-5.923l4.447-4.447,4.445,4.447a9.2,9.2,0,0,1,2.695,6.22l.053.218.018.019a10,10,0,0,1-2.494,6.775,17.229,17.229,0,0,1-4.707,3.706,17.274,17.274,0,0,1-4.718-3.715,10.033,10.033,0,0,1-2.478-7.06Zm17.2,1.061a27.254,27.254,0,0,0,8.123,7.912,24.143,24.143,0,0,1-5.9,9.63l-1.474,1.474a20.749,20.749,0,0,0-7.825-7.519C97,216.038,99.371,212.177,99.522,207.568Zm-1.653-20.439L101.74,191a23.963,23.963,0,0,1,7.065,17.055,24.378,24.378,0,0,1-.418,4.47,24.425,24.425,0,0,1-3.455-2.866,23.967,23.967,0,0,1-7.063-17.054ZM124.3,205.86a20.761,20.761,0,0,0-.216,10.864h-2.1A24.157,24.157,0,0,1,111,214.089a27.2,27.2,0,0,0,.143-11.368C114.515,205.888,118.928,206.942,124.3,205.86Zm-4.946-2.489a10.03,10.03,0,0,1-6.752-3.263l0-.044-.126-.145a9.227,9.227,0,0,1-2.292-6.082v-6.287h6.287a9.206,9.206,0,0,1,6.3,2.491l.2.124H123a10,10,0,0,1,3.024,6.548,17.218,17.218,0,0,1-.707,5.951A17.322,17.322,0,0,1,119.357,203.371ZM138.12,185a27.156,27.156,0,0,0-7.935-8.139c4.62-.143,8.49-2.519,11.523-7.085a20.754,20.754,0,0,0,7.531,7.834l-1.485,1.486A24.178,24.178,0,0,1,138.12,185Z" transform="translate(-24.733 -102.091)" fill="url(#a)"/><g transform="translate(147.912 22.871)"><path d="M136.874,147.313h1.245l-.751,10.95H108.223v-1.194h.728q2.62,0,3.386-.7a3.148,3.148,0,0,0,.973-1.777,40.762,40.762,0,0,0,.209-5.49V131.845a39.087,39.087,0,0,0-.221-5.294,2.483,2.483,0,0,0-1.012-1.779,7.124,7.124,0,0,0-3.334-.5v-1.194H134.1l.831,8.771h-1.221a13.705,13.705,0,0,0-2.037-5.228,5.165,5.165,0,0,0-2.866-1.949,25.366,25.366,0,0,0-5.347-.4h-4.879v14.766h3.738a10.114,10.114,0,0,0,3.593-.441,2.311,2.311,0,0,0,1.35-1.336,12.165,12.165,0,0,0,.324-3.492H128.8v12.042h-1.221a10.285,10.285,0,0,0-.493-3.931,2.381,2.381,0,0,0-1.44-1.3,11.965,11.965,0,0,0-3.2-.3h-3.867v8.33q0,6.256.8,7.356t4.335,1.1h2.62a12.448,12.448,0,0,0,4.567-.712,8.152,8.152,0,0,0,3.412-2.934A17.094,17.094,0,0,0,136.874,147.313Z" transform="translate(-108.223 -123.074)" fill="#fff"/><path d="M180.427,147.91l-.259,10.353h-29.9v-1.194h1.038a6.1,6.1,0,0,0,3.129-.57,2.653,2.653,0,0,0,1.114-1.779,37.825,37.825,0,0,0,.246-5.618V131.845a35.968,35.968,0,0,0-.246-5.423,2.38,2.38,0,0,0-1.038-1.688,8.11,8.11,0,0,0-3.464-.466h-.78v-1.194h16.9v1.194H165.61a8.539,8.539,0,0,0-3.4.429,2.246,2.246,0,0,0-1.075,1.594,32.684,32.684,0,0,0-.275,5.554v18.427a31.511,31.511,0,0,0,.207,4.775,2.225,2.225,0,0,0,1.129,1.492,9.325,9.325,0,0,0,3.96.531h2.672a15.071,15.071,0,0,0,4.815-.57,6.737,6.737,0,0,0,2.983-2.491,19.542,19.542,0,0,0,2.583-6.1Z" transform="translate(-75.778 -123.074)" fill="#fff"/><path d="M221.947,147.91l-.26,10.353h-29.9v-1.194h1.038a6.1,6.1,0,0,0,3.129-.57,2.653,2.653,0,0,0,1.114-1.779,37.557,37.557,0,0,0,.246-5.618V131.845a35.71,35.71,0,0,0-.246-5.423,2.38,2.38,0,0,0-1.038-1.688,8.11,8.11,0,0,0-3.464-.466h-.78v-1.194h16.894v1.194h-1.557a8.528,8.528,0,0,0-3.4.429,2.253,2.253,0,0,0-1.077,1.594,32.956,32.956,0,0,0-.273,5.554v18.427a31.505,31.505,0,0,0,.207,4.775,2.215,2.215,0,0,0,1.129,1.492,9.315,9.315,0,0,0,3.958.531h2.673a15.072,15.072,0,0,0,4.815-.57,6.734,6.734,0,0,0,2.982-2.491,19.5,19.5,0,0,0,2.583-6.1Z" transform="translate(-43.741 -123.074)" fill="#fff"/><path d="M262.065,147.313h1.245l-.751,10.95H233.414v-1.194h.726q2.623,0,3.387-.7a3.148,3.148,0,0,0,.973-1.777,40.758,40.758,0,0,0,.209-5.49V131.845a39.514,39.514,0,0,0-.22-5.294,2.491,2.491,0,0,0-1.015-1.779,7.119,7.119,0,0,0-3.334-.5v-1.194h25.148l.831,8.771H258.9a13.738,13.738,0,0,0-2.036-5.228,5.175,5.175,0,0,0-2.868-1.949,25.367,25.367,0,0,0-5.347-.4h-4.879v14.766h3.736a10.143,10.143,0,0,0,3.6-.441,2.323,2.323,0,0,0,1.348-1.336,12.162,12.162,0,0,0,.324-3.492h1.221v12.042h-1.221a10.286,10.286,0,0,0-.492-3.931,2.381,2.381,0,0,0-1.44-1.3,11.965,11.965,0,0,0-3.2-.3h-3.867v8.33q0,6.256.8,7.356t4.333,1.1h2.622a12.448,12.448,0,0,0,4.567-.712,8.175,8.175,0,0,0,3.414-2.934A17.156,17.156,0,0,0,262.065,147.313Z" transform="translate(-11.624 -123.074)" fill="#fff"/></g><g transform="translate(147.974 71.293)"><path d="M114.944,159.112c-.117-.338-.237-.675-.361-1.006s-.244-.668-.36-1.013h-3.63c-.117.345-.236.684-.356,1.02s-.237.668-.353,1h-1.626q.484-1.374.918-2.542c.289-.78.572-1.513.849-2.207s.551-1.357.824-1.984.555-1.249.843-1.86h1.492q.433.917.843,1.86t.824,1.984c.278.694.563,1.428.856,2.207s.6,1.626.925,2.542Zm-2.537-6.934q-.284.659-.652,1.6t-.762,2.046h2.827q-.4-1.105-.769-2.059T112.407,152.178Z" transform="translate(-108.258 -150.32)" fill="#fff"/><path d="M113.858,159.112v-8.594h5.519v1.329h-3.956v2.117h3.524v1.3h-3.524v2.516h4.254v1.329Z" transform="translate(-103.937 -150.32)" fill="#fff"/><path d="M120.6,158.033a2.091,2.091,0,0,0,1.23-.287.946.946,0,0,0,.383-.806,1.048,1.048,0,0,0-.129-.533,1.388,1.388,0,0,0-.372-.4,3.14,3.14,0,0,0-.59-.335c-.23-.1-.494-.2-.792-.3s-.586-.225-.863-.353a2.838,2.838,0,0,1-.732-.478,2.07,2.07,0,0,1-.7-1.635,2.245,2.245,0,0,1,.806-1.832,3.364,3.364,0,0,1,2.193-.661,5.112,5.112,0,0,1,1.433.181,4.171,4.171,0,0,1,.987.392l-.484,1.261a3.862,3.862,0,0,0-.925-.36,4.277,4.277,0,0,0-1.036-.124,1.623,1.623,0,0,0-.985.262.855.855,0,0,0-.354.732.964.964,0,0,0,.119.491,1.216,1.216,0,0,0,.335.363,3.051,3.051,0,0,0,.508.3,6.772,6.772,0,0,0,.638.262c.406.149.767.3,1.086.45a3.141,3.141,0,0,1,.806.547,2.132,2.132,0,0,1,.5.744,2.731,2.731,0,0,1,.174,1.035,2.151,2.151,0,0,1-.824,1.805,3.876,3.876,0,0,1-2.413.641,6.544,6.544,0,0,1-.973-.069,5.839,5.839,0,0,1-.781-.17,4.762,4.762,0,0,1-.588-.2,4.136,4.136,0,0,1-.4-.191l.461-1.277a5.469,5.469,0,0,0,.9.37A4.419,4.419,0,0,0,120.6,158.033Z" transform="translate(-100.853 -150.406)" fill="#fff"/><path d="M128.64,150.518v1.352H126v7.242h-1.577V151.87h-2.641v-1.352Z" transform="translate(-97.823 -150.32)" fill="#fff"/><path d="M131.886,150.518h1.563v8.594h-1.563V155.3h-3.733v3.809h-1.563v-8.594h1.563v3.435h3.733Z" transform="translate(-94.112 -150.32)" fill="#fff"/><path d="M131.891,159.112v-8.594h5.517v1.329h-3.956v2.117h3.524v1.3h-3.524v2.516h4.254v1.329Z" transform="translate(-90.022 -150.32)" fill="#fff"/><path d="M142.626,150.518v1.352h-2.641v7.242h-1.575V151.87h-2.641v-1.352Z" transform="translate(-87.031 -150.32)" fill="#fff"/><path d="M140.578,150.518h1.561v8.594h-1.561Z" transform="translate(-83.319 -150.32)" fill="#fff"/><path d="M146.847,159.386a4.762,4.762,0,0,1-1.738-.3,3.45,3.45,0,0,1-1.3-.872,3.937,3.937,0,0,1-.818-1.408,5.9,5.9,0,0,1-.285-1.912,5.155,5.155,0,0,1,.33-1.91,4.148,4.148,0,0,1,.9-1.408,3.811,3.811,0,0,1,1.339-.872,4.494,4.494,0,0,1,1.651-.3,5.23,5.23,0,0,1,.966.08,7.318,7.318,0,0,1,.758.181,2.961,2.961,0,0,1,.531.211c.138.073.239.128.3.159l-.459,1.279a3.809,3.809,0,0,0-.849-.356,4.189,4.189,0,0,0-1.2-.167,2.8,2.8,0,0,0-1.042.195,2.267,2.267,0,0,0-.836.574,2.745,2.745,0,0,0-.555.969,4.225,4.225,0,0,0-.2,1.354,4.737,4.737,0,0,0,.156,1.253,2.772,2.772,0,0,0,.477.981,2.142,2.142,0,0,0,.817.648,2.878,2.878,0,0,0,1.194.227,4.569,4.569,0,0,0,1.35-.165,5.5,5.5,0,0,0,.806-.319l.422,1.277a2.046,2.046,0,0,1-.4.2,6.022,6.022,0,0,1-.6.19,5.217,5.217,0,0,1-.783.149A6.977,6.977,0,0,1,146.847,159.386Z" transform="translate(-81.678 -150.406)" fill="#fff"/><path d="M155.654,159.112c-.115-.338-.236-.675-.36-1.006s-.244-.668-.36-1.013H151.3c-.115.345-.234.684-.353,1.02s-.239.668-.354,1h-1.625q.481-1.374.916-2.542c.289-.78.572-1.513.849-2.207s.551-1.357.824-1.984.553-1.249.841-1.86h1.493q.433.917.843,1.86t.824,1.984c.278.694.563,1.428.856,2.207s.6,1.626.923,2.542Zm-2.535-6.934q-.284.659-.652,1.6t-.762,2.046h2.827q-.4-1.105-.769-2.059T153.118,152.178Z" transform="translate(-76.843 -150.32)" fill="#fff"/><path d="M156.939,150.469a5,5,0,0,1,2.847.682,2.572,2.572,0,0,1-.737,4.452q.234.287.531.693c.2.273.4.57.608.889s.406.643.6.98.36.664.508.985h-1.749c-.158-.3-.328-.6-.508-.9s-.365-.6-.553-.882-.368-.553-.551-.806-.351-.473-.507-.675c-.117.011-.216.014-.3.014h-.994v3.249H154.57v-8.47a8.734,8.734,0,0,1,1.215-.17Q156.431,150.47,156.939,150.469Zm.113,1.352c-.333,0-.638.011-.919.035v2.778h.682a7,7,0,0,0,1-.062,2.08,2.08,0,0,0,.725-.221,1.058,1.058,0,0,0,.441-.436,1.424,1.424,0,0,0,.149-.693,1.381,1.381,0,0,0-.149-.67,1.11,1.11,0,0,0-.429-.434,2,2,0,0,0-.663-.23A4.763,4.763,0,0,0,157.052,151.821Z" transform="translate(-72.523 -150.357)" fill="#fff"/><path d="M165.684,150.518v1.352h-2.641v7.242h-1.575V151.87h-2.641v-1.352Z" transform="translate(-69.239 -150.32)" fill="#fff"/><path d="M166,158.033a2.088,2.088,0,0,0,1.228-.287.947.947,0,0,0,.384-.806,1.048,1.048,0,0,0-.131-.533,1.364,1.364,0,0,0-.372-.4,3.084,3.084,0,0,0-.59-.335c-.23-.1-.494-.2-.794-.3s-.585-.225-.861-.353a2.869,2.869,0,0,1-.732-.478,2.217,2.217,0,0,1-.508-.68,2.155,2.155,0,0,1-.193-.955,2.255,2.255,0,0,1,.806-1.832,3.374,3.374,0,0,1,2.2-.661,5.1,5.1,0,0,1,1.431.181,4.139,4.139,0,0,1,.987.392l-.485,1.261a3.819,3.819,0,0,0-.923-.36,4.273,4.273,0,0,0-1.035-.124,1.625,1.625,0,0,0-.987.262.858.858,0,0,0-.353.732.964.964,0,0,0,.119.491,1.208,1.208,0,0,0,.333.363,3.053,3.053,0,0,0,.508.3,6.584,6.584,0,0,0,.638.262c.406.149.767.3,1.086.45a3.141,3.141,0,0,1,.806.547,2.138,2.138,0,0,1,.5.744,2.767,2.767,0,0,1,.174,1.035,2.152,2.152,0,0,1-.826,1.805,3.877,3.877,0,0,1-2.411.641,6.551,6.551,0,0,1-.974-.069,5.836,5.836,0,0,1-.781-.17,4.8,4.8,0,0,1-.59-.2,4.018,4.018,0,0,1-.4-.191l.457-1.277a5.46,5.46,0,0,0,.907.37A4.4,4.4,0,0,0,166,158.033Z" transform="translate(-65.815 -150.406)" fill="#fff"/><path d="M175.716,159.112c-.117-.338-.236-.675-.36-1.006s-.244-.668-.361-1.013h-3.63c-.117.345-.234.684-.354,1.02s-.237.668-.354,1h-1.625q.484-1.374.918-2.542c.289-.78.57-1.513.847-2.207s.553-1.357.824-1.984.555-1.249.843-1.86h1.493q.433.917.842,1.86t.826,1.984c.276.694.562,1.428.854,2.207s.6,1.626.925,2.542Zm-2.535-6.934q-.284.659-.652,1.6t-.764,2.046h2.829c-.266-.737-.521-1.423-.771-2.059S173.364,152.6,173.181,152.178Z" transform="translate(-61.364 -150.32)" fill="#fff"/><path d="M180.422,159.112c-.28-.469-.6-.98-.941-1.518s-.707-1.088-1.079-1.637-.751-1.082-1.136-1.6-.751-.98-1.1-1.4v6.153h-1.538v-8.594h1.277q.494.518,1.066,1.235c.379.473.764.969,1.148,1.481s.755,1.028,1.114,1.543.68,1,.96,1.446v-5.7h1.55v8.594Z" transform="translate(-57.043 -150.32)" fill="#fff"/><path d="M187.37,154.845a4.969,4.969,0,0,1-.347,1.942,3.667,3.667,0,0,1-.987,1.378,4.063,4.063,0,0,1-1.538.815,6.877,6.877,0,0,1-1.99.268q-.521,0-1.178-.043a8.166,8.166,0,0,1-1.253-.179V150.68a7.588,7.588,0,0,1,1.265-.174c.446-.023.845-.037,1.191-.037a7.236,7.236,0,0,1,1.972.252,4.042,4.042,0,0,1,1.531.8,3.555,3.555,0,0,1,.987,1.362A5.039,5.039,0,0,1,187.37,154.845Zm-5.729,3.015c.092.007.211.012.36.016s.351.007.608.007a3.136,3.136,0,0,0,2.351-.8,3.66,3.66,0,0,0,.018-4.484,3.136,3.136,0,0,0-2.342-.779,9.251,9.251,0,0,0-.994.035Z" transform="translate(-52.841 -150.357)" fill="#fff"/><path d="M189.753,150.469a5.077,5.077,0,0,1,2.87.682,2.4,2.4,0,0,1,1,2.135,2.9,2.9,0,0,1-.266,1.293,2.269,2.269,0,0,1-.776.882,3.619,3.619,0,0,1-1.24.5,7.792,7.792,0,0,1-1.672.159h-.783v3.028h-1.563v-8.47a8.026,8.026,0,0,1,1.21-.17Q189.194,150.47,189.753,150.469Zm.112,1.352c-.4,0-.723.011-.98.035v2.927h.757a3.837,3.837,0,0,0,1.736-.314,1.223,1.223,0,0,0,.608-1.2,1.419,1.419,0,0,0-.161-.707,1.151,1.151,0,0,0-.446-.446,2.084,2.084,0,0,0-.677-.23A4.786,4.786,0,0,0,189.864,151.821Z" transform="translate(-47.251 -150.357)" fill="#fff"/><path d="M197.383,157.759v1.354h-5.434v-8.594h1.563v7.241Z" transform="translate(-43.681 -150.32)" fill="#fff"/><path d="M202.266,159.112c-.115-.338-.234-.675-.36-1.006s-.243-.668-.36-1.013h-3.632c-.115.345-.232.684-.353,1.02s-.239.668-.354,1h-1.625q.484-1.374.918-2.542c.289-.78.57-1.513.847-2.207s.553-1.357.824-1.984.553-1.249.843-1.86h1.492q.433.917.843,1.86t.826,1.984c.276.694.562,1.428.854,2.207s.6,1.626.925,2.542Zm-2.533-6.934q-.287.659-.652,1.6t-.764,2.046h2.829c-.266-.737-.521-1.423-.771-2.059S199.913,152.6,199.732,152.178Z" transform="translate(-40.877 -150.32)" fill="#fff"/><path d="M203.65,158.033a2.085,2.085,0,0,0,1.228-.287.943.943,0,0,0,.384-.806,1.048,1.048,0,0,0-.129-.533,1.389,1.389,0,0,0-.372-.4,3.138,3.138,0,0,0-.59-.335c-.232-.1-.494-.2-.794-.3s-.585-.225-.863-.353a2.869,2.869,0,0,1-.732-.478,2.216,2.216,0,0,1-.508-.68,2.18,2.18,0,0,1-.191-.955,2.25,2.25,0,0,1,.806-1.832,3.372,3.372,0,0,1,2.2-.661,5.111,5.111,0,0,1,1.433.181,4.123,4.123,0,0,1,.985.392l-.484,1.261a3.805,3.805,0,0,0-.925-.36,4.253,4.253,0,0,0-1.035-.124,1.62,1.62,0,0,0-.985.262.854.854,0,0,0-.353.732.963.963,0,0,0,.117.491,1.217,1.217,0,0,0,.335.363,2.984,2.984,0,0,0,.508.3,6.4,6.4,0,0,0,.638.262c.4.149.767.3,1.084.45a3.111,3.111,0,0,1,.806.547,2.167,2.167,0,0,1,.5.744,2.767,2.767,0,0,1,.172,1.035,2.147,2.147,0,0,1-.826,1.805,3.87,3.87,0,0,1-2.411.641,6.569,6.569,0,0,1-.974-.069,5.807,5.807,0,0,1-.779-.17,4.8,4.8,0,0,1-.59-.2,4.081,4.081,0,0,1-.4-.191l.459-1.277a5.46,5.46,0,0,0,.907.37A4.391,4.391,0,0,0,203.65,158.033Z" transform="translate(-36.767 -150.406)" fill="#fff"/><path d="M211.694,150.518v1.352h-2.641v7.242h-1.575V151.87h-2.641v-1.352Z" transform="translate(-33.737 -150.32)" fill="#fff"/><path d="M209.646,150.518h1.561v8.594h-1.561Z" transform="translate(-30.026 -150.32)" fill="#fff"/><path d="M215.915,159.386a4.738,4.738,0,0,1-1.736-.3,3.457,3.457,0,0,1-1.3-.872,3.911,3.911,0,0,1-.818-1.408,5.847,5.847,0,0,1-.285-1.912,5.154,5.154,0,0,1,.33-1.91,4.122,4.122,0,0,1,.9-1.408,3.81,3.81,0,0,1,1.339-.872,4.492,4.492,0,0,1,1.649-.3,5.223,5.223,0,0,1,.967.08,7.273,7.273,0,0,1,.757.181,2.932,2.932,0,0,1,.533.211c.14.073.239.128.3.159l-.459,1.279a3.791,3.791,0,0,0-.85-.356,4.159,4.159,0,0,0-1.2-.167,2.809,2.809,0,0,0-1.042.195,2.273,2.273,0,0,0-.838.574,2.713,2.713,0,0,0-.551.969,4.174,4.174,0,0,0-.2,1.354,4.892,4.892,0,0,0,.154,1.253,2.8,2.8,0,0,0,.478.981,2.135,2.135,0,0,0,.819.648,2.855,2.855,0,0,0,1.191.227,4.582,4.582,0,0,0,1.352-.165,5.5,5.5,0,0,0,.806-.319l.422,1.277a1.97,1.97,0,0,1-.4.2,6.022,6.022,0,0,1-.6.19,5.191,5.191,0,0,1-.781.149A6.958,6.958,0,0,1,215.915,159.386Z" transform="translate(-28.384 -150.406)" fill="#fff"/><path d="M220.954,158.033a2.085,2.085,0,0,0,1.228-.287.943.943,0,0,0,.384-.806,1.048,1.048,0,0,0-.129-.533,1.388,1.388,0,0,0-.372-.4,3.14,3.14,0,0,0-.59-.335c-.232-.1-.5-.2-.8-.3s-.585-.225-.861-.353a2.869,2.869,0,0,1-.732-.478,2.216,2.216,0,0,1-.508-.68,2.18,2.18,0,0,1-.191-.955,2.25,2.25,0,0,1,.806-1.832,3.366,3.366,0,0,1,2.2-.661,5.09,5.09,0,0,1,1.431.181,4.14,4.14,0,0,1,.987.392l-.484,1.261a3.833,3.833,0,0,0-.925-.36,4.263,4.263,0,0,0-1.035-.124,1.616,1.616,0,0,0-.985.262.856.856,0,0,0-.354.732.963.963,0,0,0,.119.491,1.232,1.232,0,0,0,.333.363,3.053,3.053,0,0,0,.508.3,6.617,6.617,0,0,0,.64.262c.4.149.765.3,1.084.45a3.112,3.112,0,0,1,.806.547,2.138,2.138,0,0,1,.5.744,2.732,2.732,0,0,1,.174,1.035,2.147,2.147,0,0,1-.826,1.805,3.874,3.874,0,0,1-2.411.641,6.568,6.568,0,0,1-.974-.069,5.749,5.749,0,0,1-.78-.17,4.7,4.7,0,0,1-.59-.2,4.073,4.073,0,0,1-.4-.191l.459-1.277a5.5,5.5,0,0,0,.905.37A4.4,4.4,0,0,0,220.954,158.033Z" transform="translate(-23.415 -150.406)" fill="#fff"/><path d="M225.968,159.3a4.034,4.034,0,0,1-1.513-.257,2.774,2.774,0,0,1-1.662-1.793,4.425,4.425,0,0,1-.2-1.362v-5.37h1.573v5.221a3.337,3.337,0,0,0,.133,1,1.71,1.71,0,0,0,.372.679,1.48,1.48,0,0,0,.569.384,2.072,2.072,0,0,0,.739.124,2.116,2.116,0,0,0,.744-.124,1.479,1.479,0,0,0,.576-.384,1.71,1.71,0,0,0,.372-.679,3.283,3.283,0,0,0,.131-1v-5.221h1.575v5.37a4.319,4.319,0,0,1-.2,1.362,2.986,2.986,0,0,1-.622,1.081,2.774,2.774,0,0,1-1.061.712A4.124,4.124,0,0,1,225.968,159.3Z" transform="translate(-20.034 -150.32)" fill="#fff"/><path d="M230.186,150.469a5,5,0,0,1,2.847.682,2.572,2.572,0,0,1-.737,4.452q.234.287.533.693c.2.273.4.57.606.889s.406.643.6.98.36.664.508.985H232.79c-.158-.3-.328-.6-.508-.9s-.365-.6-.553-.882-.369-.553-.551-.806-.351-.473-.507-.675c-.117.011-.216.014-.3.014h-.994v3.249h-1.563v-8.47a8.733,8.733,0,0,1,1.215-.17Q229.678,150.47,230.186,150.469Zm.113,1.352c-.333,0-.638.011-.919.035v2.778h.682a7,7,0,0,0,1-.062,2.1,2.1,0,0,0,.726-.221,1.077,1.077,0,0,0,.441-.436,1.444,1.444,0,0,0,.149-.693,1.4,1.4,0,0,0-.149-.67,1.125,1.125,0,0,0-.43-.434,2,2,0,0,0-.663-.23A4.762,4.762,0,0,0,230.3,151.821Z" transform="translate(-16.005 -150.357)" fill="#fff"/><path d="M236.669,151.784a2.517,2.517,0,0,0-2.029.822,3.424,3.424,0,0,0-.7,2.287,4.6,4.6,0,0,0,.167,1.27,2.768,2.768,0,0,0,.5.987,2.252,2.252,0,0,0,.817.64,2.7,2.7,0,0,0,1.148.229c.273,0,.508-.011.707-.03a2.878,2.878,0,0,0,.471-.08v-3.088h1.563v4.13a7.563,7.563,0,0,1-1.091.273,9.4,9.4,0,0,1-1.773.149,4.712,4.712,0,0,1-1.7-.3,3.525,3.525,0,0,1-1.309-.868,3.959,3.959,0,0,1-.836-1.4,5.655,5.655,0,0,1-.3-1.912,5.192,5.192,0,0,1,.328-1.91,4.152,4.152,0,0,1,.9-1.408,3.811,3.811,0,0,1,1.339-.872,4.46,4.46,0,0,1,1.637-.3,6.117,6.117,0,0,1,1.059.08,7.586,7.586,0,0,1,.8.181,3,3,0,0,1,.551.211c.145.073.246.128.3.159l-.471,1.279a3.784,3.784,0,0,0-.923-.379A4.237,4.237,0,0,0,236.669,151.784Z" transform="translate(-12.543 -150.406)" fill="#fff"/><path d="M237.547,159.112v-8.594h5.519v1.329H239.11v2.117h3.522v1.3H239.11v2.516h4.254v1.329Z" transform="translate(-8.497 -150.32)" fill="#fff"/><path d="M244.284,150.469a4.988,4.988,0,0,1,2.845.682,2.57,2.57,0,0,1-.737,4.452c.156.191.335.422.533.693s.4.57.608.889.4.643.6.98.36.664.508.985h-1.749c-.158-.3-.328-.6-.508-.9s-.365-.6-.553-.882-.369-.553-.551-.806-.353-.473-.508-.675c-.115.011-.216.014-.3.014h-.992v3.249h-1.563v-8.47a8.7,8.7,0,0,1,1.215-.17Q243.776,150.47,244.284,150.469Zm.112,1.352c-.331,0-.636.011-.918.035v2.778h.682a7.018,7.018,0,0,0,1-.062,2.08,2.08,0,0,0,.725-.221,1.057,1.057,0,0,0,.441-.436,1.424,1.424,0,0,0,.149-.693,1.381,1.381,0,0,0-.149-.67,1.11,1.11,0,0,0-.429-.434,2,2,0,0,0-.663-.23A4.8,4.8,0,0,0,244.4,151.821Z" transform="translate(-5.127 -150.357)" fill="#fff"/><path d="M249.864,154.323c.372-.62.735-1.245,1.091-1.881s.679-1.281.967-1.924h1.734c-.461.875-.944,1.747-1.444,2.608s-1.035,1.738-1.605,2.613v3.373h-1.563v-3.348q-.856-1.329-1.612-2.631t-1.451-2.615h1.835c.291.643.608,1.286.955,1.924S249.483,153.7,249.864,154.323Z" transform="translate(-1.988 -150.32)" fill="#fff"/></g></g><text transform="translate(644 138.941)" fill="#fff" font-size="10" font-family="ProximaNova-Semibold, Proxima Nova" font-weight="600" letter-spacing="0.251em"><tspan x="42.36" y="9">DR. LARRY LICKSTEIN, MD</tspan></text><line x2="123.882" transform="translate(707.287 133.94)" fill="none" stroke="#f0d6a4" stroke-width="1"/></g></svg>