<svg xmlns="http://www.w3.org/2000/svg" xmlns:xlink="http://www.w3.org/1999/xlink" width="442.505" height="143.32" viewBox="0 0 442.505 143.32"><defs><linearGradient id="a" x1="0.5" y1="-0.074" x2="0.5" y2="1.041" gradientUnits="objectBoundingBox"><stop offset="0" stop-color="#9f885e"/><stop offset="0.215" stop-color="#ceb587"/><stop offset="0.4" stop-color="#f1d7a5"/><stop offset="0.5" stop-color="#ffe4b1"/><stop offset="0.585" stop-color="#f8ddab"/><stop offset="0.708" stop-color="#e5cb9a"/><stop offset="0.852" stop-color="#c6ad7f"/><stop offset="1" stop-color="#9f885e"/></linearGradient></defs><g transform="translate(-24.733 -102.091)"><path d="M165.227,183.565a20.328,20.328,0,0,1-8.714-9.08c-.118-.257-.243-.5-.367-.743.124-.245.249-.488.367-.743a20.32,20.32,0,0,1,8.7-9.073,16.752,16.752,0,0,1,2.115-.918l.726-.263-4.855-4.853a29.541,29.541,0,0,0-11.356-7.109,29.566,29.566,0,0,0,3.005-13.057v-3.77l-.186-3.029-.653.3a16.581,16.581,0,0,1-2,.789,20.3,20.3,0,0,1-12.582-.261c-.267-.094-.524-.18-.785-.265-.084-.261-.169-.522-.265-.785a20.34,20.34,0,0,1-.265-12.568,17.179,17.179,0,0,1,.847-2.142l.328-.7h-6.864A29.553,29.553,0,0,0,119.36,118.3a29.552,29.552,0,0,0-7.107-11.358l-2.666-2.664-2.274-2.011-.247.673a17.312,17.312,0,0,1-.859,1.975,20.333,20.333,0,0,1-9.082,8.714c-.255.12-.5.243-.741.367-.243-.124-.488-.247-.743-.369a20.314,20.314,0,0,1-9.074-8.7,17.483,17.483,0,0,1-.916-2.113l-.263-.726-4.853,4.853A29.572,29.572,0,0,0,73.424,118.3,29.539,29.539,0,0,0,60.368,115.3l-3.768,0-3.031.184.3.651a16.978,16.978,0,0,1,.789,2,20.326,20.326,0,0,1-.261,12.582c-.1.265-.18.526-.265.785l-.014.006c-.255.082-.51.165-.771.259a20.311,20.311,0,0,1-12.568.265,16.67,16.67,0,0,1-2.142-.845l-.7-.328v6.864a29.526,29.526,0,0,0,3.005,13.057,29.572,29.572,0,0,0-11.358,7.109l-2.664,2.666-2.011,2.274.673.247a16.976,16.976,0,0,1,1.975.859,20.333,20.333,0,0,1,8.714,9.082c.12.253.243.5.367.742-.124.243-.247.486-.369.743a20.319,20.319,0,0,1-8.7,9.073,16.92,16.92,0,0,1-2.113.918l-.726.261,4.853,4.855a29.571,29.571,0,0,0,11.358,7.109,29.526,29.526,0,0,0-3.005,13.057l0,3.768.186,3.031.651-.3a16.73,16.73,0,0,1,2-.791,20.34,20.34,0,0,1,12.582.261c.265.1.526.182.787.267.082.259.167.52.263.785a20.325,20.325,0,0,1,.267,12.568,17.11,17.11,0,0,1-.847,2.142l-.33.7h6.866a29.564,29.564,0,0,0,13.057-3,29.572,29.572,0,0,0,7.109,11.358l2.666,2.664,2.274,2.011.247-.673a16.621,16.621,0,0,1,.859-1.975,20.322,20.322,0,0,1,9.082-8.714c.255-.12.5-.243.742-.367.243.124.488.247.743.369a20.32,20.32,0,0,1,9.073,8.7,16.693,16.693,0,0,1,.916,2.111l.263.728,4.855-4.853A29.567,29.567,0,0,0,119.36,229.2a29.579,29.579,0,0,0,13.059,3h3.77l3.029-.186-.3-.651a16.74,16.74,0,0,1-.787-2,20.312,20.312,0,0,1,.261-12.582c.1-.265.18-.524.265-.785.259-.084.518-.169.785-.265A20.3,20.3,0,0,1,152,215.467a17.318,17.318,0,0,1,2.144.843l.7.33v-6.864a29.566,29.566,0,0,0-3.005-13.057,29.564,29.564,0,0,0,11.356-7.109l2.666-2.666,2.011-2.274-.675-.247A16.909,16.909,0,0,1,165.227,183.565Zm-29.036,14.212a30.147,30.147,0,0,0,12.552-.165,26.742,26.742,0,0,1,2.917,12.164v2.307a22.957,22.957,0,0,0-12.015.241C140.842,206.387,139.68,201.5,136.191,197.777ZM53.155,212.338a22.991,22.991,0,0,0-6.467-.924,22.649,22.649,0,0,0-5.563.687v-2.325a26.75,26.75,0,0,1,2.919-12.164,30.085,30.085,0,0,0,12.588.157C53.124,201.5,51.956,206.391,53.155,212.338ZM56.6,149.725a30.114,30.114,0,0,0-12.552.165,26.756,26.756,0,0,1-2.919-12.164v-2.307a23,23,0,0,0,12.015-.241C51.945,141.114,53.106,146,56.6,149.725Zm83.038-14.563a22.939,22.939,0,0,0,12.027.237v2.327a26.748,26.748,0,0,1-2.917,12.164,30.1,30.1,0,0,0-12.588-.159C139.661,146,140.83,141.112,139.633,135.162ZM67.022,193.528a29.811,29.811,0,0,0,4.837-3.917l6.54-6.54h8.674v8.674l-6.54,6.54a29.829,29.829,0,0,0-3.917,4.837v-9.594Zm20.052-29.1H78.4l-6.54-6.54a29.878,29.878,0,0,0-4.835-3.917h9.592V144.38a29.808,29.808,0,0,0,3.917,4.837l6.54,6.54Zm0,13.178v2.275H81.585L85.465,176Zm-5.489-9.993h5.489v2.274L85.465,171.5ZM67.83,183.071h6.063l-4.286,4.288a26.532,26.532,0,0,1-18.885,7.821,26.992,26.992,0,0,1-4.949-.461,26.953,26.953,0,0,1,3.174-3.827A26.53,26.53,0,0,1,67.83,183.071Zm-15.962-1.355-.022.02h-.073a11.059,11.059,0,0,1-7.429-2.76,19.118,19.118,0,0,1-4.1-5.214,19.1,19.1,0,0,1,4.114-5.224,11.106,11.106,0,0,1,7.817-2.744l.267.069A10.213,10.213,0,0,1,59,168.827l4.922,4.924L59,178.673a10.2,10.2,0,0,1-6.887,2.984Zm15.962-1.83a29.92,29.92,0,0,0-6.191.649l6.785-6.783-6.785-6.783a29.92,29.92,0,0,0,6.191.649h9.249l6.134,6.134-6.134,6.134ZM48.947,156.61a26.736,26.736,0,0,1-3.174-3.827,26.988,26.988,0,0,1,4.949-.461,26.532,26.532,0,0,1,18.885,7.821l4.286,4.288H67.83A26.53,26.53,0,0,1,48.947,156.61Zm76.815-2.636a29.983,29.983,0,0,0-4.835,3.917l-6.54,6.54h-8.674v-8.674l6.54-6.54a29.874,29.874,0,0,0,3.917-4.837v9.594Zm-20.05,25.911V177.61L107.319,176l3.882,3.882Zm19.242-12.268a29.906,29.906,0,0,0,6.191-.649l-6.783,6.783,6.783,6.783a29.92,29.92,0,0,0-6.191-.649h-9.249l-6.134-6.134,6.134-6.134Zm15.972-1.83.02-.02h.067a11.063,11.063,0,0,1,7.429,2.76,19.132,19.132,0,0,1,4.1,5.214,19.023,19.023,0,0,1-4.115,5.222,11.014,11.014,0,0,1-7.805,2.746l-.277-.069a10.215,10.215,0,0,1-6.558-2.968l-4.924-4.922,4.924-4.924a10.192,10.192,0,0,1,6.887-2.982Zm-22.035-1.355,4.288-4.288a26.528,26.528,0,0,1,18.885-7.821,26.988,26.988,0,0,1,4.949.461,26.843,26.843,0,0,1-3.174,3.827,26.538,26.538,0,0,1-18.885,7.821Zm-13.178,5.459v-2.274H111.2l-3.882,3.882Zm-17.994,3.86,8.674-8.674,8.674,8.674-8.674,8.674Zm4.814-9.32H90.259v-5.489l3.882,3.88Zm9.994-5.489v5.489h-2.275l-1.607-1.609ZM89.61,139l6.783,6.783L103.176,139a29.876,29.876,0,0,0-.649,6.191v9.247l-6.134,6.134-6.134-6.134V145.19A30.025,30.025,0,0,0,89.61,139Zm10.642,44.072h2.275v5.489l-3.882-3.882Zm-9.993,5.489v-5.489h2.274l1.609,1.607ZM103.176,208.5l-6.783-6.781L89.61,208.5a30.021,30.021,0,0,0,.649-6.189v-9.251l6.134-6.134,6.134,6.134v9.251A29.84,29.84,0,0,0,103.176,208.5Zm2.536-25.431h8.674l6.54,6.54a29.811,29.811,0,0,0,4.837,3.917H116.17v9.592a29.86,29.86,0,0,0-3.917-4.835l-6.54-6.54Zm38.126,7.821a26.734,26.734,0,0,1,3.174,3.827,26.992,26.992,0,0,1-4.949.461,26.528,26.528,0,0,1-18.885-7.821l-4.288-4.288h6.063A26.538,26.538,0,0,1,143.839,190.892Zm10.414-20.45c-3.352-5.043-7.627-7.674-12.729-7.841a30.118,30.118,0,0,0,8.757-8.994,26.75,26.75,0,0,1,10.667,6.536l1.632,1.632A22.971,22.971,0,0,0,154.253,170.442Zm-17.378-29.8a11.094,11.094,0,0,1-3.605,7.464l-.041-.008-.177.153a10.213,10.213,0,0,1-6.734,2.538h-6.962v-6.962a10.205,10.205,0,0,1,2.758-6.979l.135-.218V136.6a11.071,11.071,0,0,1,7.254-3.35,19.1,19.1,0,0,1,6.587.785A19.144,19.144,0,0,1,136.875,140.641Zm-16.456-6.687a30.082,30.082,0,0,0-.165-12.552,26.75,26.75,0,0,1,12.164-2.919h2.309a22.957,22.957,0,0,0,.239,12.015C129.037,129.3,124.148,130.462,120.419,133.954ZM110,146.965l-4.286,4.286V145.19a26.532,26.532,0,0,1,7.821-18.885,27.045,27.045,0,0,1,3.825-3.174,26.993,26.993,0,0,1,.463,4.949A26.534,26.534,0,0,1,110,146.965Zm-2.476-18.316c-.157-5.116-2.787-9.4-7.843-12.76a22.946,22.946,0,0,0,8.674-8.337L110,109.2a26.738,26.738,0,0,1,6.538,10.665A30.173,30.173,0,0,0,107.523,128.649Zm-3.241,1.148a10.206,10.206,0,0,1-2.968,6.558l-4.922,4.922-4.924-4.922a10.207,10.207,0,0,1-2.984-6.887l-.057-.249-.02-.02a11.074,11.074,0,0,1,2.76-7.5,19.11,19.11,0,0,1,5.214-4.1,19.114,19.114,0,0,1,5.222,4.114,11.093,11.093,0,0,1,2.744,7.819Zm-19.042-1.175a30.079,30.079,0,0,0-8.992-8.761A26.747,26.747,0,0,1,82.785,109.2l1.632-1.632a22.98,22.98,0,0,0,8.666,8.325C88.041,119.243,85.41,123.516,85.241,128.622Zm1.832,22.629-4.288-4.286a26.532,26.532,0,0,1-7.821-18.885,26.989,26.989,0,0,1,.461-4.949,26.826,26.826,0,0,1,3.825,3.174,26.525,26.525,0,0,1,7.823,18.885Zm-24.95-21.193a21.87,21.87,0,0,0-4.319.455,22.975,22.975,0,0,0,.237-12.031h2.326A26.756,26.756,0,0,1,72.532,121.4a30.118,30.118,0,0,0-.159,12.588A14.431,14.431,0,0,0,62.124,130.058Zm1.159,3.211a11.084,11.084,0,0,1,7.464,3.6l-.006.047.151.173a10.209,10.209,0,0,1,2.538,6.734v6.962H66.469a10.2,10.2,0,0,1-6.979-2.76l-.218-.135h-.027a11.073,11.073,0,0,1-3.348-7.252,19.149,19.149,0,0,1,.785-6.587A19.113,19.113,0,0,1,63.283,133.269ZM42.5,153.607a30.122,30.122,0,0,0,8.788,9.012c-5.116.159-9.4,2.789-12.758,7.843a22.989,22.989,0,0,0-8.339-8.672l1.644-1.646A26.765,26.765,0,0,1,42.5,153.607Zm-3.97,23.453c3.352,5.041,7.627,7.674,12.731,7.841A30.108,30.108,0,0,0,42.5,193.9a26.765,26.765,0,0,1-10.665-6.536l-1.632-1.632A22.985,22.985,0,0,0,38.533,177.06Zm17.378,29.8a11.1,11.1,0,0,1,3.6-7.466l.047.008.173-.151a10.213,10.213,0,0,1,6.734-2.538H73.43v6.962a10.2,10.2,0,0,1-2.76,6.979l-.135.216v.027a11.081,11.081,0,0,1-7.252,3.35,19.337,19.337,0,0,1-6.587-.787A19.054,19.054,0,0,1,55.911,206.861Zm16.456,6.685a30.09,30.09,0,0,0,.165,12.554,26.742,26.742,0,0,1-12.164,2.917H58.061A23,23,0,0,0,57.82,217C63.758,218.2,68.638,217.038,72.367,213.547Zm10.418-13.009,4.288-4.288v6.065A26.528,26.528,0,0,1,79.25,221.2a26.828,26.828,0,0,1-3.825,3.174,26.989,26.989,0,0,1-.461-4.949A26.532,26.532,0,0,1,82.785,200.537Zm2.476,18.314c.159,5.118,2.789,9.4,7.843,12.76a22.959,22.959,0,0,0-8.672,8.339L82.785,238.3a26.741,26.741,0,0,1-6.536-10.663A30.128,30.128,0,0,0,85.261,218.851Zm3.243-1.146a10.213,10.213,0,0,1,2.966-6.558l4.924-4.924,4.922,4.924a10.185,10.185,0,0,1,2.984,6.887l.059.241.02.022a11.072,11.072,0,0,1-2.762,7.5,19.076,19.076,0,0,1-5.212,4.1,19.126,19.126,0,0,1-5.224-4.114,11.109,11.109,0,0,1-2.744-7.817Zm19.04,1.175a30.178,30.178,0,0,0,8.994,8.761A26.732,26.732,0,0,1,110,238.3l-1.632,1.632a22.974,22.974,0,0,0-8.664-8.325C104.746,228.259,107.376,223.984,107.543,218.88Zm-1.83-22.631L110,200.537a26.534,26.534,0,0,1,7.823,18.885,26.993,26.993,0,0,1-.463,4.949,27.047,27.047,0,0,1-3.825-3.174,26.537,26.537,0,0,1-7.821-18.883Zm29.269,20.74a22.988,22.988,0,0,0-.239,12.029h-2.325a26.748,26.748,0,0,1-12.164-2.917,30.118,30.118,0,0,0,.159-12.588C124.144,217.021,129.031,218.188,134.982,216.989Zm-5.477-2.756a11.105,11.105,0,0,1-7.476-3.613l0-.049-.139-.161a10.217,10.217,0,0,1-2.538-6.734v-6.962h6.962a10.193,10.193,0,0,1,6.977,2.758l.22.137h.025a11.069,11.069,0,0,1,3.348,7.25,19.064,19.064,0,0,1-.783,6.589A19.18,19.18,0,0,1,129.505,214.233ZM150.281,193.9a30.069,30.069,0,0,0-8.786-9.012c5.116-.159,9.4-2.789,12.758-7.845a22.98,22.98,0,0,0,8.339,8.674l-1.644,1.646A26.772,26.772,0,0,1,150.281,193.9Z" transform="translate(0 0)" fill="url(#a)"/><g transform="translate(188.509 143.252)"><path d="M139.946,149.913h1.379l-.832,12.125H108.223v-1.322h.806q2.9,0,3.749-.775a3.485,3.485,0,0,0,1.077-1.967,45.134,45.134,0,0,0,.231-6.079V132.786a43.282,43.282,0,0,0-.245-5.861,2.749,2.749,0,0,0-1.12-1.969,7.889,7.889,0,0,0-3.692-.559v-1.322h27.843l.92,9.712h-1.352A15.175,15.175,0,0,0,134.185,127a5.719,5.719,0,0,0-3.174-2.158,28.087,28.087,0,0,0-5.92-.443h-5.4v16.35h4.139a11.2,11.2,0,0,0,3.978-.488,2.559,2.559,0,0,0,1.495-1.479,13.469,13.469,0,0,0,.359-3.866h1.352v13.333H129.66a11.388,11.388,0,0,0-.545-4.353,2.636,2.636,0,0,0-1.595-1.436,13.248,13.248,0,0,0-3.549-.332h-4.282v9.224q0,6.926.891,8.145t4.8,1.222h2.9a13.784,13.784,0,0,0,5.057-.789,9.026,9.026,0,0,0,3.778-3.248A18.927,18.927,0,0,0,139.946,149.913Z" transform="translate(-108.223 -123.074)" fill="#fff"/><path d="M183.662,150.574l-.286,11.464h-33.1v-1.322h1.149a6.754,6.754,0,0,0,3.464-.632,2.938,2.938,0,0,0,1.234-1.969,41.88,41.88,0,0,0,.273-6.22V132.786a39.825,39.825,0,0,0-.273-6,2.635,2.635,0,0,0-1.15-1.869,8.98,8.98,0,0,0-3.835-.516h-.863v-1.322h18.708V124.4h-1.724a9.454,9.454,0,0,0-3.764.475,2.487,2.487,0,0,0-1.191,1.765,36.187,36.187,0,0,0-.3,6.15v20.4a34.891,34.891,0,0,0,.23,5.287,2.464,2.464,0,0,0,1.25,1.652q1.021.591,4.384.588h2.958a16.688,16.688,0,0,0,5.332-.632,7.46,7.46,0,0,0,3.3-2.758,21.639,21.639,0,0,0,2.86-6.752Z" transform="translate(-67.789 -123.074)" fill="#fff"/><path d="M225.182,150.574l-.288,11.464h-33.1v-1.322h1.15a6.754,6.754,0,0,0,3.464-.632,2.938,2.938,0,0,0,1.234-1.969,41.59,41.59,0,0,0,.273-6.22V132.786a39.546,39.546,0,0,0-.273-6,2.635,2.635,0,0,0-1.149-1.869,8.98,8.98,0,0,0-3.835-.516h-.863v-1.322H210.5V124.4h-1.724a9.442,9.442,0,0,0-3.762.475,2.494,2.494,0,0,0-1.193,1.765,36.49,36.49,0,0,0-.3,6.15v20.4a34.891,34.891,0,0,0,.23,5.287,2.452,2.452,0,0,0,1.25,1.652q1.018.591,4.382.588h2.96a16.688,16.688,0,0,0,5.332-.632,7.456,7.456,0,0,0,3.3-2.758,21.592,21.592,0,0,0,2.86-6.752Z" transform="translate(-27.862 -123.074)" fill="#fff"/><path d="M265.137,149.913h1.379l-.832,12.125H233.414v-1.322h.8q2.9,0,3.751-.775a3.486,3.486,0,0,0,1.077-1.967,45.131,45.131,0,0,0,.231-6.079V132.786a43.749,43.749,0,0,0-.243-5.861,2.759,2.759,0,0,0-1.124-1.969,7.883,7.883,0,0,0-3.692-.559v-1.322h27.845l.92,9.712h-1.352A15.211,15.211,0,0,0,259.378,127a5.73,5.73,0,0,0-3.176-2.158,28.088,28.088,0,0,0-5.92-.443h-5.4v16.35h4.137a11.232,11.232,0,0,0,3.982-.488,2.572,2.572,0,0,0,1.493-1.479,13.468,13.468,0,0,0,.359-3.866H256.2v13.333h-1.352a11.389,11.389,0,0,0-.545-4.353,2.636,2.636,0,0,0-1.595-1.436,13.248,13.248,0,0,0-3.549-.332H244.88v9.224q0,6.926.891,8.145t4.8,1.222h2.9a13.784,13.784,0,0,0,5.057-.789,9.053,9.053,0,0,0,3.78-3.248A19,19,0,0,0,265.137,149.913Z" transform="translate(12.164 -123.074)" fill="#fff"/></g><g transform="translate(188.578 196.867)"><path d="M115.661,160.034c-.129-.375-.263-.747-.4-1.114s-.271-.74-.4-1.122h-4.019c-.129.383-.261.757-.394,1.13s-.263.74-.39,1.106h-1.8q.536-1.521,1.016-2.815c.32-.863.634-1.675.94-2.444s.61-1.5.912-2.2.614-1.383.934-2.06h1.652q.48,1.015.934,2.06t.912,2.2c.308.769.624,1.581.947,2.444s.667,1.8,1.024,2.815Zm-2.809-7.678q-.315.73-.722,1.773t-.843,2.266h3.131q-.438-1.224-.851-2.279T112.852,152.356Z" transform="translate(-108.258 -150.298)" fill="#fff"/><path d="M113.858,160.034v-9.516h6.11v1.471h-4.38v2.344h3.9v1.444h-3.9v2.786h4.71v1.471Z" transform="translate(-102.873 -150.298)" fill="#fff"/><path d="M120.89,158.851a2.315,2.315,0,0,0,1.361-.318,1.047,1.047,0,0,0,.424-.893,1.16,1.16,0,0,0-.143-.59,1.537,1.537,0,0,0-.412-.445,3.477,3.477,0,0,0-.653-.371c-.255-.116-.547-.226-.877-.337s-.649-.249-.955-.39a3.143,3.143,0,0,1-.81-.53,2.292,2.292,0,0,1-.775-1.811,2.485,2.485,0,0,1,.893-2.028,3.725,3.725,0,0,1,2.428-.732,5.661,5.661,0,0,1,1.587.2,4.619,4.619,0,0,1,1.093.434l-.536,1.4a4.276,4.276,0,0,0-1.024-.4,4.736,4.736,0,0,0-1.148-.137,1.8,1.8,0,0,0-1.091.29.947.947,0,0,0-.392.81,1.067,1.067,0,0,0,.131.543,1.346,1.346,0,0,0,.371.4,3.378,3.378,0,0,0,.563.33,7.514,7.514,0,0,0,.706.29c.449.165.849.33,1.2.5a3.478,3.478,0,0,1,.893.606,2.361,2.361,0,0,1,.555.824,3.023,3.023,0,0,1,.192,1.146,2.381,2.381,0,0,1-.912,2,4.291,4.291,0,0,1-2.672.71,7.243,7.243,0,0,1-1.077-.077,6.462,6.462,0,0,1-.865-.188,5.274,5.274,0,0,1-.651-.226,4.581,4.581,0,0,1-.441-.212l.51-1.414a6.059,6.059,0,0,0,1,.41A4.893,4.893,0,0,0,120.89,158.851Z" transform="translate(-99.029 -150.406)" fill="#fff"/><path d="M129.375,150.518v1.5h-2.923v8.019h-1.746v-8.019h-2.925v-1.5Z" transform="translate(-95.253 -150.298)" fill="#fff"/><path d="M132.454,150.518h1.73v9.516h-1.73v-4.218h-4.133v4.218h-1.73v-9.516h1.73v3.8h4.133Z" transform="translate(-90.629 -150.298)" fill="#fff"/><path d="M131.891,160.034v-9.516H138v1.471h-4.38v2.344h3.9v1.444h-3.9v2.786h4.71v1.471Z" transform="translate(-85.532 -150.298)" fill="#fff"/><path d="M143.361,150.518v1.5h-2.925v8.019h-1.744v-8.019h-2.925v-1.5Z" transform="translate(-81.804 -150.298)" fill="#fff"/><path d="M140.578,150.518h1.728v9.516h-1.728Z" transform="translate(-77.178 -150.298)" fill="#fff"/><path d="M147.291,160.35a5.272,5.272,0,0,1-1.924-.334,3.82,3.82,0,0,1-1.44-.965,4.359,4.359,0,0,1-.906-1.56,6.528,6.528,0,0,1-.316-2.117,5.707,5.707,0,0,1,.365-2.115,4.593,4.593,0,0,1,.994-1.559,4.219,4.219,0,0,1,1.483-.965,4.976,4.976,0,0,1,1.828-.33,5.79,5.79,0,0,1,1.069.088,8.106,8.106,0,0,1,.84.2,3.279,3.279,0,0,1,.588.233c.153.08.265.141.33.177l-.508,1.416a4.218,4.218,0,0,0-.94-.394,4.638,4.638,0,0,0-1.326-.184,3.1,3.1,0,0,0-1.153.216,2.509,2.509,0,0,0-.926.636,3.039,3.039,0,0,0-.614,1.073,4.678,4.678,0,0,0-.218,1.5,5.246,5.246,0,0,0,.173,1.387,3.069,3.069,0,0,0,.528,1.087,2.372,2.372,0,0,0,.9.718,3.186,3.186,0,0,0,1.322.251,5.059,5.059,0,0,0,1.495-.182,6.086,6.086,0,0,0,.893-.353l.467,1.414a2.266,2.266,0,0,1-.443.222,6.655,6.655,0,0,1-.667.21,5.779,5.779,0,0,1-.867.165A7.722,7.722,0,0,1,147.291,160.35Z" transform="translate(-75.133 -150.406)" fill="#fff"/><path d="M156.37,160.034c-.128-.375-.261-.747-.4-1.114s-.271-.74-.4-1.122h-4.021c-.128.383-.259.757-.39,1.13s-.265.74-.392,1.106h-1.8q.533-1.521,1.014-2.815c.32-.863.634-1.675.94-2.444s.61-1.5.912-2.2.612-1.383.932-2.06h1.654q.48,1.015.934,2.06t.912,2.2c.308.769.624,1.581.947,2.444s.667,1.8,1.022,2.815Zm-2.807-7.678q-.315.73-.722,1.773T152,156.4h3.131q-.438-1.224-.851-2.279T153.563,152.356Z" transform="translate(-69.107 -150.298)" fill="#fff"/><path d="M157.193,150.469a5.53,5.53,0,0,1,3.152.755,2.848,2.848,0,0,1-.816,4.93q.259.318.588.767c.222.3.445.632.673.985s.449.712.659,1.085.4.736.563,1.091h-1.936c-.175-.33-.363-.663-.563-1s-.4-.659-.612-.977-.408-.612-.61-.893-.388-.524-.561-.747c-.129.012-.239.016-.33.016h-1.1v3.6h-1.73V150.7a9.669,9.669,0,0,1,1.346-.188Q156.631,150.47,157.193,150.469Zm.126,1.5c-.369,0-.706.012-1.018.039v3.076h.755a7.747,7.747,0,0,0,1.112-.069,2.3,2.3,0,0,0,.8-.245,1.171,1.171,0,0,0,.488-.483,1.577,1.577,0,0,0,.165-.767,1.529,1.529,0,0,0-.165-.741,1.228,1.228,0,0,0-.475-.481,2.215,2.215,0,0,0-.734-.255A5.277,5.277,0,0,0,157.318,151.966Z" transform="translate(-63.723 -150.345)" fill="#fff"/><path d="M166.419,150.518v1.5h-2.925v8.019h-1.744v-8.019h-2.925v-1.5Z" transform="translate(-59.631 -150.298)" fill="#fff"/><path d="M166.3,158.851a2.312,2.312,0,0,0,1.359-.318,1.048,1.048,0,0,0,.426-.893,1.161,1.161,0,0,0-.145-.59,1.51,1.51,0,0,0-.412-.445,3.417,3.417,0,0,0-.653-.371c-.255-.116-.547-.226-.879-.337s-.647-.249-.953-.39a3.177,3.177,0,0,1-.81-.53,2.454,2.454,0,0,1-.563-.753,2.386,2.386,0,0,1-.214-1.057,2.5,2.5,0,0,1,.893-2.028,3.736,3.736,0,0,1,2.432-.732,5.646,5.646,0,0,1,1.585.2,4.584,4.584,0,0,1,1.093.434l-.537,1.4a4.229,4.229,0,0,0-1.022-.4,4.732,4.732,0,0,0-1.146-.137,1.8,1.8,0,0,0-1.093.29.951.951,0,0,0-.39.81,1.067,1.067,0,0,0,.131.543,1.339,1.339,0,0,0,.369.4,3.38,3.38,0,0,0,.563.33,7.3,7.3,0,0,0,.706.29c.449.165.849.33,1.2.5a3.478,3.478,0,0,1,.893.606,2.366,2.366,0,0,1,.557.824,3.063,3.063,0,0,1,.192,1.146,2.383,2.383,0,0,1-.914,2,4.293,4.293,0,0,1-2.67.71,7.251,7.251,0,0,1-1.079-.077,6.461,6.461,0,0,1-.865-.188,5.313,5.313,0,0,1-.653-.226,4.448,4.448,0,0,1-.437-.212l.506-1.414a6.047,6.047,0,0,0,1,.41A4.876,4.876,0,0,0,166.3,158.851Z" transform="translate(-55.363 -150.406)" fill="#fff"/><path d="M176.433,160.034c-.129-.375-.261-.747-.4-1.114s-.271-.74-.4-1.122h-4.019c-.129.383-.259.757-.392,1.13s-.263.74-.392,1.106h-1.8q.536-1.521,1.016-2.815c.32-.863.632-1.675.938-2.444s.612-1.5.912-2.2.614-1.383.934-2.06h1.654q.48,1.015.932,2.06t.914,2.2c.306.769.622,1.581.945,2.444s.667,1.8,1.024,2.815Zm-2.807-7.678q-.315.73-.722,1.773t-.845,2.266h3.133c-.294-.816-.577-1.575-.853-2.279S173.828,152.823,173.626,152.356Z" transform="translate(-49.816 -150.298)" fill="#fff"/><path d="M181.043,160.034c-.31-.52-.659-1.085-1.042-1.681s-.783-1.2-1.195-1.813-.832-1.2-1.257-1.773-.832-1.085-1.214-1.546v6.813h-1.7v-9.516h1.414q.547.574,1.181,1.367c.42.524.845,1.073,1.271,1.64s.836,1.138,1.234,1.709.753,1.106,1.063,1.6v-6.316h1.716v9.516Z" transform="translate(-44.431 -150.298)" fill="#fff"/><path d="M188.152,155.314a5.5,5.5,0,0,1-.385,2.15,4.06,4.06,0,0,1-1.093,1.526,4.5,4.5,0,0,1-1.7.9,7.614,7.614,0,0,1-2.2.3q-.577,0-1.3-.047a9.04,9.04,0,0,1-1.387-.2V150.7a8.4,8.4,0,0,1,1.4-.192c.494-.025.936-.041,1.318-.041a8.013,8.013,0,0,1,2.183.279,4.476,4.476,0,0,1,1.695.883,3.936,3.936,0,0,1,1.093,1.508A5.58,5.58,0,0,1,188.152,155.314Zm-6.344,3.339c.1.008.233.014.4.018s.388.008.673.008a3.473,3.473,0,0,0,2.6-.885,4.052,4.052,0,0,0,.02-4.965,3.473,3.473,0,0,0-2.593-.863,10.248,10.248,0,0,0-1.1.039Z" transform="translate(-39.194 -150.345)" fill="#fff"/><path d="M190.013,150.469a5.622,5.622,0,0,1,3.178.755,2.66,2.66,0,0,1,1.106,2.364A3.215,3.215,0,0,1,194,155.02a2.512,2.512,0,0,1-.859.977,4.008,4.008,0,0,1-1.373.555,8.63,8.63,0,0,1-1.852.177h-.867v3.352h-1.73V150.7a8.885,8.885,0,0,1,1.34-.188Q189.394,150.47,190.013,150.469Zm.124,1.5c-.439,0-.8.012-1.085.039v3.241h.838a4.248,4.248,0,0,0,1.922-.347,1.355,1.355,0,0,0,.673-1.326,1.571,1.571,0,0,0-.178-.783,1.274,1.274,0,0,0-.494-.494,2.308,2.308,0,0,0-.749-.255A5.3,5.3,0,0,0,190.137,151.966Z" transform="translate(-32.228 -150.345)" fill="#fff"/><path d="M197.965,158.535v1.5h-6.016v-9.516h1.73v8.017Z" transform="translate(-27.779 -150.298)" fill="#fff"/><path d="M202.982,160.034c-.128-.375-.259-.747-.4-1.114s-.269-.74-.4-1.122h-4.021c-.128.383-.257.757-.39,1.13s-.265.74-.392,1.106h-1.8q.536-1.521,1.016-2.815c.32-.863.632-1.675.938-2.444s.612-1.5.912-2.2.612-1.383.934-2.06h1.652q.48,1.015.934,2.06t.914,2.2c.306.769.622,1.581.945,2.444s.667,1.8,1.024,2.815Zm-2.805-7.678q-.318.73-.722,1.773t-.845,2.266h3.133c-.294-.816-.577-1.575-.853-2.279S200.377,152.823,200.177,152.356Z" transform="translate(-24.284 -150.298)" fill="#fff"/><path d="M203.944,158.851a2.309,2.309,0,0,0,1.359-.318,1.044,1.044,0,0,0,.426-.893,1.16,1.16,0,0,0-.143-.59,1.537,1.537,0,0,0-.412-.445,3.477,3.477,0,0,0-.653-.371c-.257-.116-.547-.226-.879-.337s-.647-.249-.955-.39a3.177,3.177,0,0,1-.81-.53,2.455,2.455,0,0,1-.563-.753,2.414,2.414,0,0,1-.212-1.057,2.491,2.491,0,0,1,.893-2.028,3.734,3.734,0,0,1,2.43-.732,5.66,5.66,0,0,1,1.587.2,4.565,4.565,0,0,1,1.091.434l-.535,1.4a4.214,4.214,0,0,0-1.024-.4,4.709,4.709,0,0,0-1.146-.137,1.793,1.793,0,0,0-1.091.29.946.946,0,0,0-.39.81,1.067,1.067,0,0,0,.129.543,1.347,1.347,0,0,0,.371.4,3.3,3.3,0,0,0,.563.33,7.1,7.1,0,0,0,.706.29c.447.165.849.33,1.2.5a3.445,3.445,0,0,1,.893.606,2.4,2.4,0,0,1,.559.824,3.064,3.064,0,0,1,.19,1.146,2.378,2.378,0,0,1-.914,2,4.285,4.285,0,0,1-2.67.71,7.271,7.271,0,0,1-1.079-.077,6.428,6.428,0,0,1-.863-.188,5.316,5.316,0,0,1-.653-.226,4.518,4.518,0,0,1-.439-.212l.508-1.414a6.049,6.049,0,0,0,1,.41A4.863,4.863,0,0,0,203.944,158.851Z" transform="translate(-19.163 -150.406)" fill="#fff"/><path d="M212.429,150.518v1.5H209.5v8.019h-1.744v-8.019h-2.925v-1.5Z" transform="translate(-15.386 -150.298)" fill="#fff"/><path d="M209.646,150.518h1.728v9.516h-1.728Z" transform="translate(-10.761 -150.298)" fill="#fff"/><path d="M216.359,160.35a5.247,5.247,0,0,1-1.922-.334,3.828,3.828,0,0,1-1.442-.965,4.33,4.33,0,0,1-.906-1.56,6.475,6.475,0,0,1-.316-2.117,5.707,5.707,0,0,1,.365-2.115,4.564,4.564,0,0,1,.995-1.559,4.219,4.219,0,0,1,1.483-.965,4.974,4.974,0,0,1,1.826-.33,5.782,5.782,0,0,1,1.071.088,8.058,8.058,0,0,1,.838.2,3.245,3.245,0,0,1,.59.233c.155.08.265.141.33.177l-.508,1.416a4.2,4.2,0,0,0-.942-.394,4.605,4.605,0,0,0-1.324-.184,3.109,3.109,0,0,0-1.153.216,2.516,2.516,0,0,0-.928.636,3,3,0,0,0-.61,1.073,4.621,4.621,0,0,0-.22,1.5,5.416,5.416,0,0,0,.171,1.387,3.106,3.106,0,0,0,.53,1.087,2.364,2.364,0,0,0,.906.718,3.161,3.161,0,0,0,1.318.251,5.074,5.074,0,0,0,1.5-.182,6.087,6.087,0,0,0,.893-.353l.467,1.414a2.181,2.181,0,0,1-.445.222,6.657,6.657,0,0,1-.667.21,5.75,5.75,0,0,1-.865.165A7.7,7.7,0,0,1,216.359,160.35Z" transform="translate(-8.715 -150.406)" fill="#fff"/><path d="M221.248,158.851a2.309,2.309,0,0,0,1.359-.318,1.044,1.044,0,0,0,.426-.893,1.161,1.161,0,0,0-.143-.59,1.537,1.537,0,0,0-.412-.445,3.478,3.478,0,0,0-.653-.371c-.257-.116-.549-.226-.881-.337s-.647-.249-.953-.39a3.177,3.177,0,0,1-.81-.53,2.455,2.455,0,0,1-.563-.753,2.414,2.414,0,0,1-.212-1.057,2.491,2.491,0,0,1,.893-2.028,3.727,3.727,0,0,1,2.43-.732,5.637,5.637,0,0,1,1.585.2,4.585,4.585,0,0,1,1.093.434l-.536,1.4a4.243,4.243,0,0,0-1.024-.4,4.72,4.72,0,0,0-1.146-.137,1.789,1.789,0,0,0-1.091.29.947.947,0,0,0-.392.81,1.067,1.067,0,0,0,.131.543,1.364,1.364,0,0,0,.369.4,3.379,3.379,0,0,0,.563.33,7.344,7.344,0,0,0,.708.29c.447.165.847.33,1.2.5a3.445,3.445,0,0,1,.893.606,2.367,2.367,0,0,1,.557.824,3.024,3.024,0,0,1,.192,1.146,2.378,2.378,0,0,1-.914,2,4.289,4.289,0,0,1-2.67.71,7.27,7.27,0,0,1-1.079-.077,6.363,6.363,0,0,1-.863-.188,5.2,5.2,0,0,1-.653-.226,4.513,4.513,0,0,1-.439-.212l.508-1.414a6.089,6.089,0,0,0,1,.41A4.876,4.876,0,0,0,221.248,158.851Z" transform="translate(-2.523 -150.406)" fill="#fff"/><path d="M226.33,160.242a4.466,4.466,0,0,1-1.675-.284,3.071,3.071,0,0,1-1.84-1.985,4.9,4.9,0,0,1-.22-1.508v-5.946h1.742V156.3a3.7,3.7,0,0,0,.147,1.1,1.893,1.893,0,0,0,.412.751,1.639,1.639,0,0,0,.63.426,2.294,2.294,0,0,0,.818.137,2.343,2.343,0,0,0,.824-.137,1.638,1.638,0,0,0,.638-.426,1.893,1.893,0,0,0,.412-.751,3.636,3.636,0,0,0,.145-1.1v-5.781h1.744v5.946a4.782,4.782,0,0,1-.226,1.508,3.306,3.306,0,0,1-.689,1.2,3.072,3.072,0,0,1-1.175.789A4.566,4.566,0,0,1,226.33,160.242Z" transform="translate(1.691 -150.298)" fill="#fff"/><path d="M230.44,150.469a5.53,5.53,0,0,1,3.152.755,2.848,2.848,0,0,1-.816,4.93q.259.318.59.767c.22.3.443.632.671.985s.449.712.659,1.085.4.736.563,1.091h-1.936c-.175-.33-.363-.663-.563-1s-.4-.659-.612-.977-.408-.612-.61-.893-.388-.524-.561-.747c-.129.012-.239.016-.33.016h-1.1v3.6h-1.73V150.7a9.669,9.669,0,0,1,1.346-.188Q229.878,150.47,230.44,150.469Zm.126,1.5c-.369,0-.706.012-1.018.039v3.076h.755a7.746,7.746,0,0,0,1.112-.069,2.328,2.328,0,0,0,.8-.245,1.193,1.193,0,0,0,.488-.483,1.6,1.6,0,0,0,.165-.767,1.551,1.551,0,0,0-.165-.741,1.246,1.246,0,0,0-.477-.481,2.215,2.215,0,0,0-.734-.255A5.276,5.276,0,0,0,230.565,151.966Z" transform="translate(6.713 -150.345)" fill="#fff"/><path d="M237.137,151.932a2.787,2.787,0,0,0-2.246.91,3.791,3.791,0,0,0-.775,2.532,5.1,5.1,0,0,0,.184,1.407,3.065,3.065,0,0,0,.551,1.093,2.493,2.493,0,0,0,.9.708,2.988,2.988,0,0,0,1.271.253c.3,0,.563-.012.783-.033a3.187,3.187,0,0,0,.522-.088v-3.419h1.73v4.573a8.376,8.376,0,0,1-1.208.3,10.416,10.416,0,0,1-1.964.165,5.217,5.217,0,0,1-1.881-.33,3.9,3.9,0,0,1-1.45-.961,4.383,4.383,0,0,1-.926-1.552,6.261,6.261,0,0,1-.33-2.117,5.749,5.749,0,0,1,.363-2.115,4.6,4.6,0,0,1,1-1.559,4.219,4.219,0,0,1,1.483-.965,4.938,4.938,0,0,1,1.813-.33,6.772,6.772,0,0,1,1.173.088,8.4,8.4,0,0,1,.887.2,3.326,3.326,0,0,1,.61.233c.161.08.273.141.337.177l-.522,1.416a4.189,4.189,0,0,0-1.022-.42A4.691,4.691,0,0,0,237.137,151.932Z" transform="translate(11.028 -150.406)" fill="#fff"/><path d="M237.547,160.034v-9.516h6.11v1.471h-4.38v2.344h3.9v1.444h-3.9v2.786h4.71v1.471Z" transform="translate(16.07 -150.298)" fill="#fff"/><path d="M244.538,150.469a5.524,5.524,0,0,1,3.15.755,2.846,2.846,0,0,1-.816,4.93c.173.212.371.467.59.767s.445.632.673.985.447.712.659,1.085.4.736.563,1.091h-1.936c-.175-.33-.363-.663-.563-1s-.4-.659-.612-.977-.408-.612-.61-.893-.39-.524-.563-.747c-.127.012-.239.016-.33.016h-1.1v3.6h-1.73V150.7a9.628,9.628,0,0,1,1.346-.188Q243.976,150.47,244.538,150.469Zm.124,1.5c-.367,0-.7.012-1.016.039v3.076h.755a7.764,7.764,0,0,0,1.112-.069,2.3,2.3,0,0,0,.8-.245,1.171,1.171,0,0,0,.488-.483,1.577,1.577,0,0,0,.165-.767,1.529,1.529,0,0,0-.165-.741,1.228,1.228,0,0,0-.475-.481,2.215,2.215,0,0,0-.734-.255A5.315,5.315,0,0,0,244.661,151.966Z" transform="translate(20.27 -150.345)" fill="#fff"/><path d="M250.28,154.732c.412-.687.814-1.379,1.208-2.083s.751-1.418,1.071-2.13h1.92c-.51.969-1.046,1.934-1.6,2.887s-1.146,1.924-1.777,2.893v3.735h-1.73v-3.707q-.947-1.471-1.785-2.913t-1.607-2.9h2.032c.322.712.673,1.424,1.057,2.13S249.858,154.045,250.28,154.732Z" transform="translate(24.181 -150.298)" fill="#fff"/></g></g></svg>