<svg xmlns="http://www.w3.org/2000/svg" width="164.644" height="329.25" viewBox="0 0 164.644 329.25">
  <g id="logo-icon" transform="translate(-462.461 -4971.757)">
    <g id="Group_25" data-name="Group 25" transform="translate(444.323 4956.552)">
      <path id="Path_16" data-name="Path 16" d="M18.138,124.955a54.875,54.875,0,0,0,0-109.75V234.7a54.875,54.875,0,0,0,0-109.75" transform="translate(0 0)" fill="#fff"/>
      <path id="Path_17" data-name="Path 17" d="M18.138,110.543" transform="translate(0 124.162)" fill="#fff"/>
      <path id="Path_18" data-name="Path 18" d="M41.981,172.624a54.875,54.875,0,1,0,0-109.75v219.5a54.875,54.875,0,1,0,0-109.75" transform="translate(31.051 62.081)" fill="#fff"/>
      <path id="Path_19" data-name="Path 19" d="M120.69,62.874a54.875,54.875,0,0,0,0,109.75Z" transform="translate(62.093 62.081)" fill="#fff"/>
      <path id="Path_20" data-name="Path 20" d="M18.138,110.543" transform="translate(0 124.162)" fill="#fff"/>
    </g>
  </g>
</svg>
