<svg xmlns="http://www.w3.org/2000/svg" xmlns:xlink="http://www.w3.org/1999/xlink" width="333.308" height="213.412" viewBox="0 0 333.308 213.412"><defs><linearGradient id="a" x1="0.5" y1="-0.074" x2="0.5" y2="1.041" gradientUnits="objectBoundingBox"><stop offset="0" stop-color="#9f885e"/><stop offset="0.215" stop-color="#ceb587"/><stop offset="0.4" stop-color="#f1d7a5"/><stop offset="0.5" stop-color="#ffe4b1"/><stop offset="0.585" stop-color="#f8ddab"/><stop offset="0.708" stop-color="#e5cb9a"/><stop offset="0.852" stop-color="#c6ad7f"/><stop offset="1" stop-color="#9f885e"/></linearGradient><linearGradient id="b" x1="3.419" y1="3.324" x2="10.757" y2="9.956" xlink:href="#a"/><linearGradient id="c" x1="4.029" y1="2.731" x2="14.592" y2="9.363" xlink:href="#a"/><linearGradient id="d" x1="3.289" y1="2.238" x2="13.568" y2="8.585" xlink:href="#a"/><linearGradient id="e" x1="2.451" y1="1.801" x2="11.41" y2="8.433" xlink:href="#a"/><linearGradient id="f" x1="1.694" y1="1.384" x2="10.653" y2="8.015" xlink:href="#a"/><linearGradient id="g" x1="1.076" y1="0.878" x2="11.643" y2="7.51" xlink:href="#a"/><linearGradient id="h" x1="0.509" y1="0.364" x2="9.468" y2="6.996" xlink:href="#a"/><linearGradient id="i" x1="-1.876" y1="0.1" x2="37.49" y2="6.732" xlink:href="#a"/><linearGradient id="j" x1="-0.49" y1="-0.283" x2="8.469" y2="6.063" xlink:href="#a"/><linearGradient id="k" x1="-1.212" y1="-0.861" x2="6.129" y2="5.771" xlink:href="#a"/><linearGradient id="l" x1="-2.313" y1="-1.403" x2="6.828" y2="5.163" xlink:href="#a"/><linearGradient id="m" x1="-2.693" y1="-2.006" x2="6.266" y2="4.626" xlink:href="#a"/><linearGradient id="n" x1="-3.945" y1="-2.228" x2="6.334" y2="4.119" xlink:href="#a"/><linearGradient id="o" x1="-3.494" y1="-2.922" x2="3.846" y2="3.709" xlink:href="#a"/><linearGradient id="p" x1="-4.787" y1="-3.562" x2="3.846" y2="3.07" xlink:href="#a"/><linearGradient id="q" x1="-5.449" y1="-3.967" x2="2.977" y2="2.526" xlink:href="#a"/><linearGradient id="r" x1="-7.415" y1="-4.738" x2="2.338" y2="1.828" xlink:href="#a"/><linearGradient id="s" x1="-9.542" y1="-5.18" x2="1.766" y2="1.451" xlink:href="#a"/><linearGradient id="t" x1="-6.514" y1="-5.651" x2="0.826" y2="0.98" xlink:href="#a"/><linearGradient id="u" x1="-9.942" y1="-5.931" x2="0.337" y2="0.416" xlink:href="#a"/><linearGradient id="v" x1="-9.082" y1="-6.735" x2="-0.122" y2="-0.103" xlink:href="#a"/><linearGradient id="w" x1="-44.014" y1="-6.999" x2="-4.648" y2="-0.367" xlink:href="#a"/><linearGradient id="x" x1="-10.08" y1="-7.077" x2="-1.121" y2="-0.73" xlink:href="#a"/><linearGradient id="y" x1="-12.698" y1="-7.633" x2="-2.419" y2="-1.286" xlink:href="#a"/><linearGradient id="z" x1="-11.711" y1="-8.347" x2="-2.653" y2="-1.857" xlink:href="#a"/><linearGradient id="aa" x1="-12.69" y1="-8.856" x2="-3.549" y2="-2.29" xlink:href="#a"/><linearGradient id="ab" x1="-12.65" y1="-9.116" x2="-3.881" y2="-2.759" xlink:href="#a"/><linearGradient id="ac" x1="-16.222" y1="-9.982" x2="-5.658" y2="-3.35" xlink:href="#a"/><linearGradient id="ad" x1="-14.687" y1="-10.29" x2="-5.546" y2="-3.725" xlink:href="#a"/><linearGradient id="ae" x1="-13.183" y1="-11" x2="-5.177" y2="-4.368" xlink:href="#a"/></defs><g transform="translate(-516.346 -3917.898)"><g transform="translate(385.681 3845.251)"><path d="M133.528,165.183a15.742,15.742,0,0,1-6.748-7.032c-.091-.2-.188-.387-.284-.576.1-.19.193-.378.284-.576a15.735,15.735,0,0,1,6.737-7.026,12.975,12.975,0,0,1,1.638-.711l.562-.2-3.76-3.758a22.876,22.876,0,0,0-8.794-5.505,22.9,22.9,0,0,0,2.327-10.111v-2.92l-.144-2.345-.506.234a12.848,12.848,0,0,1-1.552.611,15.718,15.718,0,0,1-9.743-.2c-.207-.073-.406-.14-.608-.205-.065-.2-.131-.4-.205-.608a15.751,15.751,0,0,1-.205-9.732,13.3,13.3,0,0,1,.656-1.659l.254-.542h-5.315a22.885,22.885,0,0,0-10.112,2.327,22.884,22.884,0,0,0-5.5-8.8l-2.064-2.063-1.761-1.557-.191.521a13.41,13.41,0,0,1-.665,1.53,15.745,15.745,0,0,1-7.033,6.748c-.2.093-.386.188-.574.284-.188-.1-.378-.191-.576-.286a15.731,15.731,0,0,1-7.027-6.737,13.538,13.538,0,0,1-.709-1.636l-.2-.562-3.758,3.758a22.9,22.9,0,0,0-5.5,8.8,22.874,22.874,0,0,0-10.111-2.327l-2.918,0-2.347.143.234.5a13.143,13.143,0,0,1,.611,1.552,15.74,15.74,0,0,1-.2,9.743c-.074.205-.14.407-.205.608l-.011,0c-.2.064-.395.128-.6.2a15.729,15.729,0,0,1-9.732.205,12.91,12.91,0,0,1-1.659-.655l-.542-.254v5.315A22.864,22.864,0,0,0,37.286,139.8a22.9,22.9,0,0,0-8.8,5.505l-2.063,2.064-1.557,1.761.521.191a13.151,13.151,0,0,1,1.53.665,15.745,15.745,0,0,1,6.748,7.033c.093.2.188.386.284.574-.1.188-.191.377-.286.576a15.735,15.735,0,0,1-6.737,7.026,13.1,13.1,0,0,1-1.636.711l-.562.2,3.758,3.76a22.9,22.9,0,0,0,8.8,5.5,22.864,22.864,0,0,0-2.327,10.111l0,2.918.144,2.347.5-.234a12.96,12.96,0,0,1,1.551-.612,15.751,15.751,0,0,1,9.743.2c.205.076.407.141.609.207.064.2.129.4.2.608a15.739,15.739,0,0,1,.207,9.732,13.248,13.248,0,0,1-.656,1.659l-.255.541h5.317a22.894,22.894,0,0,0,10.111-2.326,22.9,22.9,0,0,0,5.5,8.8l2.064,2.063,1.761,1.557.191-.521a12.868,12.868,0,0,1,.665-1.53,15.737,15.737,0,0,1,7.033-6.748c.2-.093.386-.188.574-.284.188.1.378.191.576.286a15.735,15.735,0,0,1,7.026,6.737,12.927,12.927,0,0,1,.709,1.634l.2.564,3.76-3.758a22.9,22.9,0,0,0,5.5-8.8,22.905,22.905,0,0,0,10.112,2.326h2.92l2.345-.144-.235-.5a12.962,12.962,0,0,1-.609-1.552,15.729,15.729,0,0,1,.2-9.743c.074-.205.14-.406.205-.608.2-.065.4-.131.608-.205a15.723,15.723,0,0,1,9.731-.2,13.408,13.408,0,0,1,1.66.653l.542.255V185.48a22.9,22.9,0,0,0-2.327-10.111,22.894,22.894,0,0,0,8.794-5.5l2.064-2.064,1.557-1.761-.523-.191A13.093,13.093,0,0,1,133.528,165.183Zm-22.485,11.005a23.345,23.345,0,0,0,9.72-.128,20.708,20.708,0,0,1,2.259,9.42v1.786a17.778,17.778,0,0,0-9.3.187C114.645,182.855,113.746,179.074,111.043,176.188Zm-64.3,11.276a17.8,17.8,0,0,0-5.008-.715,17.539,17.539,0,0,0-4.308.532v-1.8a20.715,20.715,0,0,1,2.26-9.42,23.3,23.3,0,0,0,9.748.122C46.718,179.073,45.814,182.858,46.742,187.464Zm2.664-48.486a23.319,23.319,0,0,0-9.72.128,20.719,20.719,0,0,1-2.26-9.42V127.9a17.809,17.809,0,0,0,9.3-.187C45.805,132.309,46.7,136.09,49.407,138.978Zm64.3-11.277a17.763,17.763,0,0,0,9.313.184v1.8a20.713,20.713,0,0,1-2.259,9.42,23.306,23.306,0,0,0-9.748-.123C113.73,136.093,114.636,132.308,113.709,127.7ZM57.48,172.9a23.084,23.084,0,0,0,3.746-3.034l5.064-5.064h6.717v6.717l-5.064,5.064a23.1,23.1,0,0,0-3.034,3.746V172.9Zm15.528-22.532H66.291L61.226,145.3a23.136,23.136,0,0,0-3.744-3.034H64.91v-7.43a23.082,23.082,0,0,0,3.034,3.746l5.064,5.064Zm0,10.2v1.762h-4.25l3-3.006Zm-4.25-7.738h4.25v1.761l-1.246,1.246ZM58.106,164.8h4.7l-3.319,3.321a20.545,20.545,0,0,1-14.624,6.056,20.9,20.9,0,0,1-3.833-.357,20.869,20.869,0,0,1,2.458-2.964A20.545,20.545,0,0,1,58.106,164.8Zm-12.36-1.05-.017.015h-.056a8.564,8.564,0,0,1-5.753-2.137,14.8,14.8,0,0,1-3.178-4.038,14.787,14.787,0,0,1,3.185-4.045,8.6,8.6,0,0,1,6.053-2.125l.207.053a7.909,7.909,0,0,1,5.078,2.3l3.811,3.813-3.811,3.811a7.9,7.9,0,0,1-5.333,2.31Zm12.36-1.417a23.17,23.17,0,0,0-4.794.5l5.254-5.253-5.254-5.253a23.169,23.169,0,0,0,4.794.5h7.162l4.75,4.75-4.75,4.75ZM43.484,144.31a20.7,20.7,0,0,1-2.458-2.964,20.9,20.9,0,0,1,3.833-.357,20.546,20.546,0,0,1,14.624,6.056l3.319,3.321h-4.7A20.545,20.545,0,0,1,43.484,144.31Zm59.484-2.042a23.218,23.218,0,0,0-3.744,3.034l-5.064,5.064H87.442v-6.717l5.064-5.064a23.134,23.134,0,0,0,3.034-3.746v7.43ZM87.442,162.333v-1.762l1.244-1.244,3.006,3.006Zm14.9-9.5a23.158,23.158,0,0,0,4.794-.5l-5.253,5.253,5.253,5.253a23.17,23.17,0,0,0-4.794-.5H95.18l-4.75-4.75,4.75-4.75Zm12.368-1.417.015-.015h.052a8.567,8.567,0,0,1,5.753,2.137,14.816,14.816,0,0,1,3.178,4.038,14.731,14.731,0,0,1-3.187,4.044,8.529,8.529,0,0,1-6.044,2.127l-.214-.053a7.91,7.91,0,0,1-5.078-2.3l-3.813-3.811,3.813-3.813a7.892,7.892,0,0,1,5.333-2.309Zm-17.063-1.05,3.321-3.321a20.543,20.543,0,0,1,14.624-6.056,20.9,20.9,0,0,1,3.833.357,20.79,20.79,0,0,1-2.458,2.964,20.551,20.551,0,0,1-14.624,6.056Zm-10.2,4.227v-1.761h4.25l-3.006,3.006Zm-13.934,2.989,6.717-6.717,6.717,6.717L80.225,164.3Zm3.728-7.217H75.475v-4.25l3.006,3Zm7.74-4.25v4.25H83.213l-1.244-1.246Zm-10-15.444,5.253,5.253,5.253-5.253a23.136,23.136,0,0,0-.5,4.794v7.161l-4.75,4.75-4.75-4.75v-7.161A23.251,23.251,0,0,0,74.972,130.672ZM83.213,164.8h1.762v4.25l-3.006-3.006Zm-7.738,4.25V164.8h1.761l1.246,1.244Zm10,15.443-5.253-5.251-5.253,5.253a23.247,23.247,0,0,0,.5-4.793v-7.164l4.75-4.75,4.75,4.75V179.7A23.107,23.107,0,0,0,85.478,184.493ZM87.442,164.8h6.717l5.064,5.064a23.084,23.084,0,0,0,3.746,3.034H95.54v7.428a23.122,23.122,0,0,0-3.034-3.744l-5.064-5.064Zm29.524,6.056a20.7,20.7,0,0,1,2.458,2.964,20.9,20.9,0,0,1-3.833.357,20.543,20.543,0,0,1-14.624-6.056L97.647,164.8h4.7A20.551,20.551,0,0,1,116.966,170.856Zm8.065-15.836c-2.6-3.905-5.906-5.942-9.857-6.072a23.322,23.322,0,0,0,6.781-6.965,20.714,20.714,0,0,1,8.261,5.061l1.264,1.264A17.788,17.788,0,0,0,125.03,155.02Zm-13.457-23.077a8.591,8.591,0,0,1-2.792,5.78l-.032-.006-.137.118A7.909,7.909,0,0,1,103.4,139.8H98.007V134.41a7.9,7.9,0,0,1,2.136-5.4l.1-.169v-.02a8.574,8.574,0,0,1,5.617-2.594,14.792,14.792,0,0,1,5.1.608A14.824,14.824,0,0,1,111.573,131.943ZM98.83,126.765a23.3,23.3,0,0,0-.128-9.72,20.714,20.714,0,0,1,9.42-2.26h1.788a17.777,17.777,0,0,0,.185,9.3C105.5,123.163,101.718,124.061,98.83,126.765ZM90.761,136.84l-3.319,3.319v-4.694A20.546,20.546,0,0,1,93.5,120.842a20.943,20.943,0,0,1,2.962-2.458,20.9,20.9,0,0,1,.358,3.833A20.547,20.547,0,0,1,90.761,136.84Zm-1.917-14.183c-.122-3.962-2.159-7.279-6.073-9.881a17.769,17.769,0,0,0,6.717-6.456l1.273,1.273a20.705,20.705,0,0,1,5.063,8.259A23.365,23.365,0,0,0,88.844,122.657Zm-2.509.889a7.9,7.9,0,0,1-2.3,5.078l-3.811,3.811-3.813-3.811a7.9,7.9,0,0,1-2.31-5.333l-.044-.193-.015-.015a8.576,8.576,0,0,1,2.137-5.8,14.8,14.8,0,0,1,4.038-3.178,14.8,14.8,0,0,1,4.044,3.185,8.59,8.59,0,0,1,2.125,6.055Zm-14.745-.91a23.292,23.292,0,0,0-6.963-6.784,20.712,20.712,0,0,1,5.061-8.259l1.264-1.264a17.8,17.8,0,0,0,6.711,6.447C73.757,115.373,71.72,118.682,71.589,122.636Zm1.419,17.524-3.321-3.319a20.545,20.545,0,0,1-6.056-14.624,20.9,20.9,0,0,1,.357-3.833,20.774,20.774,0,0,1,2.962,2.458,20.541,20.541,0,0,1,6.058,14.624ZM53.687,123.748a16.936,16.936,0,0,0-3.345.352,17.791,17.791,0,0,0,.184-9.316h1.8a20.719,20.719,0,0,1,9.42,2.26,23.323,23.323,0,0,0-.123,9.748A11.175,11.175,0,0,0,53.687,123.748Zm.9,2.487a8.583,8.583,0,0,1,5.78,2.79l0,.036.117.134a7.906,7.906,0,0,1,1.966,5.215V139.8H57.052a7.9,7.9,0,0,1-5.4-2.137l-.169-.1h-.021a8.575,8.575,0,0,1-2.593-5.616,14.828,14.828,0,0,1,.608-5.1A14.8,14.8,0,0,1,54.585,126.235ZM38.494,141.984a23.326,23.326,0,0,0,6.805,6.979c-3.962.123-7.279,2.16-9.88,6.073a17.8,17.8,0,0,0-6.457-6.716l1.273-1.274A20.726,20.726,0,0,1,38.494,141.984Zm-3.075,18.162c2.6,3.9,5.906,5.942,9.859,6.072a23.315,23.315,0,0,0-6.784,6.965,20.726,20.726,0,0,1-8.259-5.061l-1.264-1.264A17.8,17.8,0,0,0,35.419,160.146Zm13.457,23.077a8.6,8.6,0,0,1,2.79-5.781l.036.006.134-.117a7.909,7.909,0,0,1,5.215-1.966h5.391v5.391a7.9,7.9,0,0,1-2.137,5.4l-.1.167v.021a8.581,8.581,0,0,1-5.616,2.595,14.974,14.974,0,0,1-5.1-.609A14.755,14.755,0,0,1,48.877,183.223ZM61.62,188.4a23.3,23.3,0,0,0,.128,9.722,20.709,20.709,0,0,1-9.42,2.259H50.541a17.809,17.809,0,0,0-.187-9.3C54.953,192,58.732,191.1,61.62,188.4Zm8.068-10.074L73.008,175v4.7a20.542,20.542,0,0,1-6.058,14.622,20.775,20.775,0,0,1-2.962,2.458,20.9,20.9,0,0,1-.357-3.833A20.545,20.545,0,0,1,69.687,178.325ZM71.6,192.507c.123,3.963,2.16,7.279,6.073,9.881a17.779,17.779,0,0,0-6.716,6.457l-1.274-1.274a20.707,20.707,0,0,1-5.061-8.257A23.33,23.33,0,0,0,71.6,192.507Zm2.511-.887a7.909,7.909,0,0,1,2.3-5.078l3.813-3.813,3.811,3.813a7.887,7.887,0,0,1,2.31,5.333l.046.187.015.017a8.574,8.574,0,0,1-2.139,5.809,14.772,14.772,0,0,1-4.036,3.178,14.811,14.811,0,0,1-4.045-3.185,8.6,8.6,0,0,1-2.125-6.053Zm14.744.91a23.369,23.369,0,0,0,6.965,6.784,20.7,20.7,0,0,1-5.063,8.257L89.5,208.835a17.791,17.791,0,0,0-6.71-6.447C86.693,199.792,88.73,196.482,88.859,192.53ZM87.442,175l3.319,3.321a20.547,20.547,0,0,1,6.058,14.624,20.9,20.9,0,0,1-.358,3.833,20.944,20.944,0,0,1-2.962-2.458A20.55,20.55,0,0,1,87.442,179.7Zm22.666,16.061a17.8,17.8,0,0,0-.185,9.315h-1.8a20.713,20.713,0,0,1-9.42-2.259,23.323,23.323,0,0,0,.123-9.748C101.715,191.09,105.5,191.994,110.107,191.066Zm-4.241-2.134a8.6,8.6,0,0,1-5.789-2.8l0-.038-.108-.125a7.911,7.911,0,0,1-1.966-5.215v-5.391H103.4a7.893,7.893,0,0,1,5.4,2.136l.17.106h.02a8.571,8.571,0,0,1,2.593,5.614,14.763,14.763,0,0,1-.606,5.1A14.852,14.852,0,0,1,105.866,188.931Zm16.088-15.749a23.285,23.285,0,0,0-6.8-6.978c3.962-.123,7.279-2.16,9.88-6.075a17.8,17.8,0,0,0,6.457,6.717l-1.273,1.274A20.731,20.731,0,0,1,121.954,173.182Z" transform="translate(217.605 -29.445)" fill="url(#a)"/><g transform="translate(130.664 210.054)"><path d="M146.158,155.168h1.649l-.995,14.5h-38.59v-1.581h.964q3.469,0,4.483-.927a4.168,4.168,0,0,0,1.288-2.353,53.969,53.969,0,0,0,.277-7.27v-22.85a51.755,51.755,0,0,0-.293-7.009,3.288,3.288,0,0,0-1.339-2.355q-1.049-.668-4.415-.669v-1.581h33.3l1.1,11.614h-1.616q-1.1-4.88-2.7-6.922a6.839,6.839,0,0,0-3.8-2.58,33.589,33.589,0,0,0-7.079-.53h-6.46v19.552h4.95a13.393,13.393,0,0,0,4.757-.584,3.06,3.06,0,0,0,1.787-1.769,16.106,16.106,0,0,0,.429-4.623h1.616v15.944h-1.616a13.618,13.618,0,0,0-.652-5.205,3.152,3.152,0,0,0-1.907-1.717,15.844,15.844,0,0,0-4.243-.4h-5.121v11.03q0,8.283,1.065,9.74t5.74,1.461h3.469a16.483,16.483,0,0,0,6.047-.943,10.794,10.794,0,0,0,4.518-3.885A22.633,22.633,0,0,0,146.158,155.168Z" transform="translate(-108.223 -123.074)" fill="#645d89"/><path d="M190.2,155.959l-.342,13.708H150.271v-1.581h1.375a8.077,8.077,0,0,0,4.143-.755,3.513,3.513,0,0,0,1.475-2.355,50.076,50.076,0,0,0,.326-7.438v-22.85a47.619,47.619,0,0,0-.326-7.18,3.151,3.151,0,0,0-1.375-2.235q-1.049-.616-4.586-.617h-1.032v-1.581h22.371v1.581H170.58a11.305,11.305,0,0,0-4.5.568,2.974,2.974,0,0,0-1.424,2.111,43.274,43.274,0,0,0-.364,7.354v24.4a41.724,41.724,0,0,0,.274,6.322,2.946,2.946,0,0,0,1.494,1.975q1.221.707,5.243.7h3.537a19.957,19.957,0,0,0,6.376-.755,8.921,8.921,0,0,0,3.95-3.3,25.877,25.877,0,0,0,3.42-8.074Z" transform="translate(-51.637 -123.074)" fill="#645d89"/><path d="M231.72,155.959l-.345,13.708H191.791v-1.581h1.375a8.077,8.077,0,0,0,4.143-.755,3.514,3.514,0,0,0,1.475-2.355,49.738,49.738,0,0,0,.326-7.438v-22.85a47.293,47.293,0,0,0-.326-7.18,3.151,3.151,0,0,0-1.375-2.235q-1.049-.616-4.586-.617h-1.032v-1.581H214.16v1.581H212.1a11.291,11.291,0,0,0-4.5.568,2.982,2.982,0,0,0-1.426,2.111,43.626,43.626,0,0,0-.361,7.354v24.4a41.73,41.73,0,0,0,.274,6.322,2.933,2.933,0,0,0,1.494,1.975q1.217.707,5.24.7h3.54a19.958,19.958,0,0,0,6.376-.755,8.916,8.916,0,0,0,3.948-3.3,25.82,25.82,0,0,0,3.42-8.074Z" transform="translate(4.238 -123.074)" fill="#645d89"/><path d="M271.349,155.168H273l-.995,14.5h-38.59v-1.581h.962q3.473,0,4.485-.927a4.168,4.168,0,0,0,1.288-2.353,53.973,53.973,0,0,0,.277-7.27v-22.85a52.317,52.317,0,0,0-.291-7.009,3.3,3.3,0,0,0-1.344-2.355c-.7-.446-2.167-.669-4.415-.669v-1.581h33.3l1.1,11.614h-1.616q-1.1-4.88-2.7-6.922a6.852,6.852,0,0,0-3.8-2.58,33.589,33.589,0,0,0-7.079-.53h-6.46v19.552h4.947a13.432,13.432,0,0,0,4.762-.584,3.075,3.075,0,0,0,1.785-1.769,16.106,16.106,0,0,0,.429-4.623h1.616v15.944h-1.616a13.618,13.618,0,0,0-.652-5.205,3.152,3.152,0,0,0-1.907-1.717,15.845,15.845,0,0,0-4.243-.4h-5.121v11.03q0,8.283,1.065,9.74t5.738,1.461H257.4a16.483,16.483,0,0,0,6.047-.943,10.825,10.825,0,0,0,4.52-3.885A22.717,22.717,0,0,0,271.349,155.168Z" transform="translate(60.251 -123.074)" fill="#645d89"/></g><g transform="translate(130.747 274.168)"><path d="M117.111,161.9c-.155-.448-.314-.894-.479-1.332s-.324-.884-.476-1.342H111.35c-.155.457-.312.905-.472,1.351s-.314.884-.467,1.323h-2.153q.64-1.819,1.215-3.366c.382-1.032.758-2,1.124-2.923s.73-1.8,1.091-2.627.734-1.654,1.117-2.463h1.975q.574,1.214,1.117,2.463t1.091,2.627c.368.92.746,1.891,1.133,2.923s.8,2.153,1.224,3.366Zm-3.359-9.181q-.376.873-.863,2.121t-1.009,2.709h3.744q-.524-1.464-1.018-2.726T113.752,152.716Z" transform="translate(-108.258 -150.255)" fill="url(#b)"/><path d="M113.858,161.9V150.518h7.307v1.759h-5.238v2.8h4.666v1.726h-4.666v3.331h5.632V161.9Z" transform="translate(-100.722 -150.255)" fill="url(#c)"/><path d="M121.484,160.5a2.769,2.769,0,0,0,1.628-.38,1.252,1.252,0,0,0,.507-1.067,1.387,1.387,0,0,0-.171-.706,1.838,1.838,0,0,0-.493-.533,4.163,4.163,0,0,0-.781-.443c-.3-.138-.654-.27-1.049-.4s-.776-.3-1.142-.467a3.759,3.759,0,0,1-.969-.633,2.74,2.74,0,0,1-.927-2.165,2.972,2.972,0,0,1,1.067-2.426,4.454,4.454,0,0,1,2.9-.875,6.769,6.769,0,0,1,1.9.239,5.522,5.522,0,0,1,1.307.518l-.64,1.67a5.113,5.113,0,0,0-1.224-.476,5.664,5.664,0,0,0-1.372-.164,2.149,2.149,0,0,0-1.3.347,1.133,1.133,0,0,0-.469.969,1.276,1.276,0,0,0,.157.65,1.611,1.611,0,0,0,.443.481,4.041,4.041,0,0,0,.673.394,8.991,8.991,0,0,0,.844.347c.537.2,1.016.394,1.438.6a4.159,4.159,0,0,1,1.067.725,2.822,2.822,0,0,1,.664.985,3.615,3.615,0,0,1,.23,1.37,2.848,2.848,0,0,1-1.091,2.39,5.132,5.132,0,0,1-3.195.849,8.659,8.659,0,0,1-1.288-.092,7.719,7.719,0,0,1-1.034-.225,6.308,6.308,0,0,1-.779-.27,5.477,5.477,0,0,1-.528-.253l.61-1.691a7.239,7.239,0,0,0,1.2.49A5.85,5.85,0,0,0,121.484,160.5Z" transform="translate(-95.343 -150.406)" fill="url(#d)"/><path d="M130.862,150.518v1.79h-3.5V161.9h-2.088v-9.589h-3.5v-1.79Z" transform="translate(-90.058 -150.255)" fill="url(#e)"/><path d="M133.6,150.518h2.069V161.9H133.6v-5.043H128.66V161.9h-2.069V150.518h2.069v4.548H133.6Z" transform="translate(-83.587 -150.255)" fill="url(#f)"/><path d="M131.891,161.9V150.518h7.3v1.759h-5.238v2.8h4.666v1.726h-4.666v3.331h5.632V161.9Z" transform="translate(-76.454 -150.255)" fill="url(#g)"/><path d="M144.848,150.518v1.79h-3.5V161.9h-2.085v-9.589h-3.5v-1.79Z" transform="translate(-71.237 -150.255)" fill="url(#h)"/><path d="M140.578,150.518h2.067V161.9h-2.067Z" transform="translate(-64.764 -150.255)" fill="url(#i)"/><path d="M148.189,162.3a6.305,6.305,0,0,1-2.3-.4,4.568,4.568,0,0,1-1.722-1.154,5.212,5.212,0,0,1-1.084-1.865,7.807,7.807,0,0,1-.378-2.531,6.824,6.824,0,0,1,.436-2.529,5.493,5.493,0,0,1,1.189-1.865A5.045,5.045,0,0,1,146.1,150.8a5.951,5.951,0,0,1,2.186-.394,6.922,6.922,0,0,1,1.278.106,9.7,9.7,0,0,1,1,.239,3.917,3.917,0,0,1,.7.279c.183.1.317.169.394.211l-.607,1.694a5.046,5.046,0,0,0-1.124-.471,5.546,5.546,0,0,0-1.586-.221,3.709,3.709,0,0,0-1.379.258,3,3,0,0,0-1.107.76,3.633,3.633,0,0,0-.734,1.283,5.593,5.593,0,0,0-.26,1.792,6.274,6.274,0,0,0,.206,1.658,3.67,3.67,0,0,0,.631,1.3,2.836,2.836,0,0,0,1.081.858,3.81,3.81,0,0,0,1.581.3,6.049,6.049,0,0,0,1.787-.218,7.273,7.273,0,0,0,1.067-.422l.558,1.691a2.709,2.709,0,0,1-.53.265,7.959,7.959,0,0,1-.8.251,6.908,6.908,0,0,1-1.037.2A9.228,9.228,0,0,1,148.189,162.3Z" transform="translate(-61.901 -150.406)" fill="url(#j)"/><path d="M157.819,161.9c-.152-.448-.312-.894-.476-1.332s-.324-.884-.476-1.342h-4.809c-.152.457-.31.905-.467,1.351s-.317.884-.469,1.323h-2.151q.637-1.819,1.213-3.366c.382-1.032.758-2,1.124-2.923s.73-1.8,1.091-2.627.732-1.654,1.114-2.463h1.977q.574,1.214,1.117,2.463t1.091,2.627c.368.92.746,1.891,1.133,2.923s.8,2.153,1.222,3.366Zm-3.357-9.181q-.376.873-.863,2.121t-1.009,2.709h3.744q-.524-1.464-1.018-2.726T154.462,152.716Z" transform="translate(-53.469 -150.255)" fill="url(#k)"/><path d="M157.706,150.469a6.614,6.614,0,0,1,3.77.9,3.405,3.405,0,0,1-.976,5.895q.31.38.7.917c.265.361.533.755.8,1.178s.537.852.788,1.3.476.88.673,1.3h-2.315c-.209-.394-.434-.793-.673-1.192s-.483-.788-.732-1.168-.488-.732-.73-1.067-.464-.626-.671-.894c-.155.014-.286.019-.394.019h-1.316v4.3H154.57V150.748a11.563,11.563,0,0,1,1.609-.225Q157.034,150.47,157.706,150.469Zm.15,1.79c-.441,0-.844.014-1.217.047v3.678h.9a9.266,9.266,0,0,0,1.33-.082,2.755,2.755,0,0,0,.959-.293,1.4,1.4,0,0,0,.584-.577,1.886,1.886,0,0,0,.2-.917,1.829,1.829,0,0,0-.2-.887,1.469,1.469,0,0,0-.568-.575,2.649,2.649,0,0,0-.877-.3A6.311,6.311,0,0,0,157.856,152.259Z" transform="translate(-45.934 -150.321)" fill="url(#l)"/><path d="M167.906,150.518v1.79h-3.5V161.9h-2.085v-9.589h-3.5v-1.79Z" transform="translate(-40.207 -150.255)" fill="url(#m)"/><path d="M166.893,160.5a2.766,2.766,0,0,0,1.626-.38,1.254,1.254,0,0,0,.509-1.067,1.388,1.388,0,0,0-.174-.706,1.805,1.805,0,0,0-.493-.533,4.091,4.091,0,0,0-.781-.443c-.3-.138-.655-.27-1.051-.4s-.774-.3-1.14-.467a3.8,3.8,0,0,1-.969-.633,2.934,2.934,0,0,1-.673-.9,2.853,2.853,0,0,1-.256-1.264,2.986,2.986,0,0,1,1.067-2.426,4.468,4.468,0,0,1,2.909-.875,6.752,6.752,0,0,1,1.9.239,5.481,5.481,0,0,1,1.307.518l-.643,1.67a5.056,5.056,0,0,0-1.222-.476,5.659,5.659,0,0,0-1.37-.164,2.152,2.152,0,0,0-1.307.347,1.137,1.137,0,0,0-.467.969,1.277,1.277,0,0,0,.157.65,1.6,1.6,0,0,0,.441.481,4.042,4.042,0,0,0,.673.394,8.724,8.724,0,0,0,.845.347c.537.2,1.016.394,1.438.6a4.159,4.159,0,0,1,1.067.725,2.829,2.829,0,0,1,.666.985,3.662,3.662,0,0,1,.23,1.37,2.85,2.85,0,0,1-1.093,2.39,5.134,5.134,0,0,1-3.193.849,8.668,8.668,0,0,1-1.29-.092,7.716,7.716,0,0,1-1.034-.225,6.355,6.355,0,0,1-.781-.27,5.318,5.318,0,0,1-.523-.253l.605-1.691a7.224,7.224,0,0,0,1.2.49A5.83,5.83,0,0,0,166.893,160.5Z" transform="translate(-34.234 -150.406)" fill="url(#n)"/><path d="M177.882,161.9c-.155-.448-.312-.894-.476-1.332s-.324-.884-.479-1.342h-4.806c-.155.457-.31.905-.469,1.351s-.314.884-.469,1.323h-2.151q.64-1.819,1.215-3.366c.382-1.032.755-2,1.121-2.923s.732-1.8,1.091-2.627.734-1.654,1.117-2.463h1.977q.574,1.214,1.114,2.463t1.093,2.627c.366.92.744,1.891,1.131,2.923s.8,2.153,1.224,3.366Zm-3.357-9.181q-.376.873-.863,2.121t-1.011,2.709H176.4c-.352-.976-.69-1.884-1.02-2.726S174.767,153.274,174.526,152.716Z" transform="translate(-26.472 -150.255)" fill="url(#o)"/><path d="M182.3,161.9c-.371-.622-.788-1.3-1.246-2.01s-.936-1.44-1.429-2.167-.995-1.433-1.5-2.12-.995-1.3-1.452-1.848V161.9h-2.036V150.518h1.691q.654.686,1.412,1.635c.5.626,1.011,1.283,1.52,1.961s1,1.361,1.475,2.043.9,1.323,1.271,1.914v-7.553h2.053V161.9Z" transform="translate(-18.936 -150.255)" fill="url(#p)"/><path d="M189.733,156.263a6.578,6.578,0,0,1-.46,2.571,4.856,4.856,0,0,1-1.307,1.825,5.381,5.381,0,0,1-2.036,1.079,9.106,9.106,0,0,1-2.634.354q-.69,0-1.56-.056a10.811,10.811,0,0,1-1.658-.237V150.748a10.046,10.046,0,0,1,1.675-.23c.591-.031,1.119-.049,1.576-.049a9.581,9.581,0,0,1,2.611.333,5.352,5.352,0,0,1,2.027,1.056,4.707,4.707,0,0,1,1.307,1.8A6.672,6.672,0,0,1,189.733,156.263Zm-7.586,3.993c.122.009.279.016.476.021s.464.009.8.009a4.153,4.153,0,0,0,3.113-1.058,4.846,4.846,0,0,0,.023-5.937,4.152,4.152,0,0,0-3.1-1.032,12.244,12.244,0,0,0-1.316.047Z" transform="translate(-11.607 -150.321)" fill="url(#q)"/><path d="M190.54,150.469a6.723,6.723,0,0,1,3.8.9,3.181,3.181,0,0,1,1.323,2.827,3.845,3.845,0,0,1-.352,1.712,3,3,0,0,1-1.027,1.168,4.792,4.792,0,0,1-1.642.664,10.318,10.318,0,0,1-2.214.211h-1.037v4.009h-2.069V150.748a10.626,10.626,0,0,1,1.6-.225Q189.8,150.47,190.54,150.469Zm.148,1.79c-.525,0-.957.014-1.3.047v3.875h1a5.08,5.08,0,0,0,2.3-.415,1.62,1.62,0,0,0,.8-1.586,1.879,1.879,0,0,0-.213-.936,1.524,1.524,0,0,0-.591-.591,2.761,2.761,0,0,0-.9-.3A6.342,6.342,0,0,0,190.688,152.259Z" transform="translate(-1.858 -150.321)" fill="url(#r)"/><path d="M199.143,160.105V161.9h-7.194V150.518h2.069v9.587Z" transform="translate(4.368 -150.255)" fill="url(#s)"/><path d="M204.431,161.9c-.152-.448-.31-.894-.476-1.332s-.321-.884-.476-1.342H198.67c-.153.457-.307.905-.467,1.351s-.317.884-.469,1.323h-2.151q.64-1.819,1.215-3.366c.382-1.032.755-2,1.121-2.923s.732-1.8,1.091-2.627.732-1.654,1.117-2.463H202.1q.574,1.214,1.117,2.463t1.093,2.627c.366.92.744,1.891,1.131,2.923s.8,2.153,1.224,3.366Zm-3.354-9.181q-.38.873-.863,2.121t-1.011,2.709h3.746c-.352-.976-.69-1.884-1.02-2.726S201.316,153.274,201.077,152.716Z" transform="translate(9.259 -150.255)" fill="url(#t)"/><path d="M204.538,160.5a2.761,2.761,0,0,0,1.626-.38,1.248,1.248,0,0,0,.509-1.067,1.387,1.387,0,0,0-.171-.706,1.837,1.837,0,0,0-.493-.533,4.16,4.16,0,0,0-.781-.443c-.307-.138-.654-.27-1.051-.4s-.774-.3-1.142-.467a3.8,3.8,0,0,1-.969-.633,2.936,2.936,0,0,1-.673-.9,2.886,2.886,0,0,1-.253-1.264,2.979,2.979,0,0,1,1.067-2.426,4.465,4.465,0,0,1,2.906-.875,6.769,6.769,0,0,1,1.9.239,5.458,5.458,0,0,1,1.3.518l-.64,1.67a5.039,5.039,0,0,0-1.225-.476,5.631,5.631,0,0,0-1.37-.164,2.144,2.144,0,0,0-1.3.347,1.131,1.131,0,0,0-.467.969,1.275,1.275,0,0,0,.155.65,1.611,1.611,0,0,0,.443.481,3.949,3.949,0,0,0,.673.394,8.493,8.493,0,0,0,.844.347c.535.2,1.016.394,1.436.6a4.118,4.118,0,0,1,1.067.725,2.869,2.869,0,0,1,.669.985,3.664,3.664,0,0,1,.228,1.37,2.843,2.843,0,0,1-1.093,2.39,5.124,5.124,0,0,1-3.193.849,8.692,8.692,0,0,1-1.29-.092,7.679,7.679,0,0,1-1.032-.225,6.36,6.36,0,0,1-.781-.27,5.4,5.4,0,0,1-.525-.253l.608-1.691a7.227,7.227,0,0,0,1.2.49A5.815,5.815,0,0,0,204.538,160.5Z" transform="translate(16.426 -150.406)" fill="url(#u)"/><path d="M213.916,150.518v1.79h-3.5V161.9h-2.085v-9.589h-3.5v-1.79Z" transform="translate(21.711 -150.255)" fill="url(#v)"/><path d="M209.646,150.518h2.067V161.9h-2.067Z" transform="translate(28.184 -150.255)" fill="url(#w)"/><path d="M217.257,162.3a6.275,6.275,0,0,1-2.3-.4,4.577,4.577,0,0,1-1.724-1.154,5.179,5.179,0,0,1-1.084-1.865,7.744,7.744,0,0,1-.378-2.531,6.824,6.824,0,0,1,.436-2.529,5.458,5.458,0,0,1,1.189-1.865,5.045,5.045,0,0,1,1.773-1.154,5.947,5.947,0,0,1,2.184-.394,6.912,6.912,0,0,1,1.281.106,9.639,9.639,0,0,1,1,.239,3.879,3.879,0,0,1,.706.279c.185.1.317.169.394.211l-.608,1.694a5.022,5.022,0,0,0-1.126-.471,5.506,5.506,0,0,0-1.583-.221,3.718,3.718,0,0,0-1.379.258,3.009,3.009,0,0,0-1.11.76,3.59,3.59,0,0,0-.73,1.283,5.525,5.525,0,0,0-.263,1.792,6.476,6.476,0,0,0,.2,1.658,3.714,3.714,0,0,0,.633,1.3,2.827,2.827,0,0,0,1.084.858,3.78,3.78,0,0,0,1.576.3,6.067,6.067,0,0,0,1.79-.218,7.275,7.275,0,0,0,1.067-.422l.558,1.691a2.608,2.608,0,0,1-.532.265,7.957,7.957,0,0,1-.8.251,6.874,6.874,0,0,1-1.034.2A9.2,9.2,0,0,1,217.257,162.3Z" transform="translate(31.046 -150.406)" fill="url(#x)"/><path d="M221.842,160.5a2.761,2.761,0,0,0,1.626-.38,1.248,1.248,0,0,0,.509-1.067,1.388,1.388,0,0,0-.171-.706,1.839,1.839,0,0,0-.493-.533,4.162,4.162,0,0,0-.781-.443c-.307-.138-.657-.27-1.053-.4s-.774-.3-1.14-.467a3.8,3.8,0,0,1-.969-.633,2.936,2.936,0,0,1-.673-.9,2.887,2.887,0,0,1-.253-1.264,2.979,2.979,0,0,1,1.067-2.426,4.457,4.457,0,0,1,2.906-.875,6.74,6.74,0,0,1,1.9.239,5.481,5.481,0,0,1,1.307.518l-.64,1.67a5.074,5.074,0,0,0-1.225-.476,5.645,5.645,0,0,0-1.37-.164,2.139,2.139,0,0,0-1.3.347,1.133,1.133,0,0,0-.469.969,1.277,1.277,0,0,0,.157.65,1.632,1.632,0,0,0,.441.481,4.042,4.042,0,0,0,.673.394,8.785,8.785,0,0,0,.847.347c.535.2,1.013.394,1.436.6a4.118,4.118,0,0,1,1.067.725,2.83,2.83,0,0,1,.666.985,3.616,3.616,0,0,1,.23,1.37,2.843,2.843,0,0,1-1.093,2.39,5.129,5.129,0,0,1-3.193.849,8.692,8.692,0,0,1-1.29-.092,7.6,7.6,0,0,1-1.032-.225,6.224,6.224,0,0,1-.781-.27,5.394,5.394,0,0,1-.525-.253l.608-1.691a7.274,7.274,0,0,0,1.2.49A5.83,5.83,0,0,0,221.842,160.5Z" transform="translate(39.713 -150.406)" fill="url(#y)"/><path d="M227.061,162.146a5.341,5.341,0,0,1-2-.34,3.673,3.673,0,0,1-2.2-2.374,5.859,5.859,0,0,1-.263-1.8v-7.11h2.083v6.913a4.417,4.417,0,0,0,.176,1.318,2.264,2.264,0,0,0,.493.9,1.961,1.961,0,0,0,.753.509,2.743,2.743,0,0,0,.978.164,2.8,2.8,0,0,0,.985-.164,1.959,1.959,0,0,0,.762-.509,2.265,2.265,0,0,0,.493-.9,4.349,4.349,0,0,0,.174-1.318v-6.913h2.085v7.11a5.717,5.717,0,0,1-.27,1.8,3.953,3.953,0,0,1-.823,1.431,3.673,3.673,0,0,1-1.405.943A5.461,5.461,0,0,1,227.061,162.146Z" transform="translate(45.61 -150.255)" fill="url(#z)"/><path d="M230.953,150.469a6.614,6.614,0,0,1,3.77.9,3.405,3.405,0,0,1-.976,5.895q.31.38.706.917c.263.361.53.755.8,1.178s.537.852.788,1.3.476.88.673,1.3H234.4c-.209-.394-.434-.793-.673-1.192s-.483-.788-.732-1.168-.488-.732-.73-1.067-.464-.626-.671-.894c-.155.014-.286.019-.394.019h-1.316v4.3h-2.069V150.748a11.562,11.562,0,0,1,1.609-.225Q230.281,150.47,230.953,150.469Zm.15,1.79c-.441,0-.844.014-1.217.047v3.678h.9a9.266,9.266,0,0,0,1.33-.082,2.784,2.784,0,0,0,.962-.293,1.427,1.427,0,0,0,.584-.577,1.912,1.912,0,0,0,.2-.917,1.855,1.855,0,0,0-.2-.887,1.49,1.49,0,0,0-.57-.575,2.649,2.649,0,0,0-.877-.3A6.311,6.311,0,0,0,231.1,152.259Z" transform="translate(52.637 -150.321)" fill="url(#aa)"/><path d="M238.084,152.231a3.332,3.332,0,0,0-2.686,1.088,4.533,4.533,0,0,0-.927,3.028,6.091,6.091,0,0,0,.221,1.682,3.664,3.664,0,0,0,.659,1.307,2.982,2.982,0,0,0,1.081.847,3.574,3.574,0,0,0,1.52.3c.361,0,.673-.014.936-.04a3.814,3.814,0,0,0,.624-.106v-4.089h2.069v5.468a10.013,10.013,0,0,1-1.445.361,12.455,12.455,0,0,1-2.348.2,6.239,6.239,0,0,1-2.25-.394,4.667,4.667,0,0,1-1.733-1.149,5.241,5.241,0,0,1-1.107-1.855,7.487,7.487,0,0,1-.394-2.531,6.873,6.873,0,0,1,.434-2.529,5.5,5.5,0,0,1,1.192-1.865A5.045,5.045,0,0,1,235.7,150.8a5.905,5.905,0,0,1,2.167-.394,8.1,8.1,0,0,1,1.4.106,10.051,10.051,0,0,1,1.06.239,3.973,3.973,0,0,1,.729.279c.192.1.326.169.4.211l-.624,1.694a5.011,5.011,0,0,0-1.222-.5A5.611,5.611,0,0,0,238.084,152.231Z" transform="translate(58.676 -150.406)" fill="url(#ab)"/><path d="M237.547,161.9V150.518h7.307v1.759h-5.238v2.8h4.663v1.726h-4.663v3.331h5.632V161.9Z" transform="translate(65.731 -150.255)" fill="url(#ac)"/><path d="M245.051,150.469a6.605,6.605,0,0,1,3.767.9,3.4,3.4,0,0,1-.976,5.895c.206.253.443.558.706.917s.533.755.8,1.178.535.852.788,1.3.476.88.673,1.3H248.5c-.209-.394-.434-.793-.673-1.192s-.483-.788-.732-1.168-.488-.732-.73-1.067-.467-.626-.673-.894c-.152.014-.286.019-.394.019h-1.314v4.3h-2.069V150.748a11.513,11.513,0,0,1,1.609-.225Q244.379,150.47,245.051,150.469Zm.148,1.79c-.439,0-.842.014-1.215.047v3.678h.9a9.287,9.287,0,0,0,1.33-.082,2.755,2.755,0,0,0,.959-.293,1.4,1.4,0,0,0,.584-.577,1.885,1.885,0,0,0,.2-.917,1.828,1.828,0,0,0-.2-.887,1.469,1.469,0,0,0-.568-.575,2.648,2.648,0,0,0-.877-.3A6.358,6.358,0,0,0,245.2,152.259Z" transform="translate(71.609 -150.321)" fill="url(#ad)"/><path d="M251.122,155.557c.493-.821.974-1.649,1.445-2.491s.9-1.7,1.281-2.547h2.3c-.61,1.159-1.25,2.313-1.912,3.453s-1.37,2.3-2.125,3.46V161.9h-2.069v-4.433Q248.9,155.7,247.9,153.98t-1.921-3.462h2.43c.385.851.8,1.7,1.264,2.547S250.617,154.736,251.122,155.557Z" transform="translate(77.083 -150.255)" fill="url(#ae)"/></g></g></g></svg>