<svg xmlns="http://www.w3.org/2000/svg" width="197.993" height="218" viewBox="0 0 197.993 218"><g transform="translate(-403.231 -150.981)"><path d="M460.015,245.609c14.867-2.917,48.8-24.286,13.479-24.991-12.612-.251-25.39,6.475-33.826,14.859-2.34,2.745-1.376,4.947-.093,7.765-8.853-.468-5.814-9.028-1.509-13.268,13.348-13.145,70.213-17.8,51.045,7.845-4.324,5.785-17.345,7.159-15.638,9.386,21.189.508,15.926,18.341,3.762,25.873-13.3,7.714-27.735,12.52-43.19,16.579-46.848,9.543-33.781-19.631-3.81-27.437l-.016-.018c-53.741,30.229-6.469,27.855,24.215,14.824,11.357-5.169,48.843-24.013,16.518-28.914-14.535-1.3-19.729,6.645-26.586,14.89-1.815,3.385-5.251,6.886,1.513,4.719-1.109,2-5.977,4.775-7.775,1.514,2.536-11.068,9.306-18.659,15.741-26.59,5.505-6.786,9.426-9.942,15.578-14.311,2.432-1.727,7.284.208,7.841,2.336-4.434.654-6.316,4.068-9.347,6.336C465.594,238.6,459.536,246.07,460.015,245.609Z" transform="translate(0 -21.508)" fill="#fff"/><path d="M595.966,276.618c-14.876,15.559-42.16,19.155-18.757-7.7,3.864-3.762,24.6-14.114,19.6-1.67-4.06,7.079-11.977,9.983-19.669,12.479-8.391,7.686,3.707,7.29,7.847,2.432a72.688,72.688,0,0,0,14.934-11.022c2.852-3.819,10.009-15.606,13.288-5.505-3.577-.248-11.211,12.685-7.777,8.681,5.65-4.237,10.354-9.818,17.257-12.645,3.2-2.226,6.606,3.692,2.427,4.783-.852,1.809-10.606,11.763-4.776,9.413,5.735-1,7.488-6.039,10.269-10.151,3.993-3.12,20.414-10.944,16.47.727-.785,2.394-7.791,6.225-3.925,1.566,6.483-4.75-.942-4.255-3.984-.9-2.552,1.251-10.931,5.725-6.3,8.736,2.22-.132,27.587-10.607,18.115-5.46-27.722,9.476-7.331,5.742-18.084,15.684-13.426,9.4-19.717-.44-3.93-7.122,4.2-2.294.329-2.78-.828-6.183-2.952,2.1-6.337,4.168-9.421,6.179-6.392,1.318-6.475-5.153-3.873-8.542,2.768-2.32.986-1.964-2.446.661-6.59,5.04-13.571,10.875-16.433,18.91C586.365,290.392,597.78,275.255,595.966,276.618Zm26.7,8.589c3.645-.778,7.573-3.016,9.4-6.176A42.24,42.24,0,0,0,622,285.681C622.222,286.293,622.785,285.625,622.67,285.207Zm-41.633-10.989c-8.481,8.722,13.72-5.119,13.5-9.337C593.848,261.615,582.478,271.773,581.036,274.218Z" transform="translate(-51.88 -34.385)" fill="#fff"/><path d="M526.046,320.965l1.571.294a10.681,10.681,0,0,0,2.64-1.968,73.825,73.825,0,0,1,15.317-19.629c8.8-10.52-6.446,3.7-10.066,7.276-5.3,5.97,13.352-25.023,18.052-30.71,3.748-4.789,6.136-8.761,10.885-10.959-1.315-1.554-3.551-5.783-6.993-2.771-6.462,4.674-20.4,24.629-24.408,20.719,2.449-7.06,7.626-13.926,13.332-17.17-8.2-18.577-40.908,51.418-.73,10.94C547.293,277.665,521.475,309.272,526.046,320.965Z" transform="translate(-38.479 -34.762)" fill="#fff"/><path d="M55.676,97.095c.488-2.731,15.3-50.971-3.236-80.191.456-1.058,1.618-.279,1.618-.279S72.86,35.472,60.53,94.86a6.012,6.012,0,0,0,2.292,4.89S90.8,89.269,88.709,13.831a27.563,27.563,0,0,1,5.124-1.816s-.954,80.276-30.338,92.2a5.527,5.527,0,0,1-2.113.449C57.357,104.668,55.255,99.444,55.676,97.095ZM14.821,89.83C6.51,87.194,4.633,73.776.664,53.647s11.123-43.6,12-45.684-2.022-4.75-2.022-4.75L14.282,0a35.567,35.567,0,0,1,3.506,5.308c.77,1.819,2.043,4.4.54,6.147S7.568,22.262,4.574,41.771s7.551,37.861,7.551,37.861.949.62,2.023,1.258c4.7-17.294,20.188-53.365,23.191-54.066-11.7,20.043-20.63,61.051-20.63,61.051s-.466,2.081-1.456,2.081A.873.873,0,0,1,14.821,89.83Z" transform="translate(452.009 264.313)" fill="#fff"/><path d="M470.275,201.858c-4.422,17.56-6.918-1.748-3.028-9.332,9.836-20.133,56.435-2.273,83.212-8.6-10.6,6.207-27.892,5.145-42.334,3.829C492.947,186.375,473.489,187.261,470.275,201.858Z" transform="translate(-19.539 -9.956)" fill="#fff"/><g transform="translate(503.732 197.486)"><path d="M569.084,220.782a3.057,3.057,0,0,1-.547,1.552,2.73,2.73,0,0,1-1.02,1.126q-.563.3-.563-.06a2.364,2.364,0,0,1,.334-.366q1.005-.943,1-1.552,0-1.309-2.586-1.308a14.867,14.867,0,0,0-6.36,1.735q-1.948,1.065-1.947,1.856,0,.639,1.186,1.217.639.305,2.541,1.02t3.073,1.247a8.359,8.359,0,0,1,2.222,1.507,2.9,2.9,0,0,1,1.05,2.16,3.9,3.9,0,0,1-1.4,2.587,16.97,16.97,0,0,1-5.539,3.393,16.341,16.341,0,0,1-5.843,1.354q-4.808,0-4.807-2.708t2.951-4.595a8.888,8.888,0,0,1,5.112-1.674q.639,0,.578.213c-.04.143-.345.219-.913.228a6.285,6.285,0,0,0-2.191.578,8.589,8.589,0,0,0-2.5,1.628,3.806,3.806,0,0,0-1.521,2.738,1.938,1.938,0,0,0,.822,1.521,5.216,5.216,0,0,0,3.134.67,14.7,14.7,0,0,0,4.565-.731q4.867-1.612,6.086-3.53a2.226,2.226,0,0,0,.487-1.186,2.438,2.438,0,0,0-1.7-2.191,56.419,56.419,0,0,0-5.539-2.1,7.757,7.757,0,0,1-2.328-1.2,2.213,2.213,0,0,1-.958-1.8,2.847,2.847,0,0,1,1.141-2.069,8.67,8.67,0,0,1,2.754-1.628,17.234,17.234,0,0,1,5.873-1.309Q569.084,219.108,569.084,220.782Z" transform="translate(-549.883 -218.926)" fill="#fff"/><path d="M581.788,230.383q2.343-.213,2.845-.213t.5.152q0,.183-.715.38a30.177,30.177,0,0,1-3.484.5q-.153.273-.366.639a4.775,4.775,0,0,0-.487.883,18.76,18.76,0,0,0-1.826,4.412,6.691,6.691,0,0,0-.03.7,1.012,1.012,0,0,0,.244.7q.426.487,1.217.061a12.831,12.831,0,0,0,2.206-1.7,16.4,16.4,0,0,0,2.3-2.5.224.224,0,0,1,.3-.061q.456.214-1.583,2.4a9.778,9.778,0,0,1-3.256,2.587,3.927,3.927,0,0,1-1.278.274,1.565,1.565,0,0,1-1.612-1.157,1.88,1.88,0,0,1-.06-.517,8.925,8.925,0,0,1,.974-3.226,9.865,9.865,0,0,1-1.188,1.521q-.273.305-.426,0a.371.371,0,0,1-.031-.167.453.453,0,0,1,.122-.258q1.491-1.855,2.343-3.135,0-.03.67-1.278a3.136,3.136,0,0,1-.624.061.556.556,0,0,1-.471-.2.435.435,0,0,1-.031-.472q.213-.486,1.612-.548a.123.123,0,0,1,.122-.061l1.521-2.83q.121-.244.274-.5c.1-.172.177-.3.228-.4s.106-.188.167-.289a1.18,1.18,0,0,1,.152-.213l.122-.122q.121-.182.716-.182a.882.882,0,0,1,.806.335.705.705,0,0,1,.091.41,1.258,1.258,0,0,1-.212.639,1.5,1.5,0,0,1-.456.5.883.883,0,0,0-.336.334l-1.46,2.556Z" transform="translate(-558.113 -220.98)" fill="#fff"/><path d="M594.123,232.075q1.644,0,1.644,1.582A1.952,1.952,0,0,1,595.31,235a6.155,6.155,0,0,1-2.465,1.963,8.3,8.3,0,0,1-2.891.929c-.284.02-.437-.061-.456-.244-.021-.08,0-.132.077-.151a.633.633,0,0,1,.167-.031,4.828,4.828,0,0,0,1.795-.67,9.806,9.806,0,0,0,2.982-2.252,1.81,1.81,0,0,0,.4-1.05.437.437,0,0,0-.487-.5,2.591,2.591,0,0,0-1.065.334,10.49,10.49,0,0,0-3.013,2.328,8.431,8.431,0,0,0-2.069,3.241,3.181,3.181,0,0,0-.152.959,1.308,1.308,0,0,0,.4.9,1.584,1.584,0,0,0,1.218.427,5.651,5.651,0,0,0,2.1-.487,11.165,11.165,0,0,0,5.3-4.23c.121-.162.233-.193.334-.092.081.041.122.092.122.153a.378.378,0,0,1-.091.212,10.872,10.872,0,0,1-2.313,2.708,8.233,8.233,0,0,1-5.264,2.313,3.435,3.435,0,0,1-3.074-1.308,2.246,2.246,0,0,1-.334-1.248,4.862,4.862,0,0,1,.4-1.734,9.542,9.542,0,0,1,3.256-3.56Q592.662,232.074,594.123,232.075Z" transform="translate(-561.411 -223.006)" fill="#fff"/><path d="M603.036,233.319q0-1.461-.852-1.461a1.708,1.708,0,0,0-.38.046c-.132.031-.2.005-.2-.076a.5.5,0,0,1,.183-.3,3.168,3.168,0,0,1,1.247-.243q1.278,0,1.6.365a1.112,1.112,0,0,1,.32.73,7.527,7.527,0,0,1-.563,1.811q-.564,1.446-.594,1.507a11.3,11.3,0,0,0-.822,3.438q2.738-3.681,3.591-4.595,1.795-1.978,2.556-2.708a11.667,11.667,0,0,1,3.1-2.221,1.989,1.989,0,0,1,.7-.152,1.465,1.465,0,0,1,1.369.609.472.472,0,0,1,.121.289.733.733,0,0,1-.09.319c-.061.121-.173.116-.336-.016a1.966,1.966,0,0,0-1.1-.2q-1.4,0-4.686,3.287a43.313,43.313,0,0,0-3.637,4.26,8.732,8.732,0,0,0-1.78,3.165q0,.244-.456.243a.748.748,0,0,1-.685-.38,1.324,1.324,0,0,1-.228-.639,2.992,2.992,0,0,1,.03-.456q.031-.2.609-2.237t.731-2.708q-.365.61-1,1.491c-.142.162-.259.208-.35.137s-.137-.137-.137-.2a.481.481,0,0,1,.061-.212A11.591,11.591,0,0,0,603.036,233.319Z" transform="translate(-566.064 -222.182)" fill="#fff"/><path d="M622.275,232.075q1.643,0,1.643,1.582a1.951,1.951,0,0,1-.456,1.339A6.143,6.143,0,0,1,621,236.958a8.3,8.3,0,0,1-2.891.929c-.284.02-.437-.061-.456-.244-.021-.08,0-.132.076-.151a.632.632,0,0,1,.167-.031,4.82,4.82,0,0,0,1.795-.67,9.8,9.8,0,0,0,2.983-2.252,1.815,1.815,0,0,0,.4-1.05.437.437,0,0,0-.487-.5,2.594,2.594,0,0,0-1.065.334,10.5,10.5,0,0,0-3.013,2.328,8.442,8.442,0,0,0-2.07,3.241,3.2,3.2,0,0,0-.151.959,1.305,1.305,0,0,0,.4.9,1.582,1.582,0,0,0,1.217.427,5.648,5.648,0,0,0,2.1-.487,11.164,11.164,0,0,0,5.3-4.23c.122-.162.233-.193.334-.092.082.041.122.092.122.153a.379.379,0,0,1-.091.212,10.841,10.841,0,0,1-2.313,2.708,8.231,8.231,0,0,1-5.264,2.313A3.437,3.437,0,0,1,615,240.443a2.246,2.246,0,0,1-.334-1.248,4.859,4.859,0,0,1,.4-1.734,9.542,9.542,0,0,1,3.256-3.56Q620.813,232.074,622.275,232.075Z" transform="translate(-570.27 -223.006)" fill="#fff"/><path d="M637.522,232.385q.7,0,.7.746a4.811,4.811,0,0,1-.7,2.055,23.612,23.612,0,0,0-1.034,2.13,6.279,6.279,0,0,0-.578,2.236,1.765,1.765,0,0,0,.243,1.111q.456.487,1.248.046a14.006,14.006,0,0,0,2.206-1.7,14.674,14.674,0,0,0,2.267-2.48.222.222,0,0,1,.289-.076c.111.051.167.1.167.152a.3.3,0,0,1-.061.167,11.808,11.808,0,0,1-1.643,2.1,15.106,15.106,0,0,1-2.282,2.055,3.738,3.738,0,0,1-2.161.776,2.072,2.072,0,0,1-1.46-.471,1.532,1.532,0,0,1-.427-1.111,6.709,6.709,0,0,1,.122-1.293,7.943,7.943,0,0,1,.456-1.446,20.536,20.536,0,0,1,.959-2.039,2.769,2.769,0,0,0,.411-.958c0-.152-.081-.228-.243-.228q-.487,0-1.856,1.186a28.643,28.643,0,0,0-2.785,3.333,24.332,24.332,0,0,1-2.084,2.6,4.811,4.811,0,0,1-1.37.547c-.182,0-.273-.03-.273-.09a.827.827,0,0,1,.061-.259q.061-.168.593-1.658t1.156-3.272q.624-1.779.761-2.145a3.549,3.549,0,0,0,.182-.624,3.1,3.1,0,0,1,.107-.441,1.529,1.529,0,0,1,.228-.41.564.564,0,0,1,.441-.244,3.14,3.14,0,0,1,.7.061q.426.076.426.38a3.088,3.088,0,0,1-.335.928q-.335.715-1.917,4.915,1.1-1.339,2.769-3.089a29.106,29.106,0,0,1,2.83-2.663A3.6,3.6,0,0,1,637.522,232.385Z" transform="translate(-574.351 -223.104)" fill="#fff"/><path d="M662.863,221.733a6.716,6.716,0,0,1,4.2-2.039,16.646,16.646,0,0,1,2.678-.213,17.2,17.2,0,0,1,2.83.244,2.216,2.216,0,0,1,1.612-.883.333.333,0,0,1,.289.107.178.178,0,0,1-.015.228.875.875,0,0,1-.411.228,2.4,2.4,0,0,0-.745.471,9.929,9.929,0,0,1,1.43.5,1.48,1.48,0,0,1,.594.5,1.017,1.017,0,0,1,.2.426c0,.182-.28.182-.837,0a11.151,11.151,0,0,0-1.963-.426,29.081,29.081,0,0,0-1.157,3.591q-.609,2.282-.73,2.738a11.9,11.9,0,0,1,2.206-.4,1.744,1.744,0,0,1,.685.076.269.269,0,0,1,.137.2.252.252,0,0,1-.046.2c-.04.051-.106.056-.2.016a1.391,1.391,0,0,0-.5-.061,6.785,6.785,0,0,0-1.369.258q-1,.259-1.187.776-2.8,7.7-7.12,10.712a6.2,6.2,0,0,1-3.5,1.369,3.26,3.26,0,0,1-1.1-.183,2.176,2.176,0,0,1-1.552-2.3,6.228,6.228,0,0,1,1.856-3.91,21.718,21.718,0,0,1,10.1-6.3q.091-.273.578-1.795a26.209,26.209,0,0,1,1.978-5.051h-1.1a19.83,19.83,0,0,0-2.069.151,8.727,8.727,0,0,0-4.9,1.734,2.261,2.261,0,0,0-.761,1.673,1.388,1.388,0,0,0,.258.822,1.886,1.886,0,0,0,.5.517,8.845,8.845,0,0,0,1.065.609c.243.182.293.294.151.334a.88.88,0,0,1-.213-.031,3.505,3.505,0,0,1-1.552-.882,2.3,2.3,0,0,1-.852-1.674,2.161,2.161,0,0,1-.091-.548A2.862,2.862,0,0,1,662.863,221.733Zm-3.986,15.915a3.757,3.757,0,0,0,.06.67,1.425,1.425,0,0,0,1.522,1.156q1.795,0,3.773-2.4a29.938,29.938,0,0,0,4.839-8.825,17.309,17.309,0,0,0-8.429,5.63A6.382,6.382,0,0,0,658.876,237.648Z" transform="translate(-583.685 -218.842)" fill="#fff"/><path d="M687.3,242.958v.517a1.561,1.561,0,0,1-.334.7q-.335.487-.517.487-1,0-1-.487,0-.243.609-.73a3.19,3.19,0,0,1,1.049-.67C687.236,242.776,687.3,242.837,687.3,242.958Z" transform="translate(-592.544 -226.374)" fill="#fff"/></g><g transform="translate(539.006 258.785)"><path d="M601.4,314.52l-.044-.357a3.724,3.724,0,0,1,1.33-2.8q2.376-2.169,7.673-2.684.806-.068,1.886-.068a14.749,14.749,0,0,1,2.735.325,6.067,6.067,0,0,1,2.725,1.2,4.661,4.661,0,0,1,1.7,3.746,7.4,7.4,0,0,1-1.341,4.272,9.228,9.228,0,0,1-3.411,3.03,9.472,9.472,0,0,1-4.425,1.073,6.02,6.02,0,0,1-3.815-1.14c-.014.016-.084.142-.207.38s-.251.47-.382.694q-1,1.632-1.787.447a2.929,2.929,0,0,1-.458-1.654,16.626,16.626,0,0,1,.2-2.326,1.73,1.73,0,0,0-.175-.626.448.448,0,0,1,.152-.448,1.482,1.482,0,0,1,.491-.223c.21-.06.356-.06.436,0s.062.22-.054.481a1.8,1.8,0,0,0-.175.727q0,.335.676,1a3.983,3.983,0,0,0,.828.7q.523-1.319,2.224-4.942a1.564,1.564,0,0,0,.2-.6.9.9,0,0,0-.044-.313,5.371,5.371,0,0,1,1.384-2.057q1.276-1.409,2.06-1.408a1.91,1.91,0,0,1,.763.212.819.819,0,0,1,.524.593c0,.088-.007.138-.022.145s-.052,0-.109-.033a.325.325,0,0,0-.131-.045,2.545,2.545,0,0,0-1.646,1.04,14.636,14.636,0,0,0-1.885,2.717q-1.657,2.907-2.66,5.143a4.825,4.825,0,0,0,2.943,1.006,7.814,7.814,0,0,0,3.967-1.1,10.806,10.806,0,0,0,3.052-2.527,7.459,7.459,0,0,0,1.874-4.629,4.165,4.165,0,0,0-1.3-3,5.828,5.828,0,0,0-4.108-1.408h-.262a16.12,16.12,0,0,0-4.686.748,12.554,12.554,0,0,0-4.208,2.136,3.812,3.812,0,0,0-1.743,2.884,1.053,1.053,0,0,0,.229.672,1.314,1.314,0,0,0,.479.4q.251.112.632.246c.254.089.421.153.5.19a.247.247,0,0,1,.143.123c.028.119-.073.179-.306.179a3.425,3.425,0,0,1-1.624-.615,1.556,1.556,0,0,1-.817-1.286A1.14,1.14,0,0,1,601.4,314.52Zm2.943,4.9q0,3.018.414,3.019.305,0,.872-1.565a.233.233,0,0,0,.043-.09q-.152-.135-.643-.66T604.342,319.418Z" transform="translate(-601.355 -308.393)" fill="#fff"/><path d="M630.8,325.818v.38a1.158,1.158,0,0,1-.24.514c-.16.238-.283.358-.37.358-.48,0-.719-.12-.719-.358q0-.179.435-.537a2.284,2.284,0,0,1,.752-.491C630.756,325.684,630.8,325.729,630.8,325.818Z" transform="translate(-610.204 -313.764)" fill="#fff"/><path d="M634.8,314.52l-.043-.357a3.724,3.724,0,0,1,1.329-2.8q2.377-2.169,7.673-2.684.806-.068,1.886-.068a14.763,14.763,0,0,1,2.735.325,6.069,6.069,0,0,1,2.725,1.2,4.66,4.66,0,0,1,1.7,3.746,7.4,7.4,0,0,1-1.341,4.272,9.228,9.228,0,0,1-3.411,3.03,9.47,9.47,0,0,1-4.425,1.073,6.017,6.017,0,0,1-3.814-1.14c-.015.016-.084.142-.208.38s-.25.47-.382.694q-1,1.632-1.787.447a2.936,2.936,0,0,1-.458-1.654,16.722,16.722,0,0,1,.2-2.326,1.7,1.7,0,0,0-.175-.626.449.449,0,0,1,.153-.448,1.477,1.477,0,0,1,.491-.223c.21-.06.356-.06.435,0s.062.22-.054.481a1.8,1.8,0,0,0-.174.727q0,.335.676,1a3.946,3.946,0,0,0,.828.7q.523-1.319,2.223-4.942a1.564,1.564,0,0,0,.2-.6.906.906,0,0,0-.043-.313,5.367,5.367,0,0,1,1.384-2.057q1.276-1.409,2.06-1.408a1.907,1.907,0,0,1,.763.212.817.817,0,0,1,.524.593c0,.088-.007.138-.021.145s-.051,0-.109-.033a.328.328,0,0,0-.132-.045,2.544,2.544,0,0,0-1.645,1.04,14.63,14.63,0,0,0-1.885,2.717q-1.658,2.907-2.66,5.143a4.822,4.822,0,0,0,2.943,1.006,7.816,7.816,0,0,0,3.967-1.1,10.8,10.8,0,0,0,3.052-2.527,7.459,7.459,0,0,0,1.874-4.629,4.164,4.164,0,0,0-1.3-3,5.831,5.831,0,0,0-4.108-1.408h-.262a16.129,16.129,0,0,0-4.687.748,12.568,12.568,0,0,0-4.208,2.136,3.812,3.812,0,0,0-1.743,2.884,1.057,1.057,0,0,0,.229.672,1.312,1.312,0,0,0,.48.4q.251.112.632.246c.255.089.421.153.5.19a.248.248,0,0,1,.142.123c.029.119-.073.179-.305.179a3.42,3.42,0,0,1-1.624-.615,1.556,1.556,0,0,1-.818-1.286A1.2,1.2,0,0,1,634.8,314.52Zm2.943,4.9q0,3.018.415,3.019.305,0,.872-1.565a.238.238,0,0,0,.044-.09c-.1-.09-.316-.309-.643-.66S637.871,319.538,637.74,319.418Z" transform="translate(-611.866 -308.393)" fill="#fff"/><path d="M664.2,325.818v.38a1.162,1.162,0,0,1-.24.514c-.16.238-.283.358-.37.358-.48,0-.72-.12-.72-.358q0-.179.436-.537a2.29,2.29,0,0,1,.752-.491C664.154,325.684,664.2,325.729,664.2,325.818Z" transform="translate(-620.714 -313.764)" fill="#fff"/><path d="M679.84,309.52a2.281,2.281,0,0,1-.393,1.14,1.986,1.986,0,0,1-.73.828c-.269.149-.4.134-.4-.044a1.691,1.691,0,0,1,.239-.269,1.877,1.877,0,0,0,.72-1.14q0-.962-1.853-.961a10.434,10.434,0,0,0-4.555,1.275q-1.4.783-1.4,1.364,0,.47.851.9.457.224,1.819.749t2.2.917a5.971,5.971,0,0,1,1.591,1.107,2.157,2.157,0,0,1,.752,1.588,2.887,2.887,0,0,1-1,1.9,12.1,12.1,0,0,1-3.967,2.493,11.445,11.445,0,0,1-4.186,1q-3.444,0-3.444-1.99a4,4,0,0,1,2.114-3.377,6.258,6.258,0,0,1,3.663-1.23c.3,0,.443.053.413.157s-.247.16-.654.168a4.408,4.408,0,0,0-1.569.425,6.136,6.136,0,0,0-1.787,1.2,2.819,2.819,0,0,0-1.09,2.013,1.438,1.438,0,0,0,.588,1.118,3.668,3.668,0,0,0,2.246.491,10.284,10.284,0,0,0,3.27-.536q3.488-1.185,4.359-2.594a1.662,1.662,0,0,0,.349-.872,1.786,1.786,0,0,0-1.221-1.61,39.939,39.939,0,0,0-3.967-1.543,5.5,5.5,0,0,1-1.668-.883,1.64,1.64,0,0,1-.687-1.32,2.111,2.111,0,0,1,.818-1.521,6.2,6.2,0,0,1,1.973-1.2,12.1,12.1,0,0,1,4.206-.961Q679.839,308.29,679.84,309.52Z" transform="translate(-621.725 -308.29)" fill="#fff"/><path d="M688.79,325.818v.38a1.162,1.162,0,0,1-.24.514c-.16.238-.283.358-.37.358-.48,0-.719-.12-.719-.358q0-.179.436-.537a2.283,2.283,0,0,1,.752-.491C688.742,325.684,688.79,325.729,688.79,325.818Z" transform="translate(-628.452 -313.764)" fill="#fff"/></g><path d="M615.59,191.373l-3.9-16.214L596.3,171.178l15.391-3.982,3.9-16.215,3.9,16.215,15.392,3.982-15.392,3.982Zm-8.345-20.2,6.727,1.741,1.618,6.73,1.618-6.73,6.728-1.741-6.728-1.741-1.618-6.73-1.618,6.73Z" transform="translate(-60.759 0)" fill="#fff"/><g transform="translate(489.162 153.025)"><path d="M646.579,185.566a63.77,63.77,0,0,1-.912,11.249c-.412,2.533-.933,5.058-1.53,7.577s-1.277,5-1.97,7.621l6,1.409c.541-2.524,1.142-5.183,1.632-7.829s.922-5.335,1.231-8.041a66.731,66.731,0,0,0,.315-13.219Z" transform="translate(-564.354 -163.521)" fill="#fff"/><path d="M630.774,158.042a19.071,19.071,0,0,1,5.549,2.258,11.182,11.182,0,0,1,4.424,4.934c.119.251.208.5.311.774l.292.854c.119.4.236.8.345,1.2l4.959,1.283c-.143-.634-.3-1.266-.491-1.894-.184-.687-.434-1.364-.672-2.04l-.4-1.005c-.145-.337-.3-.7-.483-1.041a15.294,15.294,0,0,0-6.314-6.42,23.761,23.761,0,0,0-8.15-2.619c-.091-.013-.182-.018-.272-.03Z" transform="translate(-560.486 -154.07)" fill="#fff"/><path d="M571.714,162.133q.932-.4,1.852-.851l1.766-.9a31.9,31.9,0,0,1,7.229-2.392,42.16,42.16,0,0,1,7.316-.892l.753-3.131c-.209.013-.419.018-.627.034a45.052,45.052,0,0,0-8.071,1.378,34.3,34.3,0,0,0-7.658,2.978l-1.72.988q-.842.464-1.712.889c-1.161.564-2.352,1.08-3.562,1.562-2.421.958-4.916,1.766-7.439,2.484a125.872,125.872,0,0,1-15.449,3.234,153.171,153.171,0,0,1-15.77,1.5,153.445,153.445,0,0,0,15.863-.748,126.981,126.981,0,0,0,15.733-2.514c2.6-.605,5.177-1.306,7.719-2.172C569.208,163.142,570.469,162.667,571.714,162.133Z" transform="translate(-528.622 -153.964)" fill="#fff"/></g></g></svg>