<svg xmlns="http://www.w3.org/2000/svg" width="467" height="88.446" viewBox="0 0 467 88.446"><g transform="translate(-712.5 -5597.542)"><g transform="translate(491.525 5506.603)"><g transform="translate(310.011 100.509)"><path d="M384.06,120.507V107.628h1.932v30.346H384.06V122.318H365.626v15.656h-1.932V107.628h1.932v12.879Z" transform="translate(-362.282 -106.622)" fill="#fff"/><path d="M415.139,127.412l-4.066,9.981H409.1L421.82,106.04,434.5,137.393h-1.972l-4.065-9.981Zm6.681-16.462-5.957,14.65h11.873Z" transform="translate(-378.913 -106.04)" fill="#fff"/><path d="M486.808,138.748l-25.477-27.087v26.081H459.4V106.993l25.477,26.886V107.4h1.932Z" transform="translate(-397.334 -106.389)" fill="#fff"/><path d="M534.039,107.628h2.576l-14.851,14.61,15.777,15.737H535l-14.569-14.489-.8.805v13.684H517.7V107.628h1.932v14.167Z" transform="translate(-418.686 -106.622)" fill="#fff"/><path d="M560.528,137.974H558.6V107.628h1.932Z" transform="translate(-433.665 -106.622)" fill="#fff"/><path d="M604.1,138.748l-25.476-27.087v26.081H576.7V106.993l25.477,26.886V107.4H604.1Z" transform="translate(-440.294 -106.389)" fill="#fff"/><path d="M648.157,112.386A6.928,6.928,0,0,0,642,108.8a5.7,5.7,0,0,0-5.715,5.8c0,3.18,3.019,4.507,5.474,5.675l5.8,3.019a6.631,6.631,0,0,1,3.461,6.037c0,5.031-4.588,8.814-9.5,8.814a9.373,9.373,0,0,1-8.935-6.52l1.69-.765c1.288,3.22,3.662,5.474,7.326,5.474a7.382,7.382,0,0,0,7.486-7.165c0-3.421-3.5-4.87-6.118-6.158l-5.474-2.9a6.077,6.077,0,0,1-3.14-5.433,7.418,7.418,0,0,1,7.768-7.687,8.5,8.5,0,0,1,7.405,4.266Z" transform="translate(-460.762 -106.389)" fill="#fff"/><path d="M705.235,132.618c-3.381,2.858-7.244,5.635-11.189,5.635a7.936,7.936,0,0,1-7.929-8.009c0-5.313,5.071-8.412,9.217-11.028-1.409-1.972-3.18-4.025-3.18-6.641a5.936,5.936,0,0,1,5.917-5.836,5.524,5.524,0,0,1,5.514,5.635c0,3.461-2.737,5.474-5.675,7.486l7.486,10.223,3.864-4.226,1.489.8-4.226,4.829,4.628,6.158h-2.093Zm-10.706-10.585c-2.9,1.851-6.48,4.185-6.48,8.009a6.131,6.131,0,0,0,6,6.4c3.542,0,7.244-3.019,10.062-5.353l-7.647-10.344Zm-.443-9.257c0,2.173,1.61,3.783,2.7,5.594,2.133-1.69,4.87-2.978,4.87-6.037a3.736,3.736,0,0,0-3.7-3.783A4.132,4.132,0,0,0,694.086,112.776Z" transform="translate(-480.37 -106.296)" fill="#fff"/><path d="M762.85,112.386a6.928,6.928,0,0,0-6.157-3.582,5.7,5.7,0,0,0-5.716,5.8c0,3.18,3.019,4.507,5.474,5.675l5.8,3.019a6.629,6.629,0,0,1,3.462,6.037c0,5.031-4.589,8.814-9.5,8.814a9.374,9.374,0,0,1-8.935-6.52l1.691-.765c1.288,3.22,3.663,5.474,7.325,5.474a7.382,7.382,0,0,0,7.486-7.165c0-3.421-3.5-4.87-6.117-6.158l-5.474-2.9a6.079,6.079,0,0,1-3.139-5.433,7.418,7.418,0,0,1,7.768-7.687,8.5,8.5,0,0,1,7.405,4.266Z" transform="translate(-502.769 -106.389)" fill="#fff"/><path d="M817.616,122.569a15.738,15.738,0,1,1-15.737-15.576A15.805,15.805,0,0,1,817.616,122.569Zm-29.542,0A13.805,13.805,0,1,0,801.879,108.8,13.9,13.9,0,0,0,788.074,122.569Z" transform="translate(-517.004 -106.389)" fill="#fff"/><path d="M868.362,120.507V107.628h1.932v30.346h-1.932V122.318H849.929v15.656H848V107.628h1.932v12.879Z" transform="translate(-539.659 -106.622)" fill="#fff"/><path d="M925.639,138.748l-25.477-27.087v26.081h-1.932V106.993l25.477,26.886V107.4h1.932Z" transform="translate(-558.057 -106.389)" fill="#fff"/><path d="M362.561,189.572h-1.1v-17.2H364.5a5.371,5.371,0,0,1,3.719,1,4.773,4.773,0,0,1,.114,6.934,5.7,5.7,0,0,1-3.833,1.1h-1.939Zm1.984-9.193a4.148,4.148,0,0,0,3.012-.935,3.371,3.371,0,0,0,1.117-2.577,3.428,3.428,0,0,0-1.3-2.783,4.765,4.765,0,0,0-3.011-.684h-1.8v6.981Z" transform="translate(-361.466 -130.334)" fill="#fff"/><path d="M383.44,188.546h4.38v1.026h-5.475v-17.2h1.1Z" transform="translate(-369.113 -130.334)" fill="#fff"/><path d="M400.852,183.585l-2.3,5.657H397.43l7.208-17.77,7.186,17.77h-1.118l-2.3-5.657Zm3.787-9.33-3.376,8.3h6.729Z" transform="translate(-374.638 -130.005)" fill="#fff"/><path d="M434.589,175.069a3.926,3.926,0,0,0-3.49-2.031,3.233,3.233,0,0,0-3.239,3.285c0,1.8,1.711,2.555,3.1,3.216l3.285,1.711a3.757,3.757,0,0,1,1.962,3.422,5.26,5.26,0,0,1-5.384,5,5.314,5.314,0,0,1-5.064-3.7l.958-.433a4.373,4.373,0,0,0,4.152,3.1,4.184,4.184,0,0,0,4.244-4.06c0-1.939-1.985-2.76-3.468-3.49l-3.1-1.643a3.445,3.445,0,0,1-1.78-3.079,4.2,4.2,0,0,1,4.4-4.357,4.82,4.82,0,0,1,4.2,2.418Z" transform="translate(-385.014 -130.202)" fill="#fff"/><path d="M453.443,189.572h-1.1V173.4H447.9v-1.026h9.992V173.4h-4.449Z" transform="translate(-393.123 -130.334)" fill="#fff"/><path d="M473.943,189.572h-1.1v-17.2h1.1Z" transform="translate(-402.26 -130.334)" fill="#fff"/><path d="M498.087,175.753a7.848,7.848,0,0,0-5.771-2.715,7.991,7.991,0,0,0-7.824,7.916,7.489,7.489,0,0,0,2.3,5.315,8.351,8.351,0,0,0,5.521,2.372,8.177,8.177,0,0,0,5.771-2.623v1.506a8.855,8.855,0,1,1-5.7-15.512,8.532,8.532,0,0,1,5.7,2.235Z" transform="translate(-406.123 -130.202)" fill="#fff"/><path d="M535.856,175.069a3.928,3.928,0,0,0-3.491-2.031,3.233,3.233,0,0,0-3.239,3.285c0,1.8,1.711,2.555,3.1,3.216l3.285,1.711a3.758,3.758,0,0,1,1.962,3.422,5.26,5.26,0,0,1-5.384,5,5.314,5.314,0,0,1-5.064-3.7l.958-.433a4.374,4.374,0,0,0,4.152,3.1,4.184,4.184,0,0,0,4.244-4.06c0-1.939-1.985-2.76-3.468-3.49l-3.1-1.643a3.445,3.445,0,0,1-1.78-3.079,4.2,4.2,0,0,1,4.4-4.357,4.819,4.819,0,0,1,4.2,2.418Z" transform="translate(-422.103 -130.202)" fill="#fff"/><path d="M561.48,172.372h1.094v10.722c0,1.756,0,3.262-1.163,4.7a6.452,6.452,0,0,1-9.354,0c-1.163-1.437-1.163-2.943-1.163-4.7V172.372h1.1v10.4c0,1.551,0,3.193.889,4.334a5.3,5.3,0,0,0,7.711,0c.89-1.141.89-2.783.89-4.334Z" transform="translate(-430.845 -130.334)" fill="#fff"/><path d="M588.743,189.572h-1.255l-5.612-8.144h-.547v8.144h-1.1v-17.2h2.145a6.327,6.327,0,0,1,3.923.866,4.319,4.319,0,0,1,1.734,3.7c0,2.988-2.076,4.54-4.927,4.494Zm-6.022-9.17a4.29,4.29,0,0,0,3.011-.8,3.443,3.443,0,0,0,1.209-2.714,3.283,3.283,0,0,0-1.825-3.1,7.344,7.344,0,0,0-3.079-.388h-.707v7Z" transform="translate(-441.59 -130.334)" fill="#fff"/><path d="M617.225,181.16a7.58,7.58,0,0,1-1.8,5.725,8.77,8.77,0,1,1,1.072-10.858l-.89.707a7.878,7.878,0,0,0-6.639-3.7,8,8,0,0,0-7.8,7.8,7.857,7.857,0,0,0,7.8,7.8,8.219,8.219,0,0,0,5.065-1.893,5.74,5.74,0,0,0,2.1-4.563h-6.159V181.16Z" transform="translate(-448.855 -130.202)" fill="#fff"/><path d="M637.057,173.4v6.251h6.935v1.027h-6.935v7.871h7.117v1.026h-8.212v-17.2h8.212V173.4Z" transform="translate(-462.001 -130.334)" fill="#fff"/><path d="M667.33,189.572h-1.254l-5.612-8.144h-.548v8.144h-1.1v-17.2h2.145a6.328,6.328,0,0,1,3.923.866,4.319,4.319,0,0,1,1.734,3.7c0,2.988-2.076,4.54-4.928,4.494Zm-6.022-9.17a4.291,4.291,0,0,0,3.011-.8,3.444,3.444,0,0,0,1.209-2.714,3.283,3.283,0,0,0-1.825-3.1,7.345,7.345,0,0,0-3.079-.388h-.707v7Z" transform="translate(-470.373 -130.334)" fill="#fff"/><path d="M676.785,172.372h1.209l5.064,8.714,5.064-8.714h1.209l-5.726,9.855v7.345h-1.1v-7.345Z" transform="translate(-476.952 -130.334)" fill="#fff"/><path d="M717.862,183.585l-2.3,5.657H714.44l7.209-17.77,7.186,17.77h-1.118l-2.3-5.657Zm3.787-9.33-3.376,8.3H725Z" transform="translate(-490.743 -130.005)" fill="#fff"/><path d="M750.881,175.069a3.927,3.927,0,0,0-3.49-2.031,3.233,3.233,0,0,0-3.24,3.285c0,1.8,1.71,2.555,3.1,3.216l3.284,1.711a3.757,3.757,0,0,1,1.962,3.422,5.363,5.363,0,0,1-10.448,1.3l.958-.433a4.374,4.374,0,0,0,4.152,3.1,4.183,4.183,0,0,0,4.243-4.06c0-1.939-1.984-2.76-3.467-3.49l-3.1-1.643a3.446,3.446,0,0,1-1.779-3.079,4.2,4.2,0,0,1,4.4-4.357,4.821,4.821,0,0,1,4.2,2.418Z" transform="translate(-500.857 -130.202)" fill="#fff"/><path d="M773.632,175.069a3.927,3.927,0,0,0-3.49-2.031,3.233,3.233,0,0,0-3.24,3.285c0,1.8,1.711,2.555,3.1,3.216l3.285,1.711a3.757,3.757,0,0,1,1.962,3.422,5.363,5.363,0,0,1-10.448,1.3l.958-.433a4.374,4.374,0,0,0,4.151,3.1,4.183,4.183,0,0,0,4.244-4.06c0-1.939-1.984-2.76-3.467-3.49l-3.1-1.643a3.446,3.446,0,0,1-1.779-3.079,4.2,4.2,0,0,1,4.4-4.357,4.821,4.821,0,0,1,4.2,2.418Z" transform="translate(-509.189 -130.202)" fill="#fff"/><path d="M805.143,180.84a8.92,8.92,0,1,1-8.919-8.828A8.958,8.958,0,0,1,805.143,180.84Zm-16.744,0a7.825,7.825,0,1,0,7.825-7.8A7.877,7.877,0,0,0,788.4,180.84Z" transform="translate(-517.43 -130.202)" fill="#fff"/><path d="M835.906,175.753a7.847,7.847,0,0,0-5.771-2.715,7.992,7.992,0,0,0-7.825,7.916,7.49,7.49,0,0,0,2.3,5.315,8.35,8.35,0,0,0,5.521,2.372,8.176,8.176,0,0,0,5.771-2.623v1.506a8.854,8.854,0,1,1-5.7-15.512,8.532,8.532,0,0,1,5.7,2.235Z" transform="translate(-529.85 -130.202)" fill="#fff"/><path d="M853.7,189.572h-1.095v-17.2H853.7Z" transform="translate(-541.347 -130.334)" fill="#fff"/><path d="M864.02,183.585l-2.3,5.657H860.6l7.209-17.77,7.186,17.77h-1.118l-2.3-5.657Zm3.787-9.33-3.376,8.3h6.729Z" transform="translate(-544.274 -130.005)" fill="#fff"/><path d="M889.541,189.572h-1.094V173.4H884v-1.026h9.992V173.4h-4.449Z" transform="translate(-552.844 -130.334)" fill="#fff"/><path d="M907.16,173.4v6.251h6.935v1.027H907.16v7.871h7.117v1.026h-8.212v-17.2h8.212V173.4Z" transform="translate(-560.926 -130.334)" fill="#fff"/><path d="M934.946,175.069a3.929,3.929,0,0,0-3.491-2.031,3.233,3.233,0,0,0-3.239,3.285c0,1.8,1.71,2.555,3.1,3.216l3.286,1.711a3.758,3.758,0,0,1,1.962,3.422,5.364,5.364,0,0,1-10.449,1.3l.958-.433a4.373,4.373,0,0,0,4.152,3.1,4.183,4.183,0,0,0,4.243-4.06c0-1.939-1.984-2.76-3.467-3.49l-3.1-1.643a3.446,3.446,0,0,1-1.779-3.079,4.2,4.2,0,0,1,4.4-4.357,4.819,4.819,0,0,1,4.2,2.418Z" transform="translate(-568.27 -130.202)" fill="#fff"/></g><rect width="1.274" height="385.64" transform="translate(302.334 169.914) rotate(-90)" fill="#fff"/><rect width="69.696" height="1.548" transform="translate(223.141 134.767)" fill="#fff"/><g transform="translate(220.974 98.925)"><path d="M248.527,103.812c.073.254.158.46-.279.7-.194.108-1.062.371-1.176.412a33.9,33.9,0,0,0-15.624,11.293,37.957,37.957,0,0,0-7.753,23.866c.263,14.531,9.6,28.905,22.578,34.444.441.188.858.349,1.309.509.752.267,1.14.348.986.84-.153.364-.594.121-1.253-.1-.565-.194-.21-.1-1.2-.453-14.745-5.318-25-20.546-25.144-35.579A37.436,37.436,0,0,1,245.8,104.26c.765-.272.863-.27,1.83-.594C248.4,103.408,248.43,103.593,248.527,103.812Z" transform="translate(-220.974 -103.54)" fill="#fff"/></g><g transform="translate(267.433 98.925)"><path d="M294.357,103.812c-.072.254-.157.46.279.7.194.108,1.063.371,1.176.412a33.908,33.908,0,0,1,15.624,11.293,37.96,37.96,0,0,1,7.753,23.866c-.264,14.531-9.6,28.905-22.578,34.444-.441.188-.858.349-1.309.509-.752.267-1.14.348-.986.84.153.364.594.121,1.252-.1.566-.194.21-.1,1.2-.453,14.745-5.318,24.995-20.546,25.144-35.579a37.435,37.435,0,0,0-24.823-35.483c-.765-.272-.863-.27-1.83-.594C294.483,103.408,294.454,103.593,294.357,103.812Z" transform="translate(-294.283 -103.54)" fill="#fff"/></g><path d="M278.049,135.16c-1.844-4.131-5.775-10.975-6.692-20.145-1.041-10.41,3.091-17.871,5.154-21.5.133-.234.612-.984.864-1.406.567-.953.225-1.112.225-1.112s-.378-.3-.9.472c-.171.251-2.267,2.9-2.537,3.305-2.12,3.168-5.8,7.768-6.557,15.935-1.08,11.567,6.27,24.61,6.27,24.61" transform="translate(-17.039 0)" fill="#fff"/><path d="M277.49,160.63c1.843,4.131,5.775,10.975,6.692,20.145,1.041,10.409-3.091,17.871-5.154,21.5-.133.234-.612.984-.864,1.406-.567.953-.225,1.112-.225,1.112s.378.3.9-.472c.171-.251,2.267-2.9,2.537-3.3,2.12-3.168,5.8-7.768,6.557-15.935,1.079-11.568-6.27-24.61-6.27-24.61" transform="translate(-20.699 -25.467)" fill="#fff"/></g></g></svg>