<svg xmlns="http://www.w3.org/2000/svg" xmlns:xlink="http://www.w3.org/1999/xlink" width="358.63" height="114.832" viewBox="0 0 358.63 114.832">
  <defs>
    <linearGradient id="linear-gradient" x1="0.5" y1="-0.074" x2="0.5" y2="1.041" gradientUnits="objectBoundingBox">
      <stop offset="0" stop-color="#9f885e"/>
      <stop offset="0.215" stop-color="#ceb587"/>
      <stop offset="0.4" stop-color="#f1d7a5"/>
      <stop offset="0.5" stop-color="#ffe4b1"/>
      <stop offset="0.585" stop-color="#f8ddab"/>
      <stop offset="0.708" stop-color="#e5cb9a"/>
      <stop offset="0.852" stop-color="#c6ad7f"/>
      <stop offset="1" stop-color="#9f885e"/>
    </linearGradient>
  </defs>
  <g id="Group_120" data-name="Group 120" transform="translate(-500.37 -39)">
    <g id="Group_4" data-name="Group 4" transform="translate(500.37 39)">
      <path id="Path_1" data-name="Path 1" d="M137.3,167.37a16.287,16.287,0,0,1-6.982-7.275c-.094-.206-.195-.4-.294-.6.1-.2.2-.391.294-.6a16.281,16.281,0,0,1,6.971-7.269,13.421,13.421,0,0,1,1.694-.736l.582-.211-3.89-3.888a23.669,23.669,0,0,0-9.1-5.7,23.689,23.689,0,0,0,2.408-10.461v-3.021l-.149-2.427-.523.242a13.285,13.285,0,0,1-1.606.632,16.263,16.263,0,0,1-10.081-.209c-.214-.075-.42-.145-.629-.212-.068-.209-.135-.418-.212-.629a16.3,16.3,0,0,1-.212-10.07,13.763,13.763,0,0,1,.679-1.716l.262-.561h-5.5a23.679,23.679,0,0,0-10.463,2.408,23.678,23.678,0,0,0-5.694-9.1l-2.136-2.134L90.9,102.234l-.2.539a13.873,13.873,0,0,1-.688,1.583,16.291,16.291,0,0,1-7.277,6.982c-.2.1-.4.195-.594.294-.195-.1-.391-.2-.6-.3a16.276,16.276,0,0,1-7.271-6.971,14.009,14.009,0,0,1-.734-1.693l-.211-.582-3.888,3.888a23.693,23.693,0,0,0-5.7,9.1,23.667,23.667,0,0,0-10.461-2.408l-3.019,0-2.428.148.242.522a13.6,13.6,0,0,1,.632,1.606A16.286,16.286,0,0,1,48.5,125.03c-.077.212-.145.421-.212.629l-.011,0c-.2.066-.409.132-.618.207a16.274,16.274,0,0,1-10.07.212,13.355,13.355,0,0,1-1.716-.677l-.561-.262v5.5A23.657,23.657,0,0,0,37.722,141.1a23.694,23.694,0,0,0-9.1,5.7l-2.134,2.136-1.611,1.822.539.2a13.6,13.6,0,0,1,1.583.688,16.291,16.291,0,0,1,6.982,7.277c.1.2.195.4.294.594-.1.195-.2.39-.3.6a16.28,16.28,0,0,1-6.971,7.269,13.55,13.55,0,0,1-1.693.736l-.582.209,3.888,3.89a23.693,23.693,0,0,0,9.1,5.7,23.657,23.657,0,0,0-2.408,10.461l0,3.019.149,2.428.522-.242a13.4,13.4,0,0,1,1.6-.633,16.3,16.3,0,0,1,10.081.209c.212.079.421.146.63.214.066.207.134.416.211.629a16.285,16.285,0,0,1,.214,10.07,13.71,13.71,0,0,1-.679,1.716l-.264.56h5.5a23.687,23.687,0,0,0,10.461-2.406,23.694,23.694,0,0,0,5.7,9.1l2.136,2.134L73.4,216.78l.2-.539a13.319,13.319,0,0,1,.688-1.583,16.283,16.283,0,0,1,7.277-6.982c.2-.1.4-.195.594-.294.195.1.391.2.6.3a16.281,16.281,0,0,1,7.269,6.97,13.377,13.377,0,0,1,.734,1.691l.211.583,3.89-3.888a23.69,23.69,0,0,0,5.694-9.1,23.7,23.7,0,0,0,10.463,2.406h3.021l2.427-.149-.244-.522a13.413,13.413,0,0,1-.63-1.606,16.275,16.275,0,0,1,.209-10.081c.077-.212.145-.42.212-.629.207-.068.415-.135.629-.212a16.269,16.269,0,0,1,10.068-.211,13.875,13.875,0,0,1,1.718.676l.561.264v-5.5a23.689,23.689,0,0,0-2.408-10.461,23.687,23.687,0,0,0,9.1-5.7l2.136-2.136,1.611-1.822-.541-.2A13.547,13.547,0,0,1,137.3,167.37Zm-23.264,11.387a24.154,24.154,0,0,0,10.057-.132,21.426,21.426,0,0,1,2.337,9.746v1.848a18.394,18.394,0,0,0-9.627.193C117.762,185.655,116.832,181.743,114.036,178.757Zm-66.53,11.667a18.421,18.421,0,0,0-5.182-.74,18.147,18.147,0,0,0-4.457.55v-1.862a21.433,21.433,0,0,1,2.339-9.746,24.1,24.1,0,0,0,10.086.126C47.48,181.742,46.545,185.659,47.505,190.424Zm2.757-50.167a24.128,24.128,0,0,0-10.057.132,21.438,21.438,0,0,1-2.339-9.746v-1.848a18.426,18.426,0,0,0,9.627-.193C46.536,133.357,47.466,137.269,50.262,140.257Zm66.532-11.668a18.379,18.379,0,0,0,9.636.19v1.864a21.431,21.431,0,0,1-2.337,9.746,24.114,24.114,0,0,0-10.086-.127C116.816,137.272,117.753,133.355,116.794,128.588ZM58.616,175.353a23.885,23.885,0,0,0,3.876-3.139l5.24-5.24h6.95v6.95l-5.24,5.24A23.9,23.9,0,0,0,66.3,183.04v-7.687ZM74.682,152.04h-6.95l-5.24-5.24a23.938,23.938,0,0,0-3.874-3.139H66.3v-7.687a23.882,23.882,0,0,0,3.139,3.876l5.24,5.24Zm0,10.559v1.823h-4.4l3.109-3.11Zm-4.4-8.006h4.4v1.822L73.393,157.7ZM59.263,166.974h4.858l-3.434,3.436a21.258,21.258,0,0,1-15.131,6.266,21.626,21.626,0,0,1-3.965-.369,21.6,21.6,0,0,1,2.543-3.066A21.257,21.257,0,0,1,59.263,166.974Zm-12.789-1.086-.017.016H46.4a8.861,8.861,0,0,1-5.952-2.211,15.318,15.318,0,0,1-3.288-4.178,15.3,15.3,0,0,1,3.3-4.185,8.9,8.9,0,0,1,6.263-2.2l.214.055a8.183,8.183,0,0,1,5.254,2.376l3.943,3.945-3.943,3.943a8.175,8.175,0,0,1-5.518,2.391Zm12.789-1.466a23.972,23.972,0,0,0-4.96.52l5.437-5.435L54.3,154.072a23.975,23.975,0,0,0,4.96.52h7.411l4.915,4.915-4.915,4.915ZM44.134,145.773a21.422,21.422,0,0,1-2.543-3.066,21.623,21.623,0,0,1,3.965-.369A21.258,21.258,0,0,1,60.687,148.6l3.434,3.436H59.263A21.257,21.257,0,0,1,44.134,145.773Zm61.546-2.112a24.023,24.023,0,0,0-3.874,3.139l-5.24,5.24h-6.95v-6.95l5.24-5.24a23.936,23.936,0,0,0,3.139-3.876v7.687ZM89.616,164.422V162.6l1.287-1.287,3.11,3.11Zm15.417-9.829a23.964,23.964,0,0,0,4.96-.52l-5.435,5.435,5.435,5.435a23.972,23.972,0,0,0-4.96-.52H97.622l-4.915-4.915,4.915-4.915Zm12.8-1.466.016-.016h.053a8.864,8.864,0,0,1,5.952,2.211,15.33,15.33,0,0,1,3.288,4.178,15.242,15.242,0,0,1-3.3,4.184,8.825,8.825,0,0,1-6.254,2.2l-.222-.055a8.185,8.185,0,0,1-5.254-2.378l-3.945-3.943,3.945-3.945a8.166,8.166,0,0,1,5.518-2.389Zm-17.655-1.086,3.436-3.436a21.255,21.255,0,0,1,15.131-6.266,21.623,21.623,0,0,1,3.965.369,21.509,21.509,0,0,1-2.543,3.066,21.263,21.263,0,0,1-15.131,6.266Zm-10.559,4.374v-1.822h4.4L90.9,157.7ZM75.2,159.507l6.95-6.95,6.95,6.95-6.95,6.95Zm3.857-7.467H77.234v-4.4l3.11,3.109Zm8.008-4.4v4.4H85.24l-1.287-1.289Zm-10.35-15.98,5.435,5.435,5.435-5.435a23.937,23.937,0,0,0-.52,4.96v7.409l-4.915,4.915-4.915-4.915v-7.409A24.057,24.057,0,0,0,76.714,131.663Zm8.526,35.311h1.823v4.4l-3.11-3.11Zm-8.006,4.4v-4.4h1.822l1.289,1.287Zm10.35,15.978-5.435-5.433-5.435,5.435a24.053,24.053,0,0,0,.52-4.959V174.98l4.915-4.915,4.915,4.915v7.412A23.907,23.907,0,0,0,87.584,187.35Zm2.032-20.376h6.95l5.24,5.24a23.885,23.885,0,0,0,3.876,3.139H97.995v7.686a23.926,23.926,0,0,0-3.139-3.874l-5.24-5.24Zm30.548,6.266a21.42,21.42,0,0,1,2.543,3.066,21.625,21.625,0,0,1-3.965.369,21.255,21.255,0,0,1-15.131-6.266l-3.436-3.436h4.858A21.263,21.263,0,0,1,120.164,173.241Zm8.344-16.385c-2.686-4.041-6.111-6.149-10.2-6.282a24.131,24.131,0,0,0,7.016-7.206,21.432,21.432,0,0,1,8.547,5.237l1.308,1.308A18.405,18.405,0,0,0,128.508,156.855Zm-13.924-23.877a8.889,8.889,0,0,1-2.889,5.98l-.033-.006-.141.123a8.183,8.183,0,0,1-5.4,2.034h-5.578v-5.578a8.177,8.177,0,0,1,2.21-5.592l.108-.174v-.02a8.87,8.87,0,0,1,5.812-2.684,15.3,15.3,0,0,1,5.278.629A15.339,15.339,0,0,1,114.584,132.978ZM101.4,127.62a24.1,24.1,0,0,0-.132-10.057,21.433,21.433,0,0,1,9.746-2.339h1.85a18.394,18.394,0,0,0,.192,9.627C108.3,123.894,104.387,124.823,101.4,127.62ZM93.05,138.045l-3.434,3.434v-4.857a21.258,21.258,0,0,1,6.266-15.131,21.671,21.671,0,0,1,3.065-2.543,21.628,21.628,0,0,1,.371,3.965A21.259,21.259,0,0,1,93.05,138.045ZM91.067,123.37c-.126-4.1-2.233-7.532-6.284-10.224a18.385,18.385,0,0,0,6.95-6.68l1.317,1.317a21.424,21.424,0,0,1,5.238,8.545A24.175,24.175,0,0,0,91.067,123.37Zm-2.6.919a8.177,8.177,0,0,1-2.378,5.254l-3.943,3.943L78.2,129.544a8.178,8.178,0,0,1-2.391-5.518l-.046-.2-.016-.016a8.873,8.873,0,0,1,2.211-6.006,15.312,15.312,0,0,1,4.178-3.288,15.315,15.315,0,0,1,4.184,3.3,8.888,8.888,0,0,1,2.2,6.265Zm-15.257-.941a24.1,24.1,0,0,0-7.2-7.019,21.43,21.43,0,0,1,5.237-8.545l1.308-1.308a18.412,18.412,0,0,0,6.944,6.67C75.457,115.834,73.349,119.257,73.214,123.348Zm1.468,18.131-3.436-3.434a21.258,21.258,0,0,1-6.266-15.131,21.625,21.625,0,0,1,.369-3.965,21.5,21.5,0,0,1,3.065,2.543,21.253,21.253,0,0,1,6.268,15.131ZM54.691,124.5a17.523,17.523,0,0,0-3.461.365,18.408,18.408,0,0,0,.19-9.639h1.864a21.438,21.438,0,0,1,9.746,2.339,24.132,24.132,0,0,0-.127,10.086A11.563,11.563,0,0,0,54.691,124.5Zm.929,2.573a8.881,8.881,0,0,1,5.98,2.887l0,.038.121.138a8.18,8.18,0,0,1,2.034,5.4v5.578H58.173A8.168,8.168,0,0,1,52.58,138.9l-.174-.108h-.022a8.872,8.872,0,0,1-2.683-5.811,15.342,15.342,0,0,1,.629-5.278A15.313,15.313,0,0,1,55.62,127.072Zm-16.649,16.3a24.134,24.134,0,0,0,7.041,7.22c-4.1.127-7.532,2.235-10.222,6.284a18.42,18.42,0,0,0-6.681-6.949l1.317-1.319A21.445,21.445,0,0,1,38.971,143.367ZM35.79,162.158c2.686,4.039,6.111,6.148,10.2,6.282a24.123,24.123,0,0,0-7.019,7.206,21.445,21.445,0,0,1-8.545-5.237L29.118,169.1A18.416,18.416,0,0,0,35.79,162.158Zm13.924,23.877a8.894,8.894,0,0,1,2.887-5.982l.038.006.138-.121a8.183,8.183,0,0,1,5.4-2.034h5.578v5.578a8.171,8.171,0,0,1-2.211,5.592l-.108.173v.022a8.878,8.878,0,0,1-5.811,2.684,15.494,15.494,0,0,1-5.278-.63A15.267,15.267,0,0,1,49.714,186.036ZM62.9,191.392a24.109,24.109,0,0,0,.132,10.059,21.426,21.426,0,0,1-9.746,2.337H51.436a18.426,18.426,0,0,0-.193-9.627C56,195.119,59.911,194.19,62.9,191.392Zm8.347-10.424,3.436-3.436v4.86a21.255,21.255,0,0,1-6.268,15.129,21.5,21.5,0,0,1-3.065,2.543,21.625,21.625,0,0,1-.369-3.965A21.258,21.258,0,0,1,71.246,180.969Zm1.983,14.673c.127,4.1,2.235,7.532,6.284,10.224a18.4,18.4,0,0,0-6.949,6.681l-1.319-1.319a21.425,21.425,0,0,1-5.237-8.544A24.139,24.139,0,0,0,73.23,195.642Zm2.6-.918A8.183,8.183,0,0,1,78.2,189.47l3.945-3.945,3.943,3.945a8.16,8.16,0,0,1,2.391,5.518l.047.193.016.017a8.871,8.871,0,0,1-2.213,6.01,15.285,15.285,0,0,1-4.176,3.288,15.325,15.325,0,0,1-4.185-3.3,8.9,8.9,0,0,1-2.2-6.263Zm15.255.941a24.179,24.179,0,0,0,7.206,7.019,21.418,21.418,0,0,1-5.238,8.544l-1.308,1.308a18.407,18.407,0,0,0-6.942-6.67C88.841,203.18,90.949,199.755,91.083,195.666Zm-1.466-18.133,3.434,3.436A21.259,21.259,0,0,1,99.318,196.1a21.628,21.628,0,0,1-.371,3.965,21.671,21.671,0,0,1-3.065-2.543,21.262,21.262,0,0,1-6.266-15.129Zm23.451,16.618a18.419,18.419,0,0,0-.192,9.638h-1.862a21.431,21.431,0,0,1-9.746-2.337,24.131,24.131,0,0,0,.127-10.086C104.384,194.176,108.3,195.111,113.068,194.15Zm-4.388-2.208a8.9,8.9,0,0,1-5.99-2.9l0-.039-.112-.129a8.186,8.186,0,0,1-2.034-5.4v-5.578h5.578a8.167,8.167,0,0,1,5.591,2.21l.176.11h.02a8.869,8.869,0,0,1,2.683,5.809,15.275,15.275,0,0,1-.627,5.279A15.367,15.367,0,0,1,108.679,191.942Zm16.646-16.3a24.092,24.092,0,0,0-7.04-7.22c4.1-.127,7.532-2.235,10.222-6.285a18.412,18.412,0,0,0,6.681,6.95l-1.317,1.319A21.45,21.45,0,0,1,125.325,175.647Z" transform="translate(-24.733 -102.091)" fill="url(#linear-gradient)"/>
      <g id="Group_2" data-name="Group 2" transform="translate(131.222 20.29)">
        <g id="Group_1" data-name="Group 1">
          <path id="Path_2" data-name="Path 2" d="M133.641,144.578h1.1l-.666,9.715H108.223v-1.059h.646q2.325,0,3-.621a2.793,2.793,0,0,0,.863-1.576,36.163,36.163,0,0,0,.185-4.871v-15.31a34.676,34.676,0,0,0-.2-4.7,2.2,2.2,0,0,0-.9-1.578,6.321,6.321,0,0,0-2.958-.448v-1.059h22.309l.737,7.782h-1.083a12.159,12.159,0,0,0-1.807-4.638,4.582,4.582,0,0,0-2.543-1.729,22.5,22.5,0,0,0-4.743-.355H117.41v13.1h3.316a8.973,8.973,0,0,0,3.187-.391,2.05,2.05,0,0,0,1.2-1.185,10.793,10.793,0,0,0,.288-3.1h1.083v10.683H125.4a9.124,9.124,0,0,0-.437-3.488,2.112,2.112,0,0,0-1.278-1.15,10.615,10.615,0,0,0-2.843-.266H117.41v7.39q0,5.55.714,6.526t3.846.979h2.325a11.043,11.043,0,0,0,4.052-.632,7.232,7.232,0,0,0,3.027-2.6A15.165,15.165,0,0,0,133.641,144.578Z" transform="translate(-108.223 -123.074)" fill="#1d1549"/>
          <path id="Path_3" data-name="Path 3" d="M177.025,145.108l-.229,9.185H150.271v-1.059h.921a5.412,5.412,0,0,0,2.776-.506,2.354,2.354,0,0,0,.989-1.578,33.557,33.557,0,0,0,.218-4.984v-15.31a31.909,31.909,0,0,0-.218-4.811,2.111,2.111,0,0,0-.921-1.5,7.2,7.2,0,0,0-3.073-.413h-.692v-1.059H165.26v1.059h-1.382a7.575,7.575,0,0,0-3.016.38,1.992,1.992,0,0,0-.954,1.415,29,29,0,0,0-.244,4.927V147.2a27.958,27.958,0,0,0,.184,4.236,1.974,1.974,0,0,0,1,1.323,8.273,8.273,0,0,0,3.513.471h2.37a13.371,13.371,0,0,0,4.272-.506,5.977,5.977,0,0,0,2.647-2.21,17.337,17.337,0,0,0,2.292-5.41Z" transform="translate(-84.184 -123.074)" fill="#1d1549"/>
          <path id="Path_4" data-name="Path 4" d="M218.545,145.108l-.231,9.185H191.791v-1.059h.921a5.412,5.412,0,0,0,2.776-.506,2.354,2.354,0,0,0,.989-1.578,33.322,33.322,0,0,0,.218-4.984v-15.31a31.684,31.684,0,0,0-.218-4.811,2.111,2.111,0,0,0-.921-1.5,7.2,7.2,0,0,0-3.073-.413h-.692v-1.059h14.988v1.059H205.4a7.565,7.565,0,0,0-3.015.38,2,2,0,0,0-.956,1.415,29.236,29.236,0,0,0-.242,4.927V147.2a27.953,27.953,0,0,0,.184,4.236,1.965,1.965,0,0,0,1,1.323,8.264,8.264,0,0,0,3.511.471h2.372a13.371,13.371,0,0,0,4.272-.506,5.974,5.974,0,0,0,2.645-2.21,17.3,17.3,0,0,0,2.292-5.41Z" transform="translate(-60.447 -123.074)" fill="#1d1549"/>
          <path id="Path_5" data-name="Path 5" d="M258.832,144.578h1.1l-.666,9.715H233.414v-1.059h.644q2.327,0,3.005-.621a2.793,2.793,0,0,0,.863-1.576,36.164,36.164,0,0,0,.185-4.871v-15.31a35.057,35.057,0,0,0-.195-4.7,2.21,2.21,0,0,0-.9-1.578,6.316,6.316,0,0,0-2.958-.448v-1.059h22.31l.737,7.782h-1.083a12.188,12.188,0,0,0-1.806-4.638,4.591,4.591,0,0,0-2.545-1.729,22.5,22.5,0,0,0-4.743-.355H242.6v13.1h3.315a9,9,0,0,0,3.191-.391,2.061,2.061,0,0,0,1.2-1.185,10.791,10.791,0,0,0,.288-3.1h1.083v10.683H250.59a9.125,9.125,0,0,0-.437-3.488,2.112,2.112,0,0,0-1.278-1.15,10.616,10.616,0,0,0-2.843-.266H242.6v7.39q0,5.55.714,6.526t3.844.979h2.326a11.043,11.043,0,0,0,4.052-.632,7.253,7.253,0,0,0,3.029-2.6A15.221,15.221,0,0,0,258.832,144.578Z" transform="translate(-36.651 -123.074)" fill="#1d1549"/>
        </g>
      </g>
      <g id="Group_3" data-name="Group 3" transform="translate(131.277 63.248)">
        <path id="Path_6" data-name="Path 6" d="M114.19,158.142c-.1-.3-.211-.6-.321-.893s-.217-.593-.319-.9h-3.22c-.1.306-.209.607-.316.905s-.211.593-.313.886h-1.443q.429-1.219.814-2.255c.256-.692.508-1.342.753-1.958s.489-1.2.731-1.76.492-1.108.748-1.65h1.323q.384.813.748,1.65t.731,1.76c.247.616.5,1.267.759,1.958s.534,1.443.82,2.255Zm-2.251-6.152q-.252.585-.578,1.421t-.676,1.815h2.508q-.351-.981-.682-1.826T111.939,151.991Z" transform="translate(-108.258 -150.342)" fill="#1d1549"/>
        <path id="Path_7" data-name="Path 7" d="M113.858,158.142v-7.624h4.9V151.7h-3.51v1.878h3.126v1.157h-3.126v2.232h3.774v1.179Z" transform="translate(-105.056 -150.342)" fill="#1d1549"/>
        <path id="Path_8" data-name="Path 8" d="M120.286,157.172a1.855,1.855,0,0,0,1.091-.255.839.839,0,0,0,.339-.715.93.93,0,0,0-.115-.473,1.232,1.232,0,0,0-.33-.357,2.786,2.786,0,0,0-.523-.3c-.2-.093-.438-.181-.7-.27s-.52-.2-.765-.313a2.519,2.519,0,0,1-.649-.424,1.836,1.836,0,0,1-.621-1.451,1.991,1.991,0,0,1,.715-1.625,2.984,2.984,0,0,1,1.946-.586,4.535,4.535,0,0,1,1.272.16,3.7,3.7,0,0,1,.875.347l-.429,1.119a3.426,3.426,0,0,0-.82-.319,3.794,3.794,0,0,0-.919-.11,1.44,1.44,0,0,0-.874.233.759.759,0,0,0-.314.649.855.855,0,0,0,.105.435,1.079,1.079,0,0,0,.3.322,2.706,2.706,0,0,0,.451.264,6.008,6.008,0,0,0,.566.233c.36.132.681.264.963.4a2.786,2.786,0,0,1,.715.486,1.892,1.892,0,0,1,.445.66,2.422,2.422,0,0,1,.154.918,1.908,1.908,0,0,1-.731,1.6,3.438,3.438,0,0,1-2.141.569,5.8,5.8,0,0,1-.863-.061,5.18,5.18,0,0,1-.693-.151,4.224,4.224,0,0,1-.522-.181,3.665,3.665,0,0,1-.354-.17l.409-1.133a4.851,4.851,0,0,0,.8.329A3.92,3.92,0,0,0,120.286,157.172Z" transform="translate(-102.771 -150.406)" fill="#1d1549"/>
        <path id="Path_9" data-name="Path 9" d="M127.866,150.518v1.2h-2.342v6.425h-1.4v-6.425h-2.343v-1.2Z" transform="translate(-100.526 -150.342)" fill="#1d1549"/>
        <path id="Path_10" data-name="Path 10" d="M131.289,150.518h1.386v7.624h-1.386v-3.379h-3.312v3.379h-1.386v-7.624h1.386v3.048h3.312Z" transform="translate(-97.777 -150.342)" fill="#1d1549"/>
        <path id="Path_11" data-name="Path 11" d="M131.891,158.142v-7.624h4.894V151.7h-3.51v1.878H136.4v1.157h-3.126v2.232h3.774v1.179Z" transform="translate(-94.747 -150.342)" fill="#1d1549"/>
        <path id="Path_12" data-name="Path 12" d="M141.852,150.518v1.2h-2.343v6.425h-1.4v-6.425h-2.343v-1.2Z" transform="translate(-92.53 -150.342)" fill="#1d1549"/>
        <path id="Path_13" data-name="Path 13" d="M140.578,150.518h1.385v7.624h-1.385Z" transform="translate(-89.78 -150.342)" fill="#1d1549"/>
        <path id="Path_14" data-name="Path 14" d="M146.38,158.373a4.224,4.224,0,0,1-1.542-.267,3.06,3.06,0,0,1-1.154-.773,3.493,3.493,0,0,1-.726-1.25,5.23,5.23,0,0,1-.253-1.7,4.573,4.573,0,0,1,.292-1.694,3.68,3.68,0,0,1,.8-1.249,3.381,3.381,0,0,1,1.188-.773,3.988,3.988,0,0,1,1.465-.264,4.641,4.641,0,0,1,.857.071,6.489,6.489,0,0,1,.673.16,2.626,2.626,0,0,1,.471.187c.123.064.212.113.264.141l-.407,1.135a3.379,3.379,0,0,0-.753-.316,3.716,3.716,0,0,0-1.062-.148,2.486,2.486,0,0,0-.924.173,2.011,2.011,0,0,0-.742.509,2.435,2.435,0,0,0-.492.86,3.748,3.748,0,0,0-.174,1.2,4.2,4.2,0,0,0,.138,1.111,2.459,2.459,0,0,0,.423.871,1.9,1.9,0,0,0,.725.575,2.553,2.553,0,0,0,1.059.2,4.053,4.053,0,0,0,1.2-.146,4.875,4.875,0,0,0,.715-.283l.374,1.133a1.814,1.814,0,0,1-.355.178,5.338,5.338,0,0,1-.534.168,4.629,4.629,0,0,1-.695.132A6.19,6.19,0,0,1,146.38,158.373Z" transform="translate(-88.564 -150.406)" fill="#1d1549"/>
        <path id="Path_15" data-name="Path 15" d="M154.9,158.142c-.1-.3-.209-.6-.319-.893s-.217-.593-.319-.9h-3.222c-.1.306-.207.607-.313.905s-.212.593-.314.886h-1.441q.427-1.219.813-2.255c.256-.692.508-1.342.753-1.958s.489-1.2.731-1.76.49-1.108.747-1.65h1.325q.384.813.748,1.65t.731,1.76c.247.616.5,1.267.759,1.958s.534,1.443.819,2.255Zm-2.249-6.152q-.252.585-.578,1.421t-.676,1.815H153.9q-.351-.981-.682-1.826T152.65,151.991Z" transform="translate(-84.982 -150.342)" fill="#1d1549"/>
        <path id="Path_16" data-name="Path 16" d="M156.671,150.469a4.431,4.431,0,0,1,2.526.605,2.282,2.282,0,0,1-.654,3.95q.207.255.471.614c.178.242.357.506.539.789s.36.571.528.869.319.589.451.874h-1.551c-.14-.264-.291-.531-.451-.8s-.324-.528-.49-.783-.327-.49-.489-.715-.311-.42-.449-.6c-.1.009-.192.013-.264.013h-.882v2.883H154.57v-7.514a7.747,7.747,0,0,1,1.078-.151Q156.221,150.47,156.671,150.469Zm.1,1.2c-.3,0-.566.009-.816.031v2.464h.605a6.21,6.21,0,0,0,.891-.055,1.846,1.846,0,0,0,.643-.2.938.938,0,0,0,.391-.387,1.263,1.263,0,0,0,.132-.615,1.225,1.225,0,0,0-.132-.594.984.984,0,0,0-.38-.385,1.775,1.775,0,0,0-.588-.2A4.226,4.226,0,0,0,156.772,151.668Z" transform="translate(-81.781 -150.37)" fill="#1d1549"/>
        <path id="Path_17" data-name="Path 17" d="M164.91,150.518v1.2h-2.343v6.425h-1.4v-6.425h-2.343v-1.2Z" transform="translate(-79.348 -150.342)" fill="#1d1549"/>
        <path id="Path_18" data-name="Path 18" d="M165.7,157.172a1.853,1.853,0,0,0,1.089-.255.84.84,0,0,0,.341-.715.93.93,0,0,0-.116-.473,1.21,1.21,0,0,0-.33-.357,2.736,2.736,0,0,0-.523-.3c-.2-.093-.439-.181-.7-.27s-.519-.2-.764-.313a2.546,2.546,0,0,1-.649-.424,1.966,1.966,0,0,1-.451-.6,1.912,1.912,0,0,1-.171-.847,2,2,0,0,1,.715-1.625,2.994,2.994,0,0,1,1.949-.586,4.523,4.523,0,0,1,1.27.16,3.672,3.672,0,0,1,.875.347l-.431,1.119a3.388,3.388,0,0,0-.819-.319,3.79,3.79,0,0,0-.918-.11,1.442,1.442,0,0,0-.875.233.762.762,0,0,0-.313.649.855.855,0,0,0,.105.435,1.072,1.072,0,0,0,.3.322,2.707,2.707,0,0,0,.451.264,5.839,5.839,0,0,0,.566.233c.36.132.681.264.963.4a2.786,2.786,0,0,1,.715.486,1.9,1.9,0,0,1,.446.66,2.454,2.454,0,0,1,.154.918,1.909,1.909,0,0,1-.732,1.6,3.44,3.44,0,0,1-2.139.569,5.811,5.811,0,0,1-.864-.061,5.177,5.177,0,0,1-.693-.151,4.256,4.256,0,0,1-.523-.181,3.563,3.563,0,0,1-.35-.17l.405-1.133a4.841,4.841,0,0,0,.8.329A3.906,3.906,0,0,0,165.7,157.172Z" transform="translate(-76.811 -150.406)" fill="#1d1549"/>
        <path id="Path_19" data-name="Path 19" d="M174.962,158.142c-.1-.3-.209-.6-.319-.893s-.217-.593-.321-.9H171.1c-.1.306-.207.607-.314.905s-.211.593-.314.886h-1.441q.429-1.219.814-2.255c.256-.692.506-1.342.751-1.958s.49-1.2.731-1.76.492-1.108.748-1.65H173.4q.384.813.747,1.65t.732,1.76c.245.616.5,1.267.758,1.958s.534,1.443.82,2.255Zm-2.249-6.152q-.252.585-.578,1.421t-.677,1.815h2.51c-.236-.654-.462-1.262-.684-1.826S172.875,152.365,172.713,151.991Z" transform="translate(-73.513 -150.342)" fill="#1d1549"/>
        <path id="Path_20" data-name="Path 20" d="M179.768,158.142c-.248-.417-.528-.869-.835-1.347s-.627-.965-.957-1.452-.666-.96-1.007-1.421-.666-.869-.973-1.239v5.459h-1.364v-7.624h1.133q.438.46.946,1.1c.336.42.677.86,1.018,1.314s.67.912.989,1.369.6.886.852,1.283v-5.061h1.375v7.624Z" transform="translate(-70.312 -150.342)" fill="#1d1549"/>
        <path id="Path_21" data-name="Path 21" d="M186.547,154.351a4.409,4.409,0,0,1-.308,1.723,3.253,3.253,0,0,1-.875,1.223,3.6,3.6,0,0,1-1.364.723,6.1,6.1,0,0,1-1.765.237q-.462,0-1.045-.038a7.244,7.244,0,0,1-1.111-.159v-7.4a6.731,6.731,0,0,1,1.122-.154c.4-.02.75-.033,1.056-.033a6.42,6.42,0,0,1,1.749.223,3.586,3.586,0,0,1,1.358.707,3.154,3.154,0,0,1,.875,1.209A4.471,4.471,0,0,1,186.547,154.351Zm-5.083,2.675c.082.006.187.011.319.014s.311.006.539.006a2.782,2.782,0,0,0,2.086-.709,3.247,3.247,0,0,0,.016-3.978,2.782,2.782,0,0,0-2.078-.691,8.205,8.205,0,0,0-.882.031Z" transform="translate(-67.198 -150.37)" fill="#1d1549"/>
        <path id="Path_22" data-name="Path 22" d="M189.478,150.469a4.5,4.5,0,0,1,2.546.605,2.131,2.131,0,0,1,.886,1.894,2.576,2.576,0,0,1-.236,1.147,2.013,2.013,0,0,1-.688.783,3.211,3.211,0,0,1-1.1.445,6.914,6.914,0,0,1-1.484.141h-.695v2.686h-1.386v-7.514a7.119,7.119,0,0,1,1.073-.151Q188.982,150.47,189.478,150.469Zm.1,1.2c-.352,0-.641.009-.869.031v2.6h.671a3.4,3.4,0,0,0,1.54-.278,1.085,1.085,0,0,0,.539-1.062,1.259,1.259,0,0,0-.143-.627,1.021,1.021,0,0,0-.4-.4,1.85,1.85,0,0,0-.6-.2A4.247,4.247,0,0,0,189.577,151.668Z" transform="translate(-63.057 -150.37)" fill="#1d1549"/>
        <path id="Path_23" data-name="Path 23" d="M196.769,156.942v1.2h-4.82v-7.624h1.386v6.424Z" transform="translate(-60.411 -150.342)" fill="#1d1549"/>
        <path id="Path_24" data-name="Path 24" d="M201.512,158.142c-.1-.3-.207-.6-.319-.893s-.215-.593-.319-.9h-3.222c-.1.306-.206.607-.313.905s-.212.593-.314.886h-1.441q.429-1.219.814-2.255c.256-.692.506-1.342.751-1.958s.49-1.2.731-1.76.49-1.108.748-1.65h1.323q.384.813.748,1.65t.732,1.76c.245.616.5,1.267.758,1.958s.534,1.443.82,2.255Zm-2.248-6.152q-.255.585-.578,1.421t-.677,1.815h2.51c-.236-.654-.462-1.262-.684-1.826S199.424,152.365,199.264,151.991Z" transform="translate(-58.334 -150.342)" fill="#1d1549"/>
        <path id="Path_25" data-name="Path 25" d="M203.34,157.172a1.85,1.85,0,0,0,1.089-.255.836.836,0,0,0,.341-.715.929.929,0,0,0-.115-.473,1.232,1.232,0,0,0-.33-.357,2.786,2.786,0,0,0-.523-.3c-.206-.093-.439-.181-.7-.27s-.519-.2-.765-.313a2.547,2.547,0,0,1-.649-.424,1.967,1.967,0,0,1-.451-.6,1.934,1.934,0,0,1-.17-.847,2,2,0,0,1,.715-1.625,2.992,2.992,0,0,1,1.947-.586,4.534,4.534,0,0,1,1.271.16,3.658,3.658,0,0,1,.874.347l-.429,1.119a3.375,3.375,0,0,0-.82-.319,3.772,3.772,0,0,0-.918-.11,1.437,1.437,0,0,0-.874.233.758.758,0,0,0-.313.649.854.854,0,0,0,.1.435,1.079,1.079,0,0,0,.3.322,2.645,2.645,0,0,0,.451.264,5.681,5.681,0,0,0,.566.233c.358.132.681.264.962.4a2.76,2.76,0,0,1,.715.486,1.922,1.922,0,0,1,.448.66,2.455,2.455,0,0,1,.152.918,1.905,1.905,0,0,1-.732,1.6,3.433,3.433,0,0,1-2.139.569,5.827,5.827,0,0,1-.864-.061,5.153,5.153,0,0,1-.692-.151,4.258,4.258,0,0,1-.523-.181,3.619,3.619,0,0,1-.352-.17l.407-1.133a4.843,4.843,0,0,0,.8.329A3.9,3.9,0,0,0,203.34,157.172Z" transform="translate(-55.289 -150.406)" fill="#1d1549"/>
        <path id="Path_26" data-name="Path 26" d="M210.92,150.518v1.2h-2.343v6.425h-1.4v-6.425h-2.343v-1.2Z" transform="translate(-53.044 -150.342)" fill="#1d1549"/>
        <path id="Path_27" data-name="Path 27" d="M209.646,150.518h1.385v7.624h-1.385Z" transform="translate(-50.294 -150.342)" fill="#1d1549"/>
        <path id="Path_28" data-name="Path 28" d="M215.448,158.373a4.2,4.2,0,0,1-1.54-.267,3.067,3.067,0,0,1-1.155-.773,3.469,3.469,0,0,1-.726-1.25,5.187,5.187,0,0,1-.253-1.7,4.572,4.572,0,0,1,.292-1.694,3.656,3.656,0,0,1,.8-1.249,3.38,3.38,0,0,1,1.188-.773,3.985,3.985,0,0,1,1.463-.264,4.634,4.634,0,0,1,.858.071,6.451,6.451,0,0,1,.671.16,2.6,2.6,0,0,1,.473.187c.124.064.212.113.264.141l-.407,1.135a3.364,3.364,0,0,0-.754-.316,3.689,3.689,0,0,0-1.061-.148,2.492,2.492,0,0,0-.924.173,2.016,2.016,0,0,0-.743.509,2.407,2.407,0,0,0-.489.86,3.7,3.7,0,0,0-.176,1.2,4.341,4.341,0,0,0,.137,1.111,2.489,2.489,0,0,0,.424.871,1.894,1.894,0,0,0,.726.575,2.533,2.533,0,0,0,1.056.2,4.065,4.065,0,0,0,1.2-.146,4.875,4.875,0,0,0,.715-.283l.374,1.133a1.746,1.746,0,0,1-.357.178,5.339,5.339,0,0,1-.534.168,4.606,4.606,0,0,1-.693.132A6.173,6.173,0,0,1,215.448,158.373Z" transform="translate(-49.078 -150.406)" fill="#1d1549"/>
        <path id="Path_29" data-name="Path 29" d="M220.644,157.172a1.85,1.85,0,0,0,1.089-.255.836.836,0,0,0,.341-.715.93.93,0,0,0-.115-.473,1.232,1.232,0,0,0-.33-.357,2.786,2.786,0,0,0-.523-.3c-.206-.093-.44-.181-.706-.27s-.519-.2-.764-.313a2.546,2.546,0,0,1-.649-.424,1.967,1.967,0,0,1-.451-.6,1.934,1.934,0,0,1-.17-.847,2,2,0,0,1,.715-1.625,2.986,2.986,0,0,1,1.947-.586,4.515,4.515,0,0,1,1.27.16,3.672,3.672,0,0,1,.875.347l-.429,1.119a3.4,3.4,0,0,0-.82-.319,3.781,3.781,0,0,0-.918-.11,1.433,1.433,0,0,0-.874.233.759.759,0,0,0-.314.649.855.855,0,0,0,.105.435,1.093,1.093,0,0,0,.3.322,2.71,2.71,0,0,0,.451.264,5.874,5.874,0,0,0,.567.233c.358.132.679.264.962.4a2.76,2.76,0,0,1,.715.486,1.9,1.9,0,0,1,.446.66,2.423,2.423,0,0,1,.154.918,1.905,1.905,0,0,1-.732,1.6,3.437,3.437,0,0,1-2.139.569,5.826,5.826,0,0,1-.864-.061,5.1,5.1,0,0,1-.692-.151,4.168,4.168,0,0,1-.523-.181,3.616,3.616,0,0,1-.352-.17l.407-1.133a4.875,4.875,0,0,0,.8.329A3.906,3.906,0,0,0,220.644,157.172Z" transform="translate(-45.396 -150.406)" fill="#1d1549"/>
        <path id="Path_30" data-name="Path 30" d="M225.588,158.309a3.578,3.578,0,0,1-1.342-.228,2.461,2.461,0,0,1-1.474-1.591,3.925,3.925,0,0,1-.176-1.209v-4.764h1.4v4.632a2.961,2.961,0,0,0,.118.883,1.517,1.517,0,0,0,.33.6,1.313,1.313,0,0,0,.5.341,1.839,1.839,0,0,0,.655.11,1.877,1.877,0,0,0,.66-.11,1.312,1.312,0,0,0,.511-.341,1.517,1.517,0,0,0,.33-.6,2.914,2.914,0,0,0,.116-.883v-4.632h1.4v4.764a3.831,3.831,0,0,1-.181,1.209,2.649,2.649,0,0,1-.552.959,2.461,2.461,0,0,1-.941.632A3.659,3.659,0,0,1,225.588,158.309Z" transform="translate(-42.891 -150.342)" fill="#1d1549"/>
        <path id="Path_31" data-name="Path 31" d="M229.918,150.469a4.431,4.431,0,0,1,2.526.605,2.282,2.282,0,0,1-.654,3.95q.207.255.473.614c.176.242.355.506.538.789s.36.571.528.869.319.589.451.874h-1.551c-.14-.264-.291-.531-.451-.8s-.324-.528-.49-.783-.327-.49-.489-.715-.311-.42-.449-.6c-.1.009-.192.013-.264.013H229.2v2.883h-1.386v-7.514a7.747,7.747,0,0,1,1.078-.151Q229.468,150.47,229.918,150.469Zm.1,1.2c-.3,0-.566.009-.816.031v2.464h.605a6.21,6.21,0,0,0,.891-.055,1.866,1.866,0,0,0,.644-.2.956.956,0,0,0,.391-.387,1.281,1.281,0,0,0,.132-.615,1.243,1.243,0,0,0-.132-.594,1,1,0,0,0-.382-.385,1.775,1.775,0,0,0-.588-.2A4.226,4.226,0,0,0,230.019,151.668Z" transform="translate(-39.906 -150.37)" fill="#1d1549"/>
        <path id="Path_32" data-name="Path 32" d="M236.177,151.629a2.233,2.233,0,0,0-1.8.729,3.038,3.038,0,0,0-.621,2.029,4.082,4.082,0,0,0,.148,1.127,2.455,2.455,0,0,0,.442.875,2,2,0,0,0,.725.567,2.394,2.394,0,0,0,1.018.2c.242,0,.451-.009.627-.027a2.553,2.553,0,0,0,.418-.071v-2.74h1.386v3.664a6.71,6.71,0,0,1-.968.242,8.344,8.344,0,0,1-1.573.132,4.18,4.18,0,0,1-1.507-.264,3.127,3.127,0,0,1-1.162-.77,3.511,3.511,0,0,1-.742-1.243,5.016,5.016,0,0,1-.264-1.7,4.606,4.606,0,0,1,.291-1.694,3.684,3.684,0,0,1,.8-1.249,3.381,3.381,0,0,1,1.188-.773,3.957,3.957,0,0,1,1.452-.264,5.428,5.428,0,0,1,.94.071,6.726,6.726,0,0,1,.71.16,2.664,2.664,0,0,1,.489.187c.129.064.218.113.27.141l-.418,1.135a3.356,3.356,0,0,0-.819-.336A3.759,3.759,0,0,0,236.177,151.629Z" transform="translate(-37.34 -150.406)" fill="#1d1549"/>
        <path id="Path_33" data-name="Path 33" d="M237.547,158.142v-7.624h4.9V151.7h-3.51v1.878h3.125v1.157h-3.125v2.232h3.774v1.179Z" transform="translate(-34.343 -150.342)" fill="#1d1549"/>
        <path id="Path_34" data-name="Path 34" d="M244.016,150.469a4.425,4.425,0,0,1,2.524.605,2.28,2.28,0,0,1-.654,3.95c.138.17.3.374.473.614s.357.506.539.789.358.571.528.869.319.589.451.874h-1.551c-.14-.264-.291-.531-.451-.8s-.324-.528-.49-.783-.327-.49-.489-.715-.313-.42-.451-.6c-.1.009-.192.013-.264.013h-.88v2.883h-1.386v-7.514a7.714,7.714,0,0,1,1.078-.151Q243.566,150.47,244.016,150.469Zm.1,1.2c-.294,0-.564.009-.814.031v2.464h.605a6.225,6.225,0,0,0,.891-.055,1.845,1.845,0,0,0,.643-.2.938.938,0,0,0,.391-.387,1.264,1.264,0,0,0,.132-.615,1.226,1.226,0,0,0-.132-.594.985.985,0,0,0-.38-.385,1.775,1.775,0,0,0-.588-.2A4.256,4.256,0,0,0,244.115,151.668Z" transform="translate(-31.846 -150.37)" fill="#1d1549"/>
        <path id="Path_35" data-name="Path 35" d="M249.426,153.894c.33-.55.652-1.1.968-1.669s.6-1.136.858-1.707h1.539c-.409.776-.838,1.55-1.281,2.314s-.918,1.542-1.424,2.318v2.993H248.7v-2.971q-.759-1.179-1.43-2.334t-1.287-2.32h1.628c.258.57.539,1.141.847,1.707S249.088,153.344,249.426,153.894Z" transform="translate(-29.521 -150.342)" fill="#1d1549"/>
      </g>
    </g>
    <text id="Dr._Larry_Lickstein_MD" data-name="Dr. Larry Lickstein, MD" transform="translate(628 124.167)" fill="#1d1549" font-size="10" font-family="ProximaNova-Semibold, Proxima Nova" font-weight="600" letter-spacing="0.251em"><tspan x="27.86" y="9">DR. LARRY LICKSTEIN, MD</tspan></text>
    <line id="Line_20" data-name="Line 20" x2="109.904" transform="translate(683.938 119.678)" fill="none" stroke="#f0d6a4" stroke-width="1"/>
  </g>
</svg>
